<svg xmlns="http://www.w3.org/2000/svg" width="638.07" height="344.33" viewBox="0 0 638.07 344.33"><title>アセット 2</title><g id="レイヤー_2" data-name="レイヤー 2"><g id="レイヤー_1-2" data-name="レイヤー 1"><path d="M0,.53H17.23V6.19H5.66v39.7H0Z"/><path d="M48.1,3.36c.52.19.81.34.81.77,0,.67-.81.81-1.39.86-.53.82-1.1,1.78-2.83,5,2.54.24,5,.34,6,.34s1.68,0,2.35-.1a35.19,35.19,0,0,0-2.11,7.59,59.51,59.51,0,0,1-9.07-.43c-.58,1.29-1.25,3-1.73,4.22a74.28,74.28,0,0,0,10.65.72C49.87,25,49.1,28,48.72,29.47,45.79,29.28,42.48,29,38,28.32a15.38,15.38,0,0,0-.53,3.89c0,5.86,5.42,5.86,7.78,5.86,2.06,0,9.31,0,9.31-7,0-3.08-2.21-7.16-2.45-7.49A23.42,23.42,0,0,0,59.33,21c1.15,2.11,3.31,6.67,3.31,10.89,0,10.56-11.14,13-17.42,13-9.65,0-15-5-15-12A23.59,23.59,0,0,1,31,27.07a39.64,39.64,0,0,1-6.24-1.77l1.63-7.11a44.36,44.36,0,0,0,6.48,2.07c.19-.63.53-1.68,1.44-4.27a42.63,42.63,0,0,1-7.15-2.4l1.44-7.45a60.54,60.54,0,0,0,8.5,2.65c.48-1.3,2.78-7.16,3.26-8.36Z"/><path d="M73.25,17.71c1.87-.33,7-1.53,9.6-2.16,5.33-1.24,8.35-2,12.38-2,10.9,0,13.73,7.63,13.73,12.86,0,7.44-4.7,11.57-10.56,13.68a50.08,50.08,0,0,1-13.2,2.26,26.59,26.59,0,0,0-2.35-7.2,28.21,28.21,0,0,0,4,.24c7,0,14.88-1.49,14.88-8.88,0-5.19-3.31-6.53-6.67-6.53-6.72,0-15.27,4-19.25,5.85Z"/><path d="M157.78,18c-3.41.24-7.44.58-16.13,4.52-8.45,3.84-11.81,8-11.81,10.32,0,3.45,5.14,4.13,11.23,4.13,5.33,0,12.63-1.16,16.42-2.74a32.88,32.88,0,0,0-.53,8.45,100.08,100.08,0,0,1-16.22,1.44c-8.36,0-11.62-1.25-14-2.55a9.25,9.25,0,0,1-5.23-8.25c0-6.53,5.47-10.61,10.22-13.59-2.4-2.69-2.74-5.23-3.55-11.33a19.7,19.7,0,0,0-1.3-5.13l9.41-2c-.19,2.45-.29,3.5-.29,5a22.56,22.56,0,0,0,2.12,10.23A149.38,149.38,0,0,1,154.85,9.6Z"/><path d="M173.9,43.3v2.06h-7.15V11.62H181.3c.48-1.11,1-2.21,1.48-3.51H165.36V2.3h44.16V8.11H191.66c-.19.43-.86,1.83-1.77,3.51H208V45.36h-7.21V43.3Zm3.79-6.14V17.23H173.9V37.16ZM190,20.31V17.23H184.7v3.08Zm0,8.44V25.54H184.7v3.21Zm0,8.41V33.7H184.7v3.46Zm10.8,0V17.23H197V37.16Z"/><path d="M256,7.34V44.4h-7.64V42.72H222.57V44.4h-7.68V7.34h12.44a36.39,36.39,0,0,0,2.4-6.57l8.73,1c.58,0,.77.09.77.43,0,.57-.67.81-1.29,1-.92,2.12-1.35,2.88-2,4.08ZM222.57,21.65h25.78V13.78H222.57Zm25.78,6.19H222.57v8.45h25.78Z"/><path d="M296.26,5.28c.29.24.48.43.48.72a.52.52,0,0,1-.58.53,3,3,0,0,1-.81-.19c-1,.91-8.79,7-10.42,8.4-2.21,1.87-4.9,4.17-6.67,5.76-1.54,1.39-1.68,1.58-1.68,2s.19.62,2.06,1.68c.14.09,4.56,3,8.88,6.33,5.42,4.18,7.73,6.63,9.94,9.41a30.23,30.23,0,0,0-5.52,6.48c-2.12-3.12-10-11.47-24.2-20.64a3.35,3.35,0,0,1-1.63-2.83c0-1.25.19-1.83,5-5.67A126.43,126.43,0,0,0,289.44,0Z"/><path d="M326.78,46.13H309.55V40.47h11.57V.77h5.66Z"/><path d="M382.46,2c.29,0,1,.19,1,.86s-.86.72-1.2.72L381.12,6a51.5,51.5,0,0,0,9.94-2.25v7.1c-7.16,1.25-8,1.39-13.68,2.07-.58,1-.68,1.2-1.88,3.31a9.12,9.12,0,0,1,4.18-1,8.44,8.44,0,0,1,7,4.08c7.1-3.41,7.92-3.75,9.7-4.75l2.83,7.68a114.57,114.57,0,0,0-11,3.88c.1,1.4.15,2.88.15,4.32,0,2.17-.1,3.51-.15,4.81-1.53-.1-3.26-.1-4.8-.1a20.55,20.55,0,0,0-2.78.1,41,41,0,0,0,.33-5.48c-3,1.83-6,3.84-6,5.81,0,2.16,4.9,2.31,7.35,2.31a53.89,53.89,0,0,0,15.36-2.36,30.26,30.26,0,0,0-.91,7.64,60.08,60.08,0,0,1-13.4,1.39c-3.21,0-15.69,0-15.69-8.5,0-5.66,7.63-10.42,12.86-13.15a3.49,3.49,0,0,0-3.6-2.4c-5,0-8.35,5.37-11,9.65l-6.67-3.8a102.34,102.34,0,0,0,9.74-12.91c-2.59.1-4.7.1-6.77.05l.05-7c1.49.14,4.27.38,7.54.38,1.39,0,2,0,2.73,0A36.19,36.19,0,0,0,375.17.58Z"/><path d="M439.63,8.64A8.05,8.05,0,0,0,443,7.92l4,3.41c-.87,1.44-3.8,8-4.9,10.46-7.39,16.61-18.05,21.94-22.27,24.05-.82-1.05-2.16-2.64-6.2-5.47A43.88,43.88,0,0,0,429.26,29c3.89-4.7,6.1-10.51,7.16-13.44h-12a66,66,0,0,1-10.81,12.29c-2.59-2.73-3.55-3.74-5.85-5.18,11.66-9.89,14.69-18.34,15.74-21.22l6.92,3.36c.19.1.62.34.62.72s-.67.62-1.15.67c-.77,1.49-.91,1.87-1.25,2.45Z"/><path d="M468.19,2.93c.58,0,.91,0,.91.48s-.57.77-.91.91V27.79h-8V2.69Zm22-.87c.48,0,.91.1.91.48,0,.58-.58.82-.91,1V19.15c0,5.24-.91,10.52-3.84,14.84-2.64,3.89-8,9.07-14.55,11.09a13.81,13.81,0,0,0-5-6.15c15-5.23,15.31-14.83,15.31-19.73V1.78Z"/><path d="M527.38,32.93h16.94v7.3H502.8v-7.3h16.37V13.44H507V5.86h32.74v7.58H527.38Z"/><path d="M576.58,44.31h-8.26V22.47A86.39,86.39,0,0,1,555,29.28a23.37,23.37,0,0,0-5.76-6.86C567.55,17.23,579,4.18,582,.43l6.39,5a1.1,1.1,0,0,1,.57.91c0,.44-.38.63-.76.63a2.86,2.86,0,0,1-1-.15c-3.41,4.09-10.33,9.61-10.61,9.85Z"/><path d="M621.31,14.5c7.11,3.6,13.2,7.73,16.76,11.28-2.16,3.12-2.4,3.45-4.52,6.72a70.87,70.87,0,0,0-15-10.66V44.36h-8.12V2l8.12.38c.33,0,.91,0,.91.53s-.53.67-.91.77V18.34Z"/><path d="M18.76,117.84a17,17,0,0,1-1.58-3.17v9H15.84V115a24,24,0,0,1-2.32,5.15,2.71,2.71,0,0,0-1-1.21,21.38,21.38,0,0,0,3.33-7H13.05v-1.24h2.79V107.1l1.28.06c.33,0,.45.09.45.25s-.12.2-.39.31v3h2.17V112H17.18v.65a12,12,0,0,0,2.64,4.16A3.22,3.22,0,0,0,18.76,117.84ZM29.1,122.3a20.85,20.85,0,0,1-3.77-5.38v6.73H24v-6.57a19.1,19.1,0,0,1-3.92,5.38,3.74,3.74,0,0,0-1.19-1,16,16,0,0,0,4.75-6H19.86v-1.26H24v-2.56H21.34a16.29,16.29,0,0,1-1,1.84,2.9,2.9,0,0,0-1.26-.54A16.35,16.35,0,0,0,21.3,108l1.24.36c.2.06.34.11.34.22s-.21.23-.41.27a14.31,14.31,0,0,1-.59,1.65H24v-3.36l1.41.07c.23,0,.39,0,.39.2s-.29.27-.45.3v2.79h3.89v1.26H25.33v2.56h4.23v1.26H25.69A17.61,17.61,0,0,0,30.1,121,3.12,3.12,0,0,0,29.1,122.3Z"/><path d="M45.44,123.42c-2.2,0-5.1-5.19-5.94-11.2H30.89v-1.41H39.3c0-.63-.18-2.55-.18-3.65l1.58.13c.18,0,.42,0,.42.25s-.13.21-.47.34a27.43,27.43,0,0,0,.14,2.93H47.4v1.41H41c.81,5.71,3.57,9.56,4.29,9.56.56,0,.88-1.62,1.12-2.81a6,6,0,0,0,1.29,1C46.86,123.42,45.84,123.42,45.44,123.42Zm-5.38-1.87a64.21,64.21,0,0,1-8,1.6c-.09.29-.2.43-.36.43s-.22-.14-.27-.38l-.31-1.42c.63,0,1.77-.16,3.66-.43V116.4H31.58v-1.35h7.9v1.35H36.36v4.7a31.23,31.23,0,0,0,3.93-.92A6.23,6.23,0,0,0,40.06,121.55Zm5.22-10.88a17.86,17.86,0,0,0-3-2.36l.9-1a19.78,19.78,0,0,1,3,2.19A6.69,6.69,0,0,0,45.28,110.67Z"/><path d="M64.66,114.18a22,22,0,0,1-7.49-5.36,21.39,21.39,0,0,1-7.2,5.42,4.91,4.91,0,0,0-1.15-1.19c2.48-.94,6.19-3.21,7.81-6l1.68.31c.09,0,.3.11.3.23s-.18.22-.52.29a18.26,18.26,0,0,0,7.58,5A5.44,5.44,0,0,0,64.66,114.18Zm-7.88,3.46a.27.27,0,0,1,.11.2c0,.23-.33.25-.56.27-.33.59-1,1.89-2,3.31,3.15-.29,3.49-.32,6.53-.74A26.43,26.43,0,0,0,59,118.77l1.1-.9a30.78,30.78,0,0,1,4.39,4.94,5.86,5.86,0,0,0-1.15,1,19.24,19.24,0,0,0-1.49-2.07c-1.26.25-5,.74-5.19.76l-5.63.61c-.06.21-.13.43-.36.43s-.24-.25-.26-.36L50,121.73c.42,0,2.24-.13,2.6-.17a26.19,26.19,0,0,0,2.21-3.92h-5v-1.37H64.83v1.37Zm-4.22-3.08v-1.35H61.8v1.35Z"/><path d="M74.33,118.75a20.41,20.41,0,0,1-2.81-2.35v7.25H70v-6.08a23.17,23.17,0,0,1-2.37,2,4.05,4.05,0,0,0-1-1.18,15.89,15.89,0,0,0,5.65-6.07H67.11v-1.37H70V107.2l1.41,0c.16,0,.45,0,.45.27s-.18.25-.38.31v3.11h2.07l.7.65a21.36,21.36,0,0,1-2.14,3.62,15.43,15.43,0,0,0,3.11,2.37A5.9,5.9,0,0,0,74.33,118.75Zm-.81,4.09v-1.4h4.32v-7.19H74.33v-1.42h3.51v-5.65l1.58.09c.16,0,.33,0,.33.21s-.13.24-.4.31v5H83v1.42H79.35v7.19h4.11v1.4Z"/><path d="M99.73,111.5c-2.31,6.21-5.17,9.09-10.55,11.59A4.86,4.86,0,0,0,88,121.85a16,16,0,0,0,10.13-10.78h-12v-1.48H97.82a3.22,3.22,0,0,0,1.24-.16l1.15,1A5.26,5.26,0,0,0,99.73,111.5Zm.83-1.8A1.61,1.61,0,0,1,99,108.08a1.62,1.62,0,0,1,3.23,0A1.61,1.61,0,0,1,100.56,109.7Zm0-2.54a.94.94,0,0,0-.92.92.93.93,0,1,0,.92-.92Z"/><path d="M116.12,112.67a5.46,5.46,0,0,0,1.52-.18l1,.74c-.23.39-1.08,2.19-1.26,2.55-1.92,3.86-3.83,6-9,7.76a13.33,13.33,0,0,0-1.12-1.29c4.38-1.19,7.35-3.24,9.1-8.14H104.1v-1.44Zm.44-4.34v1.44H106.22v-1.44Z"/><path d="M135.89,122.59a24,24,0,0,0-5.65-5.85,20.14,20.14,0,0,1-7.76,6.08,3.86,3.86,0,0,0-1-1.38,17,17,0,0,0,10.37-11.22H123v-1.48h9.06a5.55,5.55,0,0,0,1.22-.12l.89.83a6.05,6.05,0,0,0-.67,1.18,27.84,27.84,0,0,1-2.48,4.94,31.12,31.12,0,0,1,6.1,5.74A8.47,8.47,0,0,0,135.89,122.59Z"/><path d="M142.37,122.7,141,123a24.06,24.06,0,0,1-.87-6.74,38.2,38.2,0,0,1,1-8.44l1.64.58c.16,0,.29.09.29.27s-.16.25-.49.27a29.74,29.74,0,0,0-1,7.5c0,1.34.11,2.25.16,2.92.22-.45,1-2.47,1.21-2.86a6.82,6.82,0,0,0,.88,1A11.22,11.22,0,0,0,142.37,122.7Zm12.26-1.32a10.32,10.32,0,0,0-3-1.87c.18,2.95-2.76,3.19-3.3,3.19a2.91,2.91,0,0,1-3.15-2.63c0-1.66,1.64-2.58,3.39-2.58a6.94,6.94,0,0,1,1.36.15c-.1-1.17-.12-1.53-.19-4.77a23.67,23.67,0,0,1-3.12.19c-.63,0-1,0-1.48,0v-1.57a17.25,17.25,0,0,0,2.06.11c.45,0,1.17,0,2.5-.11,0-.91,0-2.41,0-3.69l1.81.27c.13,0,.29.08.29.22s-.29.27-.41.29c-.11.86-.15,1.91-.18,2.72a21.67,21.67,0,0,0,3.15-.72V112c-.43.11-1.28.32-3.17.63a45.92,45.92,0,0,0,.25,5.26,12.77,12.77,0,0,1,3.89,2.12A12.61,12.61,0,0,0,154.63,121.38Zm-4.5-2.37a3.9,3.9,0,0,0-1.53-.27c-1.17,0-2,.43-2,1.35s1,1.33,1.89,1.33a1.59,1.59,0,0,0,1.77-1.69A4.39,4.39,0,0,0,150.13,119Z"/><path d="M161.28,123.11a15.42,15.42,0,0,0-3.65-3.47l1-1a23.23,23.23,0,0,1,3.9,3.21Z"/><path d="M190.88,114.06a22.4,22.4,0,0,1-7.81-5.44,21.07,21.07,0,0,1-7.48,5.71,4.27,4.27,0,0,0-1-1.19,17,17,0,0,0,8-6.22L184,107c.21,0,.52.13.52.26s-.16.21-.47.36a18.24,18.24,0,0,0,7.85,5.09A4.71,4.71,0,0,0,190.88,114.06ZM175.16,123V121.6h3v-6.7l1.53.13c.24,0,.42.11.42.27s-.29.3-.43.34v6h3V111.26l1.51.13c.08,0,.35,0,.35.22s-.22.28-.42.36v3.72h4.72v1.43h-4.72v4.48h7.1V123Z"/><path d="M201.86,109.21v2.14h3.6v8.36H197v-8.36h3.53v-2.14H193v-1.35h16.57v1.35Zm6.64,2.36v12H207v-1H195.39v1h-1.45V111l1.47.11c.27,0,.45.05.45.23s-.25.25-.47.31v9.65H207V110.92l1.48.09c.25,0,.45.06.45.22S208.84,111.44,208.5,111.57Zm-8,1h-2.2v2.31h2.2Zm0,3.49h-2.2v2.45h2.2Zm3.62-3.49h-2.27v2.31h2.27Zm0,3.49h-2.27v2.45h2.27Z"/><path d="M215.28,123.11a15.42,15.42,0,0,0-3.65-3.47l1-1a23.23,23.23,0,0,1,3.9,3.21Z"/><path d="M238.36,114.69c0,1.94-.14,6.64-6.17,8.6A6.06,6.06,0,0,0,231,122c5.1-1.42,5.76-4.48,5.76-7.32h-7.14v-1.44h15.1v1.44ZM232,109.84V108.4h10.14v1.44Zm12.17,1.23a9.35,9.35,0,0,0-1.85-1.88l.76-.79a17.37,17.37,0,0,1,1.92,1.82A6.7,6.7,0,0,0,244.19,111.07Zm1.19-1.28a9.93,9.93,0,0,0-1.87-1.87l.76-.8a14.36,14.36,0,0,1,1.92,1.82A4.69,4.69,0,0,0,245.38,109.79Z"/><path d="M259.3,112.94v.48c0,2.71-.08,7.5-6.32,9.93a4.88,4.88,0,0,0-1.17-1.26c5.87-2.06,5.87-5.78,5.87-9.15h-4.9v4.73h-1.6v-4.73h-3.62v-1.5h3.62v-3.83l1.49.11c.2,0,.38,0,.38.21s0,.15-.27.29v3.22h4.9V107.5l1.62.13c.12,0,.32,0,.32.18s-.22.27-.32.3v3.33h3.58v1.5Zm2.68-2.29a16.82,16.82,0,0,0-1.82-1.91L261,108a17.2,17.2,0,0,1,1.78,1.88A4,4,0,0,0,262,110.65Zm1.31-1.2a11.14,11.14,0,0,0-1.78-2l.81-.65a13.32,13.32,0,0,1,1.82,1.86A3.36,3.36,0,0,0,263.29,109.45Z"/><path d="M279.38,108.69a1.42,1.42,0,0,1-.36,0,28.63,28.63,0,0,1-4.59,4.23v10.38h-1.64V114a33.72,33.72,0,0,1-6.51,3.17,7.61,7.61,0,0,0-1.17-1.37A24.69,24.69,0,0,0,278,107.14l1.5,1.08a.3.3,0,0,1,.14.25C279.67,108.62,279.55,108.69,279.38,108.69Z"/><path d="M289.46,112.81a20.76,20.76,0,0,0-5.11-3.44l.93-1.33a24.35,24.35,0,0,1,5.16,3.4A10.17,10.17,0,0,0,289.46,112.81ZM286,122.54c0,.3-.05.41-.25.41s-.23-.13-.29-.22l-1-1.62a21.31,21.31,0,0,0,13.75-9.88,11,11,0,0,0,1,1.4C295.15,119.15,288.89,121.49,286,122.54Z"/><path d="M305.28,123.11a15.42,15.42,0,0,0-3.65-3.47l1-1a23.23,23.23,0,0,1,3.9,3.21Z"/><path d="M326.72,108.33a2.79,2.79,0,0,1-.43-.07,19,19,0,0,1-5.1,1.8v3.42h5.39v1.42h-5.39v4.5h5.39v1.39h-5.39v2.38H319.7V108.38l1.44.33a13.48,13.48,0,0,0,4.68-1.88l1,1c.15.14.18.19.18.28S326.94,108.33,326.72,108.33Zm4.34,13.18a4.11,4.11,0,0,0-.56-1.73,7.19,7.19,0,0,0,1.28.13c.88,0,1.3-.09,1.3-.92v-9.45h-3.89v14.15h-1.51V108.13h6.93v11.16C334.61,121,333.78,121.6,331.06,121.51Z"/><path d="M343.75,112.87v2h2.7v5.19c0,1.33-.47,1.51-1.91,1.55a2.41,2.41,0,0,0-.5-1.46,3.85,3.85,0,0,0,.74.07c.43,0,.43-.11.43-.5v-3.6h-1.46v7.52h-1.22v-7.52h-1.37v5.51h-1.24v-6.76h2.61v-2h-3.1c0,3.33-.09,6.78-1.44,10.17a4.93,4.93,0,0,0-1.39-.56c1.26-2.75,1.42-5.53,1.42-9.69V107.9h8.75v5Zm1.66-3.62h-6v2.36h6Zm3.85.18v10.26h-1.35V108.78l1.35,0c.29,0,.45.08.45.24S349.51,109.34,349.26,109.43Zm3.51-1.69v14c0,1.34-.29,1.93-3,2a3.47,3.47,0,0,0-.58-1.63,6.7,6.7,0,0,0,1,.09c1.11,0,1.11-.24,1.11-.92V107.12l1.46,0c.18,0,.38.07.38.27S352.92,107.68,352.77,107.74Z"/><path d="M359.28,123.11a15.42,15.42,0,0,0-3.65-3.47l1-1a23.23,23.23,0,0,1,3.9,3.21Z"/><path d="M387.8,113.8c-.7,2.51-2.32,7.55-8,9.85a7.37,7.37,0,0,0-1.17-1.2,11.48,11.48,0,0,0,5.48-4.07,15,15,0,0,0,2.46-6.52H376.08v4.66h-1.6v-6.08h5.94V107.5l1.64.11c.3,0,.39.07.39.2s-.29.29-.39.32v2.31h4.21a3.06,3.06,0,0,0,1.29-.18l1,.7C388.39,111.39,387.93,113.39,387.8,113.8Z"/><path d="M393.16,121.89v-1.32h5.31v-7.24h-4.05V112H404v1.33h-4.12v7.24h5.52v1.32Z"/><path d="M421.94,109.59a3.33,3.33,0,0,0,1.25-.16l1.15,1a6.5,6.5,0,0,0-.51,1.06c-2.3,6.21-5.16,9.09-10.53,11.59a5,5,0,0,0-1.17-1.24,16,16,0,0,0,10.12-10.78h-12v-1.48Zm-.34-3a12.9,12.9,0,0,1,1.78,1.88,5.62,5.62,0,0,0-.95.7,12.7,12.7,0,0,0-1.75-1.91Zm2.67,0a15.09,15.09,0,0,1,1.73,1.93,5.84,5.84,0,0,0-1,.7,8.69,8.69,0,0,0-1.71-2Z"/><path d="M431.28,123.11a15.42,15.42,0,0,0-3.65-3.47l1-1a23.23,23.23,0,0,1,3.9,3.21Z"/><path d="M459.38,108.69a1.42,1.42,0,0,1-.36,0,28.63,28.63,0,0,1-4.59,4.23v10.38h-1.64V114a33.72,33.72,0,0,1-6.51,3.17,7.61,7.61,0,0,0-1.17-1.37A24.69,24.69,0,0,0,458,107.14l1.5,1.08a.3.3,0,0,1,.14.25C459.67,108.62,459.55,108.69,459.38,108.69Z"/><path d="M478.81,120.52a58.33,58.33,0,0,1-6.14-6.57c-1.86-2.29-2.06-2.54-2.7-2.54s-1,.47-1.93,1.55-3.06,3.62-3.51,4.19c0,.18,0,.42-.22.42-.09,0-.16-.08-.27-.18l-1.13-1.19a18.84,18.84,0,0,0,3.24-3.3c2.11-2.5,2.74-3.09,3.85-3.09s1.82.73,3.69,3.09a43.29,43.29,0,0,0,6.12,6.21A9.76,9.76,0,0,0,478.81,120.52Zm-1.44-8.88a13.44,13.44,0,0,0-1.82-1.92l.79-.81a15.48,15.48,0,0,1,1.85,1.92A4.42,4.42,0,0,0,477.37,111.64Zm1.38-1.55a10.13,10.13,0,0,0-1.8-2l.83-.71a14.18,14.18,0,0,1,1.84,1.89A4,4,0,0,0,478.75,110.09Z"/><path d="M487.46,112.81a20.76,20.76,0,0,0-5.11-3.44l.93-1.33a24.35,24.35,0,0,1,5.16,3.4A10.17,10.17,0,0,0,487.46,112.81ZM484,122.54c0,.3-.05.41-.25.41s-.23-.13-.29-.22l-1-1.62a21.31,21.31,0,0,0,13.75-9.88,11,11,0,0,0,1,1.4C493.15,119.15,486.89,121.49,484,122.54Z"/><path d="M512.77,118.25a25.58,25.58,0,0,0-6.66-4.57v9.47h-1.62V107.57l1.64.13c.23,0,.34.07.34.22s-.23.25-.36.27v5.13l.7-1a28.8,28.8,0,0,1,6.92,4.6A8.71,8.71,0,0,0,512.77,118.25Z"/><path d="M532.88,114.06a22.56,22.56,0,0,1-7.82-5.44,21.07,21.07,0,0,1-7.47,5.71,4.27,4.27,0,0,0-1-1.19,17,17,0,0,0,8-6.22L526,107c.21,0,.52.13.52.26s-.16.21-.47.36a18.24,18.24,0,0,0,7.85,5.09A4.71,4.71,0,0,0,532.88,114.06ZM517.16,123V121.6h3v-6.7l1.53.13c.24,0,.42.11.42.27s-.29.3-.43.34v6h3V111.26l1.51.13c.07,0,.35,0,.35.22s-.22.28-.42.36v3.72h4.72v1.43h-4.72v4.48h7.1V123Z"/><path d="M543.86,109.21v2.14h3.6v8.36H539v-8.36h3.53v-2.14H535v-1.35h16.57v1.35Zm6.64,2.36v12H549v-1H537.39v1h-1.45V111l1.47.11c.27,0,.45.05.45.23s-.25.25-.47.31v9.65H549V110.92l1.48.09c.25,0,.45.06.45.22S550.84,111.44,550.5,111.57Zm-8,1h-2.2v2.31h2.2Zm0,3.49h-2.2v2.45h2.2Zm3.62-3.49h-2.27v2.31h2.27Zm0,3.49h-2.27v2.45h2.27Z"/><path d="M556.82,114.45v4.65c0,2.77,2.34,2.77,5.33,2.77,3.56,0,5.85-.09,7.56-.25a4.58,4.58,0,0,0-.51,1.56h-7.63c-3.42,0-4.65-.41-5.58-1.87-.63.58-1.28,1.15-2,1.66,0,.18,0,.57-.23.57s-.22-.1-.34-.32l-.71-1.28a12.53,12.53,0,0,0,2.56-1.76V115.8H553v-1.35ZM554,107.68a29.43,29.43,0,0,1,2.91,2.92,11,11,0,0,0-1.08,1,24.43,24.43,0,0,0-2.82-3Zm9.94,2.47h2.91v1.08H564v1h4v5.35h-4v1h5.18v1.08H564v1.7h-1.34v-1.7h-4.79v-1.08h4.79v-1h-4v-5.35h4v-1h-3v-1.08h3V108.8H559v2.07h-1.3V107.7h11.18v3.17h-1.29V108.8h-3.28c.14.09.2.12.2.21s-.25.24-.52.31Zm-1.34,3.08H560v1.11h2.61Zm0,2.1H560v1.23h2.61Zm1.34-1h2.68v-1.11H564Zm0,2.22h2.68v-1.23H564Z"/><path d="M585.46,114.06v-2.62H573v2.62h-1.51V110.2h3.28a12,12,0,0,0-1.66-2.21l1.2-.67a18.37,18.37,0,0,1,1.72,2.25,6.77,6.77,0,0,0-1,.63h6.19a16.17,16.17,0,0,0,2.18-2.93l1.21.7c.05,0,.25.14.25.29s-.2.2-.29.2h-.23a14,14,0,0,1-1.41,1.74H587v3.86Zm-1.61,9.59v-.75h-9.27v.75h-1.49v-5.27h4.57c.45-.81.49-.9.76-1.46h-3.71v-4.36h9v4.36H580c-.29.57-.58,1.1-.79,1.46h6.14v5.27Zm0-4.07h-9.27v2.13h9.27Zm-1.63-5.85h-6v2h6Zm-3.59-3.58a14,14,0,0,0-1.71-2.47l1.19-.68a17.61,17.61,0,0,1,1.76,2.43A3.78,3.78,0,0,0,578.63,110.15Z"/><path d="M603.08,119.06a4.21,4.21,0,0,1-4.59,3.6c-4.49,0-4.94-4.07-4.94-5.58,0-3.06,1.53-5.55,4.79-5.55s4.86,2.49,4.88,6h-8c.11,2.25.94,3.8,3.23,3.8a2.63,2.63,0,0,0,2.88-2.22Zm-1.57-2.88c-.31-2.05-1.3-3.28-3.13-3.28s-2.83,1.23-3.1,3.28Z"/><path d="M608,109v2.88h2.25v1.32H608v6.87c0,1.05.81,1.12,1.71,1.12h.54v1.41c-.19,0-.41,0-.82,0-1.07,0-3.07,0-3.07-2.52v-6.91H604.6v-1.32h1.71V109Z"/><path d="M621.22,118.45c-.18,3.17-2.56,4.21-4.72,4.21-3.69,0-5-2.9-5-5.49s1.17-5.64,5-5.64a4.17,4.17,0,0,1,4.55,4.15H619.4a2.64,2.64,0,0,0-2.91-2.78c-2.63,0-3.23,2.18-3.23,4.13,0,2.53.9,4.25,3.3,4.25a2.62,2.62,0,0,0,2.88-2.83Z"/><path d="M16.17,142.26v3.8c0,4.81-1,7.38-2,9.24a4.06,4.06,0,0,0-1.42-.71c.9-1.42,1.92-3.49,1.92-8.21v-5.45h6.18v-2.36l1.49.05c.29,0,.49,0,.49.24s-.11.25-.43.34v1.73h6.93v1.33Zm12.13,13c-.21-.58-.48-1.26-1.09-2.56-3.35.69-6.27,1.17-10,1.8-.06.27-.11.44-.31.44s-.27-.31-.3-.45l-.31-1.39c.56-.07,1-.13,2-.23a94,94,0,0,0,2.79-9.6l1.55.34c.29.07.36.14.36.29s-.14.21-.56.32c-.36,1.48-1.81,6.32-2.59,8.43,2.54-.36,4.56-.67,6.77-1.12a53.56,53.56,0,0,0-2.75-4.75l1.26-.72a52.63,52.63,0,0,1,4.55,8.41A3.26,3.26,0,0,0,28.3,155.26Z"/><path d="M31,146.83v-1.36h7.51v-2.83h-4a17,17,0,0,1-1.38,2,4.42,4.42,0,0,0-1.34-.7,19.43,19.43,0,0,0,3-5.2l1.39.45c.18.05.27.14.27.25s-.18.2-.49.23a16.33,16.33,0,0,1-.74,1.59h3.28v-2.61l1.57.11c.25,0,.45.1.45.23s-.13.2-.47.31v2h5.8v1.35H40v2.83h7.51v1.36Zm12.39,8.32v-1H35.18v1H33.63v-6.82H44.88v6.8Zm0-5.44H35.18v3.12h8.17Z"/><path d="M55.21,143.21A37.5,37.5,0,0,1,51,152a15.24,15.24,0,0,0-1.46-.65,32.9,32.9,0,0,0,4-8,29,29,0,0,1-3.41.13L49.94,142a13.47,13.47,0,0,0,1.87.11,17.38,17.38,0,0,0,2.18-.12,29.31,29.31,0,0,0,.75-3.26l1.64.45c.2.05.29.11.29.23s-.23.22-.38.24l-.63,2.1a17.26,17.26,0,0,0,3-.77,8.22,8.22,0,0,0,0,1.56A24.94,24.94,0,0,1,55.21,143.21ZM63.6,154a16.41,16.41,0,0,0-3-2.13c0,2.76-2.65,2.76-3.26,2.76-2,0-3.64-1-3.64-2.63,0-1.23.92-2.49,3.24-2.49a6.78,6.78,0,0,1,2,.31,12.66,12.66,0,0,1-.21-2,3.37,3.37,0,0,1,1.26-2.5l1.26.84a2.29,2.29,0,0,0-1,1.95,11,11,0,0,0,.27,2.17,19.73,19.73,0,0,1,4,2.51C64.2,153.24,64,153.57,63.6,154Zm-6.66-3.28c-1,0-1.86.39-1.86,1.28,0,1.37,2,1.37,2.11,1.37,2,0,2-1.3,1.91-2.13A4.77,4.77,0,0,0,56.94,150.76Zm7.15-5.1a11.52,11.52,0,0,0-4.65-2.34l.87-1.28A12.79,12.79,0,0,1,65,144.33C64.66,144.76,64.32,145.27,64.09,145.66Z"/><path d="M72.67,154.49c-.63,0-1.1,0-1.46,0a5.61,5.61,0,0,0-.18-.85c-.07-.28-.18-.64-.23-.81a17.06,17.06,0,0,0,2.59.18c3.33,0,6.84-1.09,6.84-3.92,0-1.5-1-2.59-2.9-2.59a8.26,8.26,0,0,0-6.48,3.67l-1.46-.51a43.7,43.7,0,0,1,1.71-7.81l1.73.54c.11,0,.2.11.2.22s-.07.25-.4.25A20,20,0,0,0,71.18,148a9,9,0,0,1,6.33-2.9,4,4,0,0,1,4.33,4C81.84,152.76,77.86,154.49,72.67,154.49ZM78,142.4a17.06,17.06,0,0,0-6.18-2.35l.58-1.32a20.48,20.48,0,0,1,6.46,2.16A12,12,0,0,0,78,142.4Z"/><path d="M91.21,143.21A37.5,37.5,0,0,1,87,152a15.24,15.24,0,0,0-1.46-.65,32.9,32.9,0,0,0,4-8,29,29,0,0,1-3.41.13L85.94,142a13.47,13.47,0,0,0,1.87.11,17.38,17.38,0,0,0,2.18-.12,29.31,29.31,0,0,0,.75-3.26l1.64.45c.2.05.29.11.29.23s-.23.22-.38.24l-.63,2.1a17.26,17.26,0,0,0,3-.77,8.22,8.22,0,0,0,0,1.56A24.94,24.94,0,0,1,91.21,143.21ZM99.6,154a16.41,16.41,0,0,0-3-2.13c0,2.76-2.65,2.76-3.26,2.76-2,0-3.64-1-3.64-2.63,0-1.23.92-2.49,3.24-2.49a6.78,6.78,0,0,1,2,.31,12.66,12.66,0,0,1-.21-2,3.37,3.37,0,0,1,1.26-2.5l1.26.84a2.29,2.29,0,0,0-1,1.95,11,11,0,0,0,.27,2.17,19.73,19.73,0,0,1,4,2.51C100.2,153.24,100,153.57,99.6,154Zm-6.66-3.28c-1,0-1.86.39-1.86,1.28,0,1.37,2,1.37,2.11,1.37,2,0,2-1.3,1.91-2.13A4.77,4.77,0,0,0,92.94,150.76Zm7.15-5.1a11.52,11.52,0,0,0-4.65-2.34l.87-1.28a12.79,12.79,0,0,1,4.64,2.29C100.66,144.76,100.32,145.27,100.09,145.66Z"/><path d="M113.69,154.67a2.44,2.44,0,0,1-2.53-2.67,18.46,18.46,0,0,1,.3-2.7,11,11,0,0,0,.09-1.17c0-1.08-.72-1.17-1.15-1.17a3.6,3.6,0,0,0-3,2,39.89,39.89,0,0,0-2.68,5.4l-1.7-.74c1.66-2.77,3.16-5.63,4.54-8.53,1.24-2.61,1.57-3.44,2.78-6.54l1.6.74c.18.09.32.15.32.31s-.3.21-.5.2c-.87,1.62-1.75,3.36-3.12,6.35a5.29,5.29,0,0,1,2.15-.54,2.07,2.07,0,0,1,2.35,2.22,9.44,9.44,0,0,1-.25,1.92,13.64,13.64,0,0,0-.16,1.89c0,.34,0,1.48,1.17,1.48,1.78,0,3.78-2.32,4.54-3.51a6,6,0,0,0,1.11,1.26C117.26,153.82,115,154.67,113.69,154.67Z"/><path d="M132,142.89c-1,.65-3.82,2.81-3.82,5.82,0,2.3,1.75,4.16,5.58,4.55a9.63,9.63,0,0,0-.68,1.69c-3.3-.66-6.48-2.46-6.48-6.23,0-2.35,1.38-4.88,4.91-7-.45,0-8.26.86-9.72,1.22l-.25-1.94c.34,0,.57,0,.92,0a103.2,103.2,0,0,0,14.18-1.58l.36,1.78A8.17,8.17,0,0,0,132,142.89Zm2.73,4.36a13.76,13.76,0,0,0-1.62-2l.87-.67a17.19,17.19,0,0,1,1.64,2A4.22,4.22,0,0,0,134.75,147.25Zm1.79-1.32a11.63,11.63,0,0,0-1.62-2.05l.86-.61a14.25,14.25,0,0,1,1.68,2A3.14,3.14,0,0,0,136.54,145.93Z"/><path d="M148,154.74c-4.41,0-5.22-2.92-5.22-4.5a10.78,10.78,0,0,1,.32-2.43,27.55,27.55,0,0,1-3.18-.76l.34-1.48a28,28,0,0,0,3.24.8c.14-.53.41-1.39.88-2.81a26.75,26.75,0,0,1-3.46-.85l.31-1.57a19.79,19.79,0,0,0,3.67.94c.18-.56,1.06-3,1.23-3.48l1.65.65c.18.08.33.15.33.29s-.27.25-.58.27c-.5,1.06-.74,1.62-1.06,2.47a29.05,29.05,0,0,0,4.1.14,9.58,9.58,0,0,0-.45,1.6,29.82,29.82,0,0,1-4.21-.25c-.52,1.46-.77,2.25-.94,2.81a30.32,30.32,0,0,0,4.9.25c-.07.24-.18.54-.43,1.53a36.77,36.77,0,0,1-4.84-.34,9.38,9.38,0,0,0-.29,2.25c0,2.45,2,3,3.71,3,2.34,0,4.28-1,4.28-3.4a5.79,5.79,0,0,0-1.17-3.24,7.37,7.37,0,0,0,1.46-.69,7.52,7.52,0,0,1,1.35,4C154,153.6,150.54,154.74,148,154.74Z"/><path d="M165.37,154.14c-4.14,0-6.7-.84-6.7-3.27,0-1.08.65-2.38,2.78-4.16l1.13.93c-.36.29-2.34,1.86-2.34,3.14a1.21,1.21,0,0,0,.61,1.11,10.58,10.58,0,0,0,4.34.76,23.31,23.31,0,0,0,6.72-.83c.16.76.27,1.21.39,1.62A35.07,35.07,0,0,1,165.37,154.14Zm-.2-9-.95-1.06c.36-.25,1.91-1.48,2.23-1.71.54-.38.6-.43.9-.67-.83.08-2.77.24-5.13.24-1.17,0-1.6,0-2.27-.07l-.14-1.66a24,24,0,0,0,4.61.23,30.5,30.5,0,0,0,5.87-.45l.83,1.21A23.55,23.55,0,0,0,165.17,145.12Z"/><path d="M181.21,143.21A37.5,37.5,0,0,1,177,152a15.24,15.24,0,0,0-1.46-.65,32.9,32.9,0,0,0,4-8,29,29,0,0,1-3.41.13l-.19-1.59a13.47,13.47,0,0,0,1.87.11,17.38,17.38,0,0,0,2.18-.12,29.31,29.31,0,0,0,.75-3.26l1.64.45c.2.05.29.11.29.23s-.23.22-.38.24l-.63,2.1a17.26,17.26,0,0,0,3-.77,8.22,8.22,0,0,0,0,1.56A24.94,24.94,0,0,1,181.21,143.21ZM189.6,154a16.41,16.41,0,0,0-3-2.13c0,2.76-2.65,2.76-3.26,2.76-2,0-3.64-1-3.64-2.63,0-1.23.92-2.49,3.24-2.49a6.78,6.78,0,0,1,2,.31,12.66,12.66,0,0,1-.21-2,3.37,3.37,0,0,1,1.26-2.5l1.26.84a2.29,2.29,0,0,0-1,1.95,11,11,0,0,0,.27,2.17,19.73,19.73,0,0,1,4,2.51C190.2,153.24,190,153.57,189.6,154Zm-6.66-3.28c-1,0-1.86.39-1.86,1.28,0,1.37,2,1.37,2.11,1.37,2,0,1.95-1.3,1.91-2.13A4.77,4.77,0,0,0,182.94,150.76Zm7.15-5.1a11.52,11.52,0,0,0-4.65-2.34l.87-1.28a12.79,12.79,0,0,1,4.64,2.29C190.66,144.76,190.32,145.27,190.09,145.66Z"/><path d="M205.94,142.55c-1.06,0-2.1,0-3.16,0,0,1.24,0,2.32,0,3.05a6.28,6.28,0,0,1,.71,2.93,7.71,7.71,0,0,1-1.62,4.57,8.72,8.72,0,0,1-3,2.29c-.29-.29-1-.83-1.35-1.12,2.05-.81,3.51-1.83,4.16-4a2.81,2.81,0,0,1-2.13,1c-1.58,0-2.52-1.37-2.52-3.33s1.21-3.46,2.86-3.46a2.51,2.51,0,0,1,1.34.36c0-.34,0-1.67,0-2.2-2.05.09-5.71.4-7.71.72l-.14-1.69c1.24,0,6.7-.32,7.81-.38a19.59,19.59,0,0,0-.25-2.61l1.78.18c.26,0,.44,0,.44.24s-.22.21-.33.27c-.05.5-.05.65-.07,1.85,5.26-.23,5.85-.25,6.32-.29a11.74,11.74,0,0,0,0,1.64C208.45,142.57,207.37,142.55,205.94,142.55Zm-6,3.24c-1.18,0-1.6,1.21-1.6,2.21,0,.42,0,2,1.48,2,1,0,1.82-1,1.82-2.31A1.79,1.79,0,0,0,200,145.79Z"/><path d="M225.73,143c-2.31,6.21-5.17,9.09-10.55,11.59a4.86,4.86,0,0,0-1.17-1.24,16,16,0,0,0,10.13-10.78h-12v-1.48h11.72a3.22,3.22,0,0,0,1.24-.16l1.15,1A5.26,5.26,0,0,0,225.73,143Zm.83-1.8a1.61,1.61,0,0,1-1.61-1.62,1.62,1.62,0,0,1,3.23,0A1.61,1.61,0,0,1,226.56,141.2Zm0-2.54a.94.94,0,0,0-.92.92.93.93,0,1,0,.92-.92Z"/><path d="M232.53,152.47v.95h-1.62V141.16h12.64v12.26h-1.62v-.95Zm9.4-1.46v-8.39h-9.4V151Z"/><path d="M262.72,155a17.16,17.16,0,0,1-6.77-3.87v4.14h-1.46V151a19.5,19.5,0,0,1-6.77,4,6.14,6.14,0,0,0-1.05-1.19,17.08,17.08,0,0,0,6.41-3h-6.15v-1.14h7.56v-1.22H249.7v-5.93a17.53,17.53,0,0,1-2,1.88,4.71,4.71,0,0,0-1.21-.8,16.68,16.68,0,0,0,4.38-5l1.26.37c.12,0,.3.13.3.27s-.38.26-.54.26a8.74,8.74,0,0,1-.7,1.13h3.38a15.33,15.33,0,0,0,1.14-2l1.58.27c.09,0,.27.11.27.23s-.16.2-.55.27c-.26.42-.53.79-.8,1.19h6.27v1.1h-6.37v1.13h5.22v1.06h-5.22V145h5.22v1.08h-5.22v1.24h6.53v1.1h-6.26a.24.24,0,0,1,0,.11c0,.23-.38.27-.5.28v.83h7.38v1.14h-6.09a17.5,17.5,0,0,0,6.36,3A5,5,0,0,0,262.72,155Zm-8-13.3h-3.6v1.13h3.6Zm0,2.19h-3.6V145h3.6Zm0,2.24h-3.6v1.24h3.6Z"/><path d="M279.1,155.13V154H267.27v1.11h-1.48V139.49h14.77v15.64Zm0-14.31H267.27v11.9H279.1Zm-3,4.38v4.28c0,2.16-.29,2.41-2.9,2.48a3.11,3.11,0,0,0-.54-1.49,5.11,5.11,0,0,0,1.12.07c.86,0,.86-.23.86-1.24v-4.1H268.2v-1.32h6.41v-2.27l1.46.11c.13,0,.43,0,.43.23s-.32.26-.43.29v1.64h2.29v1.32Zm-4.37,4.6a18.68,18.68,0,0,0-2.36-2.89l1.06-.83a22.58,22.58,0,0,1,2.43,2.84A9.34,9.34,0,0,0,271.7,149.8Z"/><path d="M294,142.89c-1,.65-3.82,2.81-3.82,5.82,0,2.3,1.75,4.16,5.58,4.55a9.63,9.63,0,0,0-.68,1.69c-3.3-.66-6.48-2.46-6.48-6.23,0-2.35,1.38-4.88,4.91-7-.45,0-8.26.86-9.72,1.22l-.25-1.94c.34,0,.57,0,.92,0a103.2,103.2,0,0,0,14.18-1.58l.36,1.78A8.17,8.17,0,0,0,294,142.89Zm2.73,4.36a13.76,13.76,0,0,0-1.62-2l.87-.67a17.19,17.19,0,0,1,1.64,2A3.73,3.73,0,0,0,296.75,147.25Zm1.79-1.32a11.63,11.63,0,0,0-1.62-2.05l.86-.61a14.25,14.25,0,0,1,1.68,2A3.14,3.14,0,0,0,298.54,145.93Z"/><path d="M313.94,142.55c-1.06,0-2.1,0-3.17,0,0,1.24,0,2.32,0,3.05a6.28,6.28,0,0,1,.71,2.93,7.66,7.66,0,0,1-1.63,4.57,8.7,8.7,0,0,1-3,2.29c-.29-.29-1-.83-1.35-1.12,2-.81,3.51-1.83,4.15-4a2.76,2.76,0,0,1-2.12,1c-1.58,0-2.52-1.37-2.52-3.33s1.21-3.46,2.86-3.46a2.47,2.47,0,0,1,1.33.36c0-.34,0-1.67,0-2.2-2,.09-5.71.4-7.71.72l-.14-1.69c1.24,0,6.7-.32,7.81-.38a21.46,21.46,0,0,0-.25-2.61l1.78.18c.26,0,.44,0,.44.24s-.22.21-.33.27c-.05.5-.05.65-.07,1.85,5.26-.23,5.85-.25,6.32-.29a11.74,11.74,0,0,0,0,1.64C316.45,142.57,315.37,142.55,313.94,142.55Zm-6,3.24c-1.18,0-1.6,1.21-1.6,2.21,0,.42,0,2,1.48,2,1,0,1.82-1,1.82-2.31A1.79,1.79,0,0,0,308,145.79Z"/><path d="M321.88,154.65a2.32,2.32,0,1,1,2.32-2.31A2.31,2.31,0,0,1,321.88,154.65Zm0-3.77a1.45,1.45,0,1,0,1.46,1.46A1.46,1.46,0,0,0,321.88,150.88Z"/><path d="M27.6,206.41c-1.71,4-3.87,9.17-10.48,11.81a6.26,6.26,0,0,0-1.19-1.17c3.14-1.26,7.55-3.54,9.89-10.87h-6a25.1,25.1,0,0,1-4.59,5.17A10.09,10.09,0,0,0,14,210.23a19.24,19.24,0,0,0,6.25-8.35l1.51.64c.08,0,.26.11.26.26s-.31.25-.44.25c-.45.9-.66,1.28-.91,1.71h5.38a2.78,2.78,0,0,0,1.19-.27l.9.84A8.27,8.27,0,0,0,27.6,206.41Z"/><path d="M35.68,203.08v8.61h-1.6v-9.22l1.6.11c.22,0,.38,0,.38.2S35.79,203.05,35.68,203.08Zm8.55-.32v5.76A9.56,9.56,0,0,1,42.88,214a10.59,10.59,0,0,1-5.81,4,3.36,3.36,0,0,0-1-1.28c6.59-1.8,6.59-6.21,6.59-8.21v-6.41l1.64.11c.27,0,.34.09.34.18S44.36,202.72,44.23,202.76Z"/><path d="M49.52,216.14v-1.48h6.86v-8.93H51.23v-1.51h12v1.51H58v8.93h6.93v1.48Z"/><path d="M81.39,203.19a1.49,1.49,0,0,1-.37,0,28.63,28.63,0,0,1-4.59,4.23v10.38H74.8v-9.24a34.2,34.2,0,0,1-6.52,3.17,7.61,7.61,0,0,0-1.17-1.37A24.69,24.69,0,0,0,80,201.64l1.5,1.08a.3.3,0,0,1,.14.25C81.67,203.12,81.55,203.19,81.39,203.19Z"/><path d="M90.72,210a20.27,20.27,0,0,0-4.6-2.51l.9-1.28a24.68,24.68,0,0,1,4.68,2.44A5.52,5.52,0,0,0,90.72,210Zm-2.16,7.41c0,.18,0,.44-.28.44s-.22-.15-.29-.29l-.74-1.41A25.47,25.47,0,0,0,100.5,206a9,9,0,0,0,1,1.3A28.22,28.22,0,0,1,88.56,217.41Zm4.31-11.63A18.9,18.9,0,0,0,88,203.3l.9-1.21a21.53,21.53,0,0,1,4.9,2.36A6.86,6.86,0,0,0,92.87,205.78Z"/><path d="M114.45,217.16v-.68h-8.52v-1.26h8.52V212h-8.08v-1.3h8.08v-3h-8.32v-1.28h9.71v10.75Z"/><path d="M127.46,207.31a20.76,20.76,0,0,0-5.11-3.44l.94-1.33a24.58,24.58,0,0,1,5.15,3.4A10.17,10.17,0,0,0,127.46,207.31ZM124,217c0,.3,0,.41-.25.41s-.23-.13-.29-.22l-1-1.62a21.35,21.35,0,0,0,13.76-9.88,10.08,10.08,0,0,0,1,1.4C133.15,213.65,126.89,216,124,217Z"/><path d="M147.23,211.31a1.39,1.39,0,1,1,1.38-1.39A1.37,1.37,0,0,1,147.23,211.31Z"/><path d="M166.36,209.19c0,1.94-.14,6.64-6.17,8.6a6.06,6.06,0,0,0-1.16-1.28c5.1-1.42,5.77-4.48,5.77-7.32h-7.15v-1.44h15.1v1.44ZM160,204.34V202.9h10.14v1.44Zm12.18,1.23a9.77,9.77,0,0,0-1.86-1.88l.76-.79a17.37,17.37,0,0,1,1.92,1.82A6,6,0,0,0,172.2,205.57Zm1.18-1.28a9.93,9.93,0,0,0-1.87-1.87l.76-.8a14.36,14.36,0,0,1,1.92,1.82A4.69,4.69,0,0,0,173.38,204.29Z"/><path d="M182.6,215.74c-.54.27-3,1.4-3.44,1.67L178,216.23a7.47,7.47,0,0,0,.09-1.07V202.54l1.62.07c.25,0,.37,0,.37.18s-.25.35-.37.4v12.06a24.3,24.3,0,0,0,10.58-7.47,11.53,11.53,0,0,0,.81,1.62A27.69,27.69,0,0,1,182.6,215.74Z"/><path d="M207.6,206.41c-1.71,4-3.87,9.17-10.48,11.81a6.26,6.26,0,0,0-1.19-1.17c3.14-1.26,7.55-3.54,9.89-10.87h-6a25.1,25.1,0,0,1-4.59,5.17,10.09,10.09,0,0,0-1.21-1.12,19.24,19.24,0,0,0,6.25-8.35l1.51.64c.08,0,.26.11.26.26s-.31.25-.44.25c-.45.9-.66,1.28-.91,1.71h5.38a2.78,2.78,0,0,0,1.19-.27l.9.84A8.27,8.27,0,0,0,207.6,206.41Z"/><path d="M216.72,210a20.27,20.27,0,0,0-4.6-2.51l.9-1.28a24.68,24.68,0,0,1,4.68,2.44A5.52,5.52,0,0,0,216.72,210Zm-2.16,7.41c0,.18-.05.44-.28.44s-.22-.15-.29-.29l-.74-1.41A25.47,25.47,0,0,0,226.5,206a9,9,0,0,0,1.05,1.3A28.22,28.22,0,0,1,214.56,217.41Zm4.31-11.63A18.9,18.9,0,0,0,214,203.3l.9-1.21a21.53,21.53,0,0,1,4.9,2.36A6.86,6.86,0,0,0,218.87,205.78Z"/><path d="M240.45,217.16v-.68h-8.52v-1.26h8.52V212h-8.08v-1.3h8.08v-3h-8.32v-1.28h9.71v10.75Z"/><path d="M253.46,207.31a20.76,20.76,0,0,0-5.11-3.44l.93-1.33a24.35,24.35,0,0,1,5.16,3.4A10.17,10.17,0,0,0,253.46,207.31ZM250,217c0,.3,0,.41-.25.41s-.23-.13-.29-.22l-1-1.62a21.31,21.31,0,0,0,13.75-9.88,11,11,0,0,0,1,1.4C259.15,213.65,252.89,216,250,217Z"/><path d="M273.23,211.31a1.39,1.39,0,1,1,1.38-1.39A1.37,1.37,0,0,1,273.23,211.31Z"/><path d="M292.36,209.19c0,1.94-.14,6.64-6.17,8.6a6.06,6.06,0,0,0-1.16-1.28c5.1-1.42,5.76-4.48,5.76-7.32h-7.14v-1.44h15.1v1.44ZM286,204.34V202.9h10.14v1.44Zm12.17,1.23a9.35,9.35,0,0,0-1.85-1.88l.76-.79a17.37,17.37,0,0,1,1.92,1.82A6.7,6.7,0,0,0,298.19,205.57Zm1.19-1.28a9.93,9.93,0,0,0-1.87-1.87l.76-.8a14.36,14.36,0,0,1,1.92,1.82A4.69,4.69,0,0,0,299.38,204.29Z"/><path d="M313.3,207.44v.48c0,2.71-.08,7.5-6.32,9.93a4.88,4.88,0,0,0-1.17-1.26c5.87-2.06,5.87-5.78,5.87-9.15h-4.9v4.73h-1.6v-4.73h-3.62v-1.5h3.62v-3.83l1.49.11c.2,0,.38,0,.38.21s0,.15-.27.29v3.22h4.9V202l1.62.13c.12,0,.32,0,.32.18s-.22.27-.32.3v3.33h3.58v1.5Zm2.68-2.29a16.82,16.82,0,0,0-1.82-1.91l.83-.72a17.2,17.2,0,0,1,1.78,1.88A4,4,0,0,0,316,205.15Zm1.31-1.2a11.14,11.14,0,0,0-1.78-1.95l.81-.65a13.32,13.32,0,0,1,1.82,1.86A3.36,3.36,0,0,0,317.29,204Z"/><path d="M333.38,203.19a1.42,1.42,0,0,1-.36,0,28.63,28.63,0,0,1-4.59,4.23v10.38h-1.64v-9.24a33.72,33.72,0,0,1-6.51,3.17,7.61,7.61,0,0,0-1.17-1.37A24.69,24.69,0,0,0,332,201.64l1.5,1.08a.3.3,0,0,1,.14.25C333.67,203.12,333.55,203.19,333.38,203.19Z"/><path d="M343.46,207.31a20.76,20.76,0,0,0-5.11-3.44l.93-1.33a24.35,24.35,0,0,1,5.16,3.4A10.17,10.17,0,0,0,343.46,207.31ZM340,217c0,.3-.05.41-.25.41s-.23-.13-.29-.22l-1-1.62a21.31,21.31,0,0,0,13.75-9.88,11,11,0,0,0,1,1.4C349.15,213.65,342.89,216,340,217Z"/><path d="M369.78,206.66c-.61,3.84-1.94,8.14-8.43,11.11a9.3,9.3,0,0,0-1.22-1.27c6.81-2.47,7.92-7.58,8.21-11.91h-9.9v5.3H356.8v-6.75H368a5.91,5.91,0,0,0,1.24-.18l1,.7C370.12,204.13,369.85,206.23,369.78,206.66Z"/><path d="M373.59,210.72v-1.59h15.33v1.59Z"/><path d="M405.6,206.41c-1.71,4-3.87,9.17-10.48,11.81a6.26,6.26,0,0,0-1.19-1.17c3.14-1.26,7.55-3.54,9.89-10.87h-6a25.1,25.1,0,0,1-4.59,5.17,10.09,10.09,0,0,0-1.21-1.12,19.24,19.24,0,0,0,6.25-8.35l1.51.64c.07,0,.26.11.26.26s-.31.25-.44.25c-.45.9-.66,1.28-.92,1.71h5.39a2.78,2.78,0,0,0,1.19-.27l.9.84A7.2,7.2,0,0,0,405.6,206.41Z"/><path d="M440.77,212.75a25.58,25.58,0,0,0-6.66-4.57v9.47h-1.62V202.07l1.64.13c.23,0,.34.07.34.22s-.23.25-.36.27v5.13l.7-1a28.8,28.8,0,0,1,6.92,4.6A8.71,8.71,0,0,0,440.77,212.75Z"/><path d="M445.59,210.72v-1.59h15.33v1.59Z"/><path d="M477.31,206.16c-1.35,3.4-1.65,4.11-2.66,5.53a17.45,17.45,0,0,1,2.27,2.3,9.22,9.22,0,0,0-1.08,1.32,16.54,16.54,0,0,0-2.15-2.4,18.65,18.65,0,0,1-7.49,5,13.05,13.05,0,0,0-1-1.41,16,16,0,0,0,7.36-4.61,30.66,30.66,0,0,0-3.8-2.59l1-1.1a42.61,42.61,0,0,1,3.76,2.51,16.59,16.59,0,0,0,2-4.42h-5.56a20,20,0,0,1-4.34,4.65,5.19,5.19,0,0,0-1.21-1.13,16.08,16.08,0,0,0,6.07-8l1.62.49c.21.07.3.11.3.25s-.28.22-.41.22c-.34.65-.76,1.47-1.15,2.14h4.95a3.3,3.3,0,0,0,1.17-.18l.79.7A6.86,6.86,0,0,0,477.31,206.16Z"/><path d="M486.71,203.73v4.43c0,3-.53,5.81-4.51,8.43a4.11,4.11,0,0,0-1.27-1.14c4-2.21,4.14-4.88,4.14-7.13v-5.27l1.58.1c.18,0,.42,0,.42.24S486.89,203.66,486.71,203.73Zm4.68,12.21a4.62,4.62,0,0,0-1,.81l-1.15-.81c0-.36,0-.9,0-1.41V202.9l1.6.07c.2,0,.36,0,.36.2s-.16.24-.36.33v10.78a19,19,0,0,0,6.09-5.65,7.43,7.43,0,0,0,.86,1.37A25.26,25.26,0,0,1,491.39,215.94Z"/><path d="M513.73,206c-2.31,6.21-5.17,9.09-10.55,11.59a4.86,4.86,0,0,0-1.17-1.24,16,16,0,0,0,10.13-10.78h-12v-1.48h11.72a3.22,3.22,0,0,0,1.24-.16l1.15,1A5.26,5.26,0,0,0,513.73,206Zm.83-1.8a1.61,1.61,0,0,1-1.61-1.62,1.62,1.62,0,0,1,3.23,0A1.61,1.61,0,0,1,514.56,204.2Zm0-2.54a.94.94,0,0,0-.92.92.93.93,0,1,0,.92-.92Z"/><path d="M520.53,215.47v.95h-1.62V204.16h12.64v12.26h-1.62v-.95Zm9.4-1.46v-8.39h-9.4V214Z"/><path d="M544.36,209.19c0,1.94-.14,6.64-6.17,8.6a6.06,6.06,0,0,0-1.16-1.28c5.1-1.42,5.76-4.48,5.76-7.32h-7.14v-1.44h15.1v1.44ZM538,204.34V202.9h10.14v1.44Zm12.17,1.23a9.35,9.35,0,0,0-1.85-1.88l.76-.79a17.37,17.37,0,0,1,1.92,1.82A6.7,6.7,0,0,0,550.19,205.57Zm1.19-1.28a9.93,9.93,0,0,0-1.87-1.87l.76-.8a14.36,14.36,0,0,1,1.92,1.82A4.69,4.69,0,0,0,551.38,204.29Z"/><path d="M555.05,216.39v-1.28h7.06l1.21-6.66h-6.16v-1.34H565l-1.48,8h3.85v1.28Z"/><path d="M571.59,210.72v-1.59h15.33v1.59Z"/><path d="M603.89,217.09a23.83,23.83,0,0,0-5.66-5.85,20.1,20.1,0,0,1-7.75,6.08,3.86,3.86,0,0,0-1-1.38,17,17,0,0,0,10.37-11.22H591v-1.48h9.06a5.55,5.55,0,0,0,1.22-.12l.89.83a6.05,6.05,0,0,0-.67,1.18,27.84,27.84,0,0,1-2.48,4.94,31.12,31.12,0,0,1,6.1,5.74A8.47,8.47,0,0,0,603.89,217.09Z"/><path d="M618,205.89c-1,.65-3.82,2.81-3.82,5.82,0,2.3,1.75,4.16,5.58,4.55a9.63,9.63,0,0,0-.68,1.69c-3.3-.66-6.48-2.46-6.48-6.23,0-2.35,1.38-4.88,4.91-7-.45,0-8.26.86-9.72,1.22l-.25-1.94c.34,0,.57,0,.92,0a103.2,103.2,0,0,0,14.18-1.58l.36,1.78A8.17,8.17,0,0,0,618,205.89Zm2.73,4.36a13.76,13.76,0,0,0-1.62-2l.87-.67a17.19,17.19,0,0,1,1.64,2A3.73,3.73,0,0,0,620.75,210.25Zm1.79-1.32a11.63,11.63,0,0,0-1.62-2.05l.86-.61a14.25,14.25,0,0,1,1.68,2A3.14,3.14,0,0,0,622.54,208.93Z"/><path d="M24.14,248.39c-1.85,0-2.64-1.22-2.68-3a6.33,6.33,0,0,0,1.33-.45c0,.66-.09,2,1.52,2a2.23,2.23,0,0,0,2.12-2.51,3,3,0,0,0-3.28-3,7.34,7.34,0,0,0-3.62,1.05c0,1.47,0,4.61.13,6l-1.22.57a24.36,24.36,0,0,0-3.6-3l-1,.94-.65-1.64c.28-.16,1-.68,1.28-.88a37.1,37.1,0,0,1,3.58-2.59c0-1.7,0-1.88,0-3.46-1.49.11-2,.16-3.82.16l0-1.57a7.43,7.43,0,0,0,1.31.08c.7,0,1.77-.06,2.54-.13,0-1.82,0-2,0-3.67l1.71.29c.24,0,.38.07.38.23s-.19.25-.34.27c-.11,1.49-.13,2.25-.14,2.68a15.51,15.51,0,0,0,3.51-1c0,.25,0,1.4.07,1.6a24,24,0,0,1-3.62.85c0,1.64,0,1.82,0,2.83a8.19,8.19,0,0,1,3.68-.94c2.68,0,4.7,1.6,4.7,4.27A3.76,3.76,0,0,1,24.14,248.39Zm-6.08-5a25,25,0,0,0-2.2,1.73c1,.85,2,1.68,2.11,1.68s.09-.11.11-.36S18.06,243.89,18.06,243.4Zm10.5-3.27a10.24,10.24,0,0,0-3.82-2.88l.93-1.28a14.66,14.66,0,0,1,3.93,2.91C29.31,239.19,29,239.6,28.56,240.13Z"/><path d="M47,245c-.59-.12-1.22-.23-2.5-.57v5.2H43v-.79H35.3v.79H33.86v-5c-1.28.38-1.49.44-1.94.56a3.62,3.62,0,0,0-.89-1.29A23.87,23.87,0,0,0,38,241.55a13.39,13.39,0,0,1-2.31-1.89,19.66,19.66,0,0,1-3.36,2.52,3.5,3.5,0,0,0-1.08-1,15.35,15.35,0,0,0,5.67-5H32.93v2.25H31.47V234.8h7V233l1.63.06c.22,0,.4,0,.4.21s-.23.24-.52.29v1.21h7v3.54h-1.5v-2.23H38.83a.23.23,0,0,1,.11.18c0,.22-.32.24-.67.27a4.91,4.91,0,0,1-.61.9h5.76l.63.61a13.38,13.38,0,0,1-3.51,3.44,20.85,20.85,0,0,0,7.2,2.09A4.3,4.3,0,0,0,47,245Zm-7.72-2.66a23.42,23.42,0,0,1-4.13,1.89h8.7A22.12,22.12,0,0,1,39.25,242.36ZM43,245.44H35.3v2.21H43Zm-6.41-6.77-.12.14a15.35,15.35,0,0,0,2.66,2,9.91,9.91,0,0,0,2.52-2.16Z"/><path d="M52.71,249.65H51.43V241a17.78,17.78,0,0,1-1.84,4.5,3.48,3.48,0,0,0-1.08-.95A18.83,18.83,0,0,0,51.39,238H49v-1.23h2.42v-3.56l1.35.11c.09,0,.41.07.41.23s-.09.18-.43.31v2.91h1.92V238H52.71v.81a16.46,16.46,0,0,0,2.37,3.69,4.41,4.41,0,0,0-1,1.17,25.5,25.5,0,0,1-1.4-3.11Zm8-12h3.48v1.14H60.68v1.33h4.88v1.19H60.68v1.39a9.58,9.58,0,0,0,1.16,1.49,12.35,12.35,0,0,0,2.21-2.63l1,.74c.2.14.21.25.21.31s-.28.18-.5.18A19.15,19.15,0,0,1,62.63,245a11.16,11.16,0,0,0,3.2,2.2,4.48,4.48,0,0,0-.88,1.24,13.35,13.35,0,0,1-4.27-3.8v2.67c0,2.12-.54,2.44-2.82,2.46a4.36,4.36,0,0,0-.7-1.55,5.49,5.49,0,0,0,1.17.09c.88,0,.93-.18.93-.81v-2.09c-1.53,1-2.09,1.34-3.69,2.2,0,.18,0,.51-.23.51s-.24-.13-.35-.33l-.63-1.11a30.2,30.2,0,0,0,4.9-2.63v-2.74H54.74v-1.19h4.52v-1.33H55.82v-1.14h3.44v-1.18H54.89v-1.16H57.7a13.83,13.83,0,0,0-1.26-1.78l1.2-.54a19.73,19.73,0,0,1,1.35,2l-.86.34h2.64A16.69,16.69,0,0,0,62,232.92l1.33.47c.09,0,.25.15.25.26s-.2.18-.47.19a14.71,14.71,0,0,1-.88,1.44h3v1.16H60.68Zm-4,3.93a13.59,13.59,0,0,1,1.64,2.09,7.58,7.58,0,0,0-1,.77,17.3,17.3,0,0,0-1.75-2.1Z"/><path d="M70.73,248.48l-1.43.43a17.65,17.65,0,0,1-1.06-6.51,38.62,38.62,0,0,1,1.14-8.72l1.62.61c.28.11.37.18.37.27s-.21.22-.41.26a25.51,25.51,0,0,0-1.22,7.9,15.39,15.39,0,0,0,.21,2.77,22.75,22.75,0,0,1,1.15-2.9,2.86,2.86,0,0,0,.89.92A11.85,11.85,0,0,0,70.73,248.48Zm12.06-1.24a29.06,29.06,0,0,1-4.18.27c-2.23,0-5.06-.22-5.06-2.54a6,6,0,0,1,.74-2.68l1.41.29a4.05,4.05,0,0,0-.69,2c0,1.15,1.32,1.44,3.49,1.44a17.94,17.94,0,0,0,4.4-.5A10.44,10.44,0,0,0,82.79,247.24ZM76,237.37c-.83,0-1.37,0-1.8-.05v-1.51a15.73,15.73,0,0,0,1.82.09,24.23,24.23,0,0,0,5.69-.58c0,.14.14,1.08.19,1.55A33.14,33.14,0,0,1,76,237.37Z"/><path d="M99.53,244.39c-1.06,0-2.31-1.29-2.81-1.85a18.67,18.67,0,0,1-2.07,2,4.37,4.37,0,0,0-1.19-.92,11.25,11.25,0,0,0,2.43-2.22,11.81,11.81,0,0,1-1.69-5H87.66c.08,3.66-.5,6.18-1.58,8.14a3.79,3.79,0,0,0-1.35-.69c1.21-2,1.55-3.92,1.55-7.16v-1.55h7.79c0-1.13-.07-1.51-.07-2.07l1.57.13c.14,0,.32,0,.32.19s-.18.27-.47.38c0,.83,0,1.1,0,1.37h3a11.31,11.31,0,0,0-1.6-1.55l1-.74a11.81,11.81,0,0,1,1.93,1.77,4.11,4.11,0,0,0-.75.52h2.44v1.26H95.55a9.74,9.74,0,0,0,1.21,4A10.15,10.15,0,0,0,98.4,237l1.38.61c.15.07.22.16.22.25,0,.27-.2.27-.52.29a16.41,16.41,0,0,1-1.91,3.33c.5.62,1.37,1.35,1.71,1.35s.77-.79,1-1.89a2.59,2.59,0,0,0,1.19.78C101.19,242.88,100.66,244.39,99.53,244.39ZM88.17,245.6A15.87,15.87,0,0,1,86,249.42a3.64,3.64,0,0,0-1.22-.78,12.4,12.4,0,0,0,2.34-4.16l1.35.58c.14.05.31.13.31.31S88.4,245.62,88.17,245.6Zm.27-7.2v-1.1H93.5v1.1ZM89.73,243v.76H88.49v-4.41h4.83V243Zm5.78,6.29H91.44c-1.9,0-2-.81-2-1.86v-3l1.46.14c.22,0,.42.06.42.26s-.31.23-.45.25v2.16c0,.68.12.81,1,.81h3.31c.87,0,1.3-.22,1.61-2.11a3.34,3.34,0,0,0,1.27.74C97.51,249.15,96.77,249.26,95.51,249.26Zm-3.38-8.95h-2.4V242h2.4Zm1.73,6.59a11.43,11.43,0,0,0-1.73-2.58l1-.63A14,14,0,0,1,95,246.18,6.78,6.78,0,0,0,93.86,246.9Zm6.32,2.12a15.74,15.74,0,0,0-2.34-3.65l1.13-.78a19.7,19.7,0,0,1,2.47,3.59A6.32,6.32,0,0,0,100.18,249Z"/><path d="M117.94,248.23c-.57,1.37-1.58,1.37-3.09,1.37a3.77,3.77,0,0,0-.65-1.6,8.17,8.17,0,0,0,1.4.19c.56,0,1,0,1.35-1.85a42.83,42.83,0,0,0,.58-7.55h-2a18.83,18.83,0,0,1-3.76,11,5.66,5.66,0,0,0-1.24-.75c.54-.71.74-1,.92-1.28-1.68.29-5.35.92-7.35,1.1-.05.16-.13.39-.3.39s-.26-.21-.27-.34l-.27-1.28c.93,0,1.67-.11,3.72-.34v-1.51H104v-1.07H107v-1.11h-3.09v-5.21H107v-1h-3.85v-1.12H107v-1.09a27,27,0,0,1-3,.23,3.33,3.33,0,0,0-.54-1.13,19.36,19.36,0,0,0,7.08-1.1l.72.86a.56.56,0,0,1,.16.34.18.18,0,0,1-.2.17.73.73,0,0,1-.39-.2c-.49.14-1.86.48-2.54.61v1.31h4.05v1h1.82v-4.13l1.4.11c.29,0,.47.09.47.24s-.2.27-.43.36v3.42H119C119,239.33,119,245.69,117.94,248.23ZM107,239.42h-1.8v1.12H107Zm0,2.06h-1.8v1.15H107Zm5.21-2.69v-1.31h-3.89v1h3.26v5.21h-3.26v1.11h3.09v1.07h-3.09v1.35c1.8-.25,1.83-.25,3.33-.52a3.72,3.72,0,0,0-.11,1,17.41,17.41,0,0,0,2.61-8.9Zm-1.93.63h-2v1.12h2Zm0,2.06h-2v1.15h2Z"/><path d="M132,242c0,.45.09,1.19.09,2.1,0,.76,0,1.28-.08,1.71-1,0-1.27,0-1.56,0a18.23,18.23,0,0,0,.09-1.94c0-.58,0-.94,0-1.21-3.47,1.7-3.73,2.74-3.73,3.41,0,.52,0,1.53,3.68,1.53a21.66,21.66,0,0,0,5.49-.72,7.24,7.24,0,0,0-.18,1.65,21.26,21.26,0,0,1-4.61.44c-1.46,0-5.8,0-5.8-2.87,0-1.91,2.07-3.49,5-4.84a1.63,1.63,0,0,0-1.83-1.42,4.47,4.47,0,0,0-3.25,1.76,21,21,0,0,0-1.9,2.56l-1.27-1a34.85,34.85,0,0,0,4.47-6.14c-2,.09-2.27.09-3.65.07v-1.51a25.46,25.46,0,0,0,2.59.11c.36,0,1.06,0,1.78-.06a15,15,0,0,0,1.1-2.63l1.48.35c.14,0,.39.09.39.3s-.29.25-.48.27c-.22.49-.42.92-.74,1.57a23.58,23.58,0,0,0,4.73-1l0,1.58c-2.13.43-4.5.72-5.53.83-.52.94-1,1.6-1.39,2.25a4.19,4.19,0,0,1,2-.52,2.78,2.78,0,0,1,2.85,1.94c.66-.28,3.6-1.49,4.17-1.78l.62,1.62A39.72,39.72,0,0,0,132,242Z"/><path d="M152.45,239.57c-.13,1.87-.18,2.45-.34,3.74h3.4v1.39h-3.6a13.81,13.81,0,0,1-1.15,4.05c-.6.9-1.68,1-3.08,1-.61,0-.88,0-1.19,0a4.85,4.85,0,0,0-.52-1.79,7.31,7.31,0,0,0,2.16.26c1.53,0,1.62-.45,2.23-3.48H138.87v-1.39h11.71c.1-.64.16-1.27.25-2.39H143c-.09.31-.17.49-.35,1a5.43,5.43,0,0,0-1.65-.32,36.92,36.92,0,0,0,2.41-8.61l1.58.29c.15,0,.4.07.4.25s-.27.27-.52.33c-.09.5-.22,1-.34,1.62h9.61v1.4h-10c-.49,1.78-.72,2.63-.76,2.72Z"/><path d="M168.76,249.06c-3.41,0-3.46-1.39-3.46-2.41,0-.36.18-2,.18-2.31s0-.9-.7-.9a1.2,1.2,0,0,0-.87.45c-1.46,1.42-3.89,4.09-5,5.29L157.72,248c1.44-1.32,3.26-3.1,4.88-4.85.65-.68,3.4-3.85,4-4.46a51.25,51.25,0,0,1-7.26,1.15l-.32-1.62a27.53,27.53,0,0,0,9.77-1.66l.94,1.19a31.84,31.84,0,0,0-4.46,4.52,1,1,0,0,1,.41-.07,1.34,1.34,0,0,1,1.44,1.28c0,.46-.31,2.48-.31,2.9,0,1,.4,1.24,2.06,1.24a11.61,11.61,0,0,0,3.83-.63,10,10,0,0,0,.09,1.67A20.07,20.07,0,0,1,168.76,249.06Zm-1.07-13.43a29.65,29.65,0,0,1-6-.58l.15-1.51a18.34,18.34,0,0,0,5.24.63c.37,0,.63,0,.88,0A7,7,0,0,0,167.69,235.63Z"/><path d="M183.52,249.17c-2.09,0-4-.94-4-2.81a2.52,2.52,0,0,1,2.81-2.42,3.86,3.86,0,0,1,3.09,1.48,3.65,3.65,0,0,1,.67,1.77,3.49,3.49,0,0,0,2.39-3.25c0-2-1.49-3.33-3.87-3.33-3.13,0-5,1.77-7.9,4.77l-1.25-1.2a106.61,106.61,0,0,0,8.94-8.55,53.08,53.08,0,0,1-6.77.79l-.27-1.6a33.64,33.64,0,0,0,9.2-1l.84,1.06c-.41.34-5.06,4.63-5.45,5.06a7.77,7.77,0,0,1,3-.63c2.65,0,5,1.59,5,4.52C190.05,247.58,186.22,249.17,183.52,249.17Zm.57-3.1a2.58,2.58,0,0,0-1.85-.83,1.15,1.15,0,0,0-1.3,1.12c0,1.24,1.57,1.56,2.38,1.56a6.68,6.68,0,0,0,1.42-.18A2.56,2.56,0,0,0,184.09,246.07Z"/><path d="M196.17,236.76v3.8c0,4.81-1,7.38-2,9.24a4.06,4.06,0,0,0-1.42-.71c.9-1.42,1.92-3.49,1.92-8.21v-5.45h6.18v-2.36l1.49.05c.29,0,.49,0,.49.24s-.11.25-.43.34v1.73h6.93v1.33Zm12.13,13c-.21-.58-.48-1.26-1.09-2.56-3.35.69-6.27,1.17-10,1.8-.06.27-.11.44-.31.44s-.27-.31-.3-.45l-.31-1.39c.56-.07,1-.13,2-.23a94,94,0,0,0,2.79-9.6l1.55.34c.29.07.36.14.36.29s-.14.21-.56.32c-.36,1.48-1.81,6.32-2.59,8.43,2.54-.36,4.56-.67,6.77-1.12a53.56,53.56,0,0,0-2.75-4.75l1.26-.72a52.63,52.63,0,0,1,4.55,8.41A3.26,3.26,0,0,0,208.3,249.76Z"/><path d="M211,241.33V240h7.51v-2.83h-4a17,17,0,0,1-1.38,2,4.42,4.42,0,0,0-1.34-.7,19.43,19.43,0,0,0,3-5.2l1.39.45c.18.05.27.14.27.25s-.18.2-.49.23a16.33,16.33,0,0,1-.74,1.59h3.28v-2.61l1.57.11c.25,0,.45.1.45.23s-.13.2-.47.31v2h5.8v1.35H220V240h7.51v1.36Zm12.39,8.32v-1h-8.17v1h-1.55v-6.82h11.25v6.8Zm0-5.44h-8.17v3.12h8.17Z"/><path d="M240,242c0,.45.09,1.19.09,2.1,0,.76,0,1.28-.08,1.71-1,0-1.27,0-1.56,0a18.23,18.23,0,0,0,.09-1.94c0-.58,0-.94,0-1.21-3.47,1.7-3.73,2.74-3.73,3.41,0,.52,0,1.53,3.68,1.53a21.66,21.66,0,0,0,5.49-.72,7.24,7.24,0,0,0-.18,1.65,21.26,21.26,0,0,1-4.61.44c-1.46,0-5.8,0-5.8-2.87,0-1.91,2.07-3.49,5-4.84a1.63,1.63,0,0,0-1.83-1.42,4.47,4.47,0,0,0-3.25,1.76,21.92,21.92,0,0,0-1.91,2.56l-1.26-1a34.85,34.85,0,0,0,4.47-6.14c-2,.09-2.27.09-3.66.07v-1.51a25.87,25.87,0,0,0,2.6.11c.36,0,1.06,0,1.78-.06a15,15,0,0,0,1.1-2.63l1.47.35c.15,0,.4.09.4.3s-.29.25-.49.27c-.21.49-.41.92-.73,1.57a23.58,23.58,0,0,0,4.73-1l0,1.58c-2.13.43-4.5.72-5.53.83-.52.94-1,1.6-1.39,2.25a4.19,4.19,0,0,1,2-.52,2.78,2.78,0,0,1,2.85,1.94c.66-.28,3.6-1.49,4.17-1.78l.62,1.62A39.72,39.72,0,0,0,240,242Z"/><path d="M251,249.69h-1.5v-9.94a21.25,21.25,0,0,1-1.58,1.91,4.1,4.1,0,0,0-1.3-1,18.54,18.54,0,0,0,4.72-7.67l1.58.49c.15,0,.24.09.24.23s-.27.24-.51.24a24.13,24.13,0,0,1-1.74,3.6c.43.18.59.27.59.39s-.29.27-.5.31Zm7.11-9.49h4.81v1.35h-4.81v2.54h5.24v1.4h-5.24v4.2h-1.53V237.48h-.92a20.09,20.09,0,0,1-2.79,3.84,4.48,4.48,0,0,0-1.31-.83,16.82,16.82,0,0,0,4.37-7.42l1.46.43c.2.06.36.13.36.27s-.22.24-.54.25a22,22,0,0,1-.85,2.07h7.17v1.39h-5.42Z"/><path d="M270.24,244.75l-1.39.17a17.09,17.09,0,0,1-1.08-6,23,23,0,0,1,.56-4.68c.07-.39.09-.47.13-.7l1.47.36c.25.05.45.11.45.31s-.14.21-.38.28a16.75,16.75,0,0,0-.72,4.78,11.59,11.59,0,0,0,.27,2.66,14.54,14.54,0,0,1,1.52-3.1,4.73,4.73,0,0,0,1.09.87A11.06,11.06,0,0,0,270.24,244.75Zm8.3-10.83c0,.52.18,2.82.2,3.29,0,.65.09,1.51.09,2.49,0,2.86-.38,7.25-5.89,10a5.43,5.43,0,0,0-1.21-1.18c5.3-2.18,5.48-6.9,5.48-8.88a27,27,0,0,0-.63-6.36l1.83.09c.22,0,.47,0,.47.24S278.66,233.9,278.54,233.92Z"/><path d="M297.24,248.09a12,12,0,0,0-4.82-2.6c0,.2,0,.47,0,.67,0,1-.2,2.86-3.4,2.86-2.48,0-4.09-1.22-4.09-2.61,0-1.89,2.36-2.63,4.23-2.63a13.29,13.29,0,0,1,1.61.13c0-.58,0-.76-.06-2.18-.88,0-1.24.05-1.73.05-1,0-3.67,0-3.67-1.4,0-.63.41-1.17,1.28-1.93l1.22.43c-.55.45-.86.69-.86,1,0,.47,1.48.49,2.21.49a14.69,14.69,0,0,0,1.52,0c0-.9,0-2.23,0-3.13-3.19.12-5.09.34-6.14.47v-1.57c1-.07,5.26-.25,6.14-.31,0-1.31,0-1.76-.09-2.5l1.89.33c.15,0,.29.1.29.23s-.25.25-.4.27c0,.4-.09,1-.09,1.64.89,0,4.77-.09,5.57-.06l0,1.52a54.92,54.92,0,0,0-5.57-.08c0,.62,0,.87,0,3.1a25.52,25.52,0,0,0,5.13-.81V241a34.81,34.81,0,0,1-5.1.61c0,.49.06,2.11.07,2.52a15.57,15.57,0,0,1,6,2.61A14.24,14.24,0,0,0,297.24,248.09Zm-6.45-2.92a4.87,4.87,0,0,0-1.51-.18c-1.65,0-2.81.48-2.81,1.4,0,1.25,2,1.32,2.33,1.32,2,0,2-1.23,2-1.82A7.06,7.06,0,0,0,290.79,245.17Z"/><path d="M313.94,237.05c-1.06,0-2.1,0-3.17,0,0,1.24,0,2.32,0,3.05a6.28,6.28,0,0,1,.71,2.93,7.66,7.66,0,0,1-1.63,4.57,8.7,8.7,0,0,1-3,2.29c-.29-.29-1-.83-1.35-1.12,2-.81,3.51-1.83,4.15-4a2.76,2.76,0,0,1-2.12,1c-1.58,0-2.52-1.37-2.52-3.33s1.21-3.46,2.86-3.46a2.47,2.47,0,0,1,1.33.36c0-.34,0-1.67,0-2.2-2,.09-5.71.4-7.71.72l-.14-1.69c1.24,0,6.7-.32,7.81-.38a21.46,21.46,0,0,0-.25-2.61l1.78.18c.26,0,.44,0,.44.24s-.22.21-.33.27c-.05.5-.05.65-.07,1.85,5.26-.23,5.85-.25,6.32-.29a11.74,11.74,0,0,0,0,1.64C316.45,237.07,315.37,237.05,313.94,237.05Zm-6,3.24c-1.18,0-1.6,1.21-1.6,2.21,0,.42,0,2,1.48,2,1,0,1.82-1,1.82-2.31A1.79,1.79,0,0,0,308,240.29Z"/><path d="M321.88,249.15a2.32,2.32,0,1,1,2.32-2.31A2.31,2.31,0,0,1,321.88,249.15Zm0-3.77a1.45,1.45,0,1,0,1.46,1.46A1.46,1.46,0,0,0,321.88,245.38Z"/><path d="M340.42,244.7a15.92,15.92,0,0,1-2.61,4.3,4.8,4.8,0,0,0-1.26-.86,12.52,12.52,0,0,0,2.77-4.5l1.32.57c.09,0,.27.17.27.29S340.71,244.7,340.42,244.7Zm-1.53-2.84v-8.11h12.64v8.11Zm5.58-6.88h-4v2.23h4Zm0,3.42h-4v2.27h4Zm2.5,10.89h-3c-2.18,0-2.23-1.1-2.23-2.07v-3.89l1.47.15c.2,0,.45,0,.45.19s-.12.2-.45.35v2.91c0,.87.11,1,1.33,1h2.2c1.17,0,1.51-.14,1.89-2.05a3.7,3.7,0,0,0,1.33.75C349.35,248.86,348.76,249.29,347,249.29Zm-.12-3.42a15.26,15.26,0,0,0-2.58-2.75l1-.92a20.08,20.08,0,0,1,2.65,2.73A8.52,8.52,0,0,0,346.85,245.87ZM350,235H346v2.23H350Zm0,3.42H346v2.27H350Zm2.56,9.65a16.2,16.2,0,0,0-3.11-3.67l1.11-1a22.16,22.16,0,0,1,3.12,3.59A5.05,5.05,0,0,0,352.59,248.05Z"/><path d="M359.55,248.55c-1.65,0-3.71-3-3.71-7.92a31.69,31.69,0,0,1,.74-6.07l1.66.51c.23.07.38.11.38.29s-.25.25-.4.25a17.56,17.56,0,0,0-.83,5.38c0,3.15,1.26,5.64,2.2,5.64s1.76-2.29,2.27-3.55a4.92,4.92,0,0,0,1.12,1C362.58,245.1,361.19,248.55,359.55,248.55Zm10-3.08a15.77,15.77,0,0,0-3.24-9.14l1.35-.83a18.27,18.27,0,0,1,3.57,9.27Z"/><path d="M384,242c0,.45.09,1.19.09,2.1,0,.76,0,1.28-.08,1.71-1,0-1.27,0-1.56,0a18.23,18.23,0,0,0,.09-1.94c0-.58,0-.94,0-1.21-3.47,1.7-3.73,2.74-3.73,3.41,0,.52,0,1.53,3.68,1.53a21.66,21.66,0,0,0,5.49-.72,7.24,7.24,0,0,0-.18,1.65,21.26,21.26,0,0,1-4.61.44c-1.46,0-5.8,0-5.8-2.87,0-1.91,2.07-3.49,5-4.84a1.63,1.63,0,0,0-1.83-1.42,4.47,4.47,0,0,0-3.25,1.76,21.92,21.92,0,0,0-1.91,2.56l-1.26-1a34.85,34.85,0,0,0,4.47-6.14c-2,.09-2.27.09-3.66.07v-1.51a25.87,25.87,0,0,0,2.6.11c.36,0,1.06,0,1.78-.06a15,15,0,0,0,1.1-2.63l1.47.35c.15,0,.4.09.4.3s-.29.25-.49.27c-.21.49-.41.92-.73,1.57a23.58,23.58,0,0,0,4.73-1l0,1.58c-2.13.43-4.5.72-5.53.83-.52.94-1,1.6-1.39,2.25a4.19,4.19,0,0,1,2-.52,2.78,2.78,0,0,1,2.85,1.94c.66-.28,3.6-1.49,4.17-1.78l.62,1.62A39.72,39.72,0,0,0,384,242Z"/><path d="M400.61,249c-.34,0-.55,0-.93,0a5.37,5.37,0,0,0-.42-1.71,7.34,7.34,0,0,0,1.82.21,2.1,2.1,0,0,0,2.45-1.69,29.61,29.61,0,0,0,.72-7.2h-4.47a12.74,12.74,0,0,1-7,10.57,3.66,3.66,0,0,0-1.1-1.19,11.56,11.56,0,0,0,4.63-3.86,11.14,11.14,0,0,0,1.85-5.52h-6.05v-1.48h6.16a24.85,24.85,0,0,0-.09-3.56l1.8.18c.27,0,.38.07.38.23s-.09.23-.38.31c0,1.62-.05,2.3-.09,2.84h6C405.65,247.42,405.06,249,400.61,249Z"/><path d="M423.31,237.66c-1.35,3.4-1.65,4.11-2.66,5.53a17.45,17.45,0,0,1,2.27,2.3,9.22,9.22,0,0,0-1.08,1.32,16.54,16.54,0,0,0-2.15-2.4,18.65,18.65,0,0,1-7.49,5,13.05,13.05,0,0,0-1-1.41,16,16,0,0,0,7.36-4.61,30.66,30.66,0,0,0-3.8-2.59l1-1.1a42.61,42.61,0,0,1,3.76,2.51,16.59,16.59,0,0,0,2-4.42h-5.56a20,20,0,0,1-4.34,4.65,5.19,5.19,0,0,0-1.21-1.13,16.08,16.08,0,0,0,6.07-8l1.62.49c.21.07.3.11.3.25s-.28.22-.41.22c-.34.65-.76,1.47-1.15,2.14h4.95a3.3,3.3,0,0,0,1.17-.18l.79.7A6.86,6.86,0,0,0,423.31,237.66Z"/><path d="M436.63,241.41c-.41,5.15-4.28,7-6.36,7.92a15.76,15.76,0,0,0-1.15-1.28c1.8-.65,5.55-2,5.91-6.64h-7.38V240h7.43v-3.27a35.8,35.8,0,0,1-5.35.7A9,9,0,0,0,429,236c3.89,0,8.52-1,10.75-2.43L441,234.6a.24.24,0,0,1,.11.2.21.21,0,0,1-.23.21.5.5,0,0,1-.29-.09,19.94,19.94,0,0,1-3.94,1.41V240h6.08v1.43Z"/><path d="M448.73,248.48l-1.43.43a17.65,17.65,0,0,1-1.06-6.51,38.62,38.62,0,0,1,1.14-8.72l1.62.61c.28.11.37.18.37.27s-.21.22-.41.26a25.52,25.52,0,0,0-1.23,7.9,15.17,15.17,0,0,0,.22,2.77,22.75,22.75,0,0,1,1.15-2.9,2.86,2.86,0,0,0,.89.92A11.85,11.85,0,0,0,448.73,248.48Zm12.06-1.24a29.06,29.06,0,0,1-4.18.27c-2.23,0-5.06-.22-5.06-2.54a6,6,0,0,1,.74-2.68l1.4.29a4.16,4.16,0,0,0-.68,2c0,1.15,1.31,1.44,3.49,1.44a17.94,17.94,0,0,0,4.4-.5A10.44,10.44,0,0,0,460.79,247.24ZM454,237.37c-.83,0-1.37,0-1.8-.05v-1.51a15.6,15.6,0,0,0,1.82.09,24.11,24.11,0,0,0,5.68-.58c0,.14.15,1.08.2,1.55A33.14,33.14,0,0,1,454,237.37Z"/><path d="M470.27,249.11c-3.71,0-3.81-3.69-3.81-6.59,0-1.28.23-6.84.23-8a8.14,8.14,0,0,0-.05-1l1.9.25c.27,0,.44.07.44.23s-.26.29-.47.33a77.67,77.67,0,0,0-.45,8.26c0,3.06.21,4.92,2.32,4.92,3.73,0,6.46-4.11,7.08-5.4a6.09,6.09,0,0,0,1.19,1.33C475.46,248.57,471.77,249.11,470.27,249.11Z"/><path d="M485.28,249.11a15.42,15.42,0,0,0-3.65-3.47l1-1a23.23,23.23,0,0,1,3.9,3.21Z"/><path d="M513.53,244.39c-1.06,0-2.31-1.29-2.81-1.85a18.67,18.67,0,0,1-2.07,2,4.37,4.37,0,0,0-1.19-.92,11.25,11.25,0,0,0,2.43-2.22,11.81,11.81,0,0,1-1.69-5h-6.54c.07,3.66-.5,6.18-1.58,8.14a3.79,3.79,0,0,0-1.35-.69c1.21-2,1.55-3.92,1.55-7.16v-1.55h7.79c-.05-1.13-.07-1.51-.07-2.07l1.57.13c.14,0,.32,0,.32.19s-.18.27-.47.38c0,.83,0,1.1,0,1.37h3a11.31,11.31,0,0,0-1.6-1.55l.95-.74a12.23,12.23,0,0,1,1.93,1.77,4.5,4.5,0,0,0-.76.52h2.45v1.26h-5.83a9.74,9.74,0,0,0,1.21,4,9.91,9.91,0,0,0,1.63-3.33l1.39.61c.15.07.22.16.22.25,0,.27-.2.27-.52.29a16.41,16.41,0,0,1-1.91,3.33c.5.62,1.36,1.35,1.71,1.35s.77-.79,1-1.89a2.59,2.59,0,0,0,1.19.78C515.19,242.88,514.66,244.39,513.53,244.39Zm-11.36,1.21a15.87,15.87,0,0,1-2.22,3.82,3.74,3.74,0,0,0-1.22-.78,12.4,12.4,0,0,0,2.34-4.16l1.35.58c.14.05.31.13.31.31S502.4,245.62,502.17,245.6Zm.27-7.2v-1.1h5.06v1.1Zm1.29,4.57v.76h-1.24v-4.41h4.83V243Zm5.78,6.29h-4.07c-1.9,0-2-.81-2-1.86v-3l1.46.14c.22,0,.42.06.42.26s-.31.23-.45.25v2.16c0,.68.12.81,1,.81h3.31c.87,0,1.3-.22,1.61-2.11a3.34,3.34,0,0,0,1.27.74C511.51,249.15,510.77,249.26,509.51,249.26Zm-3.38-8.95h-2.4V242h2.4Zm1.73,6.59a11.43,11.43,0,0,0-1.73-2.58l1-.63a14,14,0,0,1,1.87,2.49A6.78,6.78,0,0,0,507.86,246.9Zm6.32,2.12a15.74,15.74,0,0,0-2.34-3.65l1.13-.78a19.7,19.7,0,0,1,2.47,3.59A6.32,6.32,0,0,0,514.18,249Z"/><path d="M531.94,248.23c-.57,1.37-1.58,1.37-3.09,1.37a3.77,3.77,0,0,0-.65-1.6,8.17,8.17,0,0,0,1.4.19c.56,0,1,0,1.35-1.85a42.83,42.83,0,0,0,.58-7.55h-1.95a18.83,18.83,0,0,1-3.76,11,6,6,0,0,0-1.24-.75c.54-.71.74-1,.92-1.28-1.68.29-5.35.92-7.35,1.1,0,.16-.13.39-.31.39s-.25-.21-.27-.34l-.27-1.28c.94,0,1.68-.11,3.73-.34v-1.51H518v-1.07H521v-1.11h-3.09v-5.21H521v-1h-3.85v-1.12H521v-1.09a27,27,0,0,1-3,.23,3.33,3.33,0,0,0-.54-1.13,19.36,19.36,0,0,0,7.08-1.1l.72.86a.56.56,0,0,1,.16.34.18.18,0,0,1-.2.17.75.75,0,0,1-.4-.2c-.48.14-1.85.48-2.53.61v1.31h4v1h1.82v-4.13l1.4.11c.29,0,.47.09.47.24s-.2.27-.43.36v3.42H533C533,239.33,533,245.69,531.94,248.23ZM521,239.42h-1.8v1.12H521Zm0,2.06h-1.8v1.15H521Zm5.2-2.69v-1.31h-3.88v1h3.25v5.21h-3.25v1.11h3.09v1.07h-3.09v1.35c1.8-.25,1.83-.25,3.33-.52a3.72,3.72,0,0,0-.11,1,17.41,17.41,0,0,0,2.61-8.9Zm-1.92.63h-2v1.12h2Zm0,2.06h-2v1.15h2Z"/><path d="M546,242c0,.45.09,1.19.09,2.1,0,.76,0,1.28-.08,1.71-1,0-1.27,0-1.56,0a18.23,18.23,0,0,0,.09-1.94c0-.58,0-.94,0-1.21-3.47,1.7-3.73,2.74-3.73,3.41,0,.52,0,1.53,3.68,1.53a21.66,21.66,0,0,0,5.49-.72,7.24,7.24,0,0,0-.18,1.65,21.26,21.26,0,0,1-4.61.44c-1.46,0-5.8,0-5.8-2.87,0-1.91,2.07-3.49,5-4.84a1.63,1.63,0,0,0-1.83-1.42,4.47,4.47,0,0,0-3.25,1.76,21.92,21.92,0,0,0-1.91,2.56l-1.26-1a34.85,34.85,0,0,0,4.47-6.14c-2,.09-2.27.09-3.66.07v-1.51a25.87,25.87,0,0,0,2.6.11c.36,0,1.06,0,1.78-.06a15,15,0,0,0,1.1-2.63l1.47.35c.15,0,.4.09.4.3s-.29.25-.49.27c-.21.49-.41.92-.73,1.57a23.58,23.58,0,0,0,4.73-1l0,1.58c-2.13.43-4.5.72-5.53.83-.52.94-1,1.6-1.39,2.25a4.19,4.19,0,0,1,2-.52,2.78,2.78,0,0,1,2.85,1.94c.66-.28,3.6-1.49,4.17-1.78l.62,1.62A39.72,39.72,0,0,0,546,242Z"/><path d="M557.48,234.13a32,32,0,0,1-1.29,3.12c.39.09.63.14.63.34s-.15.23-.44.34v11.78h-1.49V239.6a12.76,12.76,0,0,1-1.48,2.09,4.56,4.56,0,0,0-1.11-1,19.4,19.4,0,0,0,4-7.55l1.43.46c.11,0,.32.1.32.28S557.75,234.1,557.48,234.13Zm10.59,15.56c-.38-.88-.51-1.15-1-2.13-4.07.67-6.74,1-8.74,1.25,0,.12-.07.48-.32.48s-.25-.27-.29-.43l-.38-1.51c.33,0,1.91-.18,2.27-.22a40.27,40.27,0,0,0,1.93-6.32h-4v-1.42h11.85v1.42h-5.71c.09.29-.4.36-.67.4-.74,2.79-1.53,5.09-1.78,5.76,2.12-.23,2.43-.27,5.11-.67a27.75,27.75,0,0,0-2-3.2l1.31-.74a38.24,38.24,0,0,1,3.75,6.59A5.23,5.23,0,0,0,568.07,249.69Zm-9.58-14.26V234h10.23v1.39Z"/><path d="M582.76,249.06c-3.41,0-3.46-1.39-3.46-2.41,0-.36.18-2,.18-2.31s0-.9-.7-.9a1.2,1.2,0,0,0-.87.45c-1.46,1.42-3.89,4.09-5,5.29L571.72,248c1.44-1.32,3.26-3.1,4.88-4.85.65-.68,3.4-3.85,4-4.46a51.25,51.25,0,0,1-7.26,1.15l-.32-1.62a27.53,27.53,0,0,0,9.77-1.66l.94,1.19a32.43,32.43,0,0,0-4.47,4.52,1.06,1.06,0,0,1,.42-.07,1.34,1.34,0,0,1,1.44,1.28c0,.46-.31,2.48-.31,2.9,0,1,.4,1.24,2.06,1.24a11.61,11.61,0,0,0,3.83-.63,10,10,0,0,0,.09,1.67A20.13,20.13,0,0,1,582.76,249.06Zm-1.07-13.43a29.65,29.65,0,0,1-6-.58l.15-1.51a18.34,18.34,0,0,0,5.24.63c.37,0,.63,0,.88,0A7,7,0,0,0,581.69,235.63Z"/><path d="M595.68,238.22a39.56,39.56,0,0,1-4.85,11.07c-.43-.27-1.13-.59-1.53-.79A30.63,30.63,0,0,0,594,238.43a36.85,36.85,0,0,1-4,.2l-.12-1.64c.41,0,.84.06,1.49.06,1.19,0,2.29-.07,3-.13a23.16,23.16,0,0,0,.54-3.69l1.75.45c.27.07.36.16.36.25s-.27.26-.36.26c-.11.39-.51,2.17-.6,2.53a14.59,14.59,0,0,0,3.91-1l.29,1.53A28.77,28.77,0,0,1,595.68,238.22Zm5.38,10.69c-1.13,0-5.06,0-5.06-2.7a4.26,4.26,0,0,1,1-2.5l1.33.58a3.11,3.11,0,0,0-.88,1.81c0,1.16,1.84,1.37,3.59,1.37a13.43,13.43,0,0,0,3.83-.57,7.2,7.2,0,0,0,0,.75,3.34,3.34,0,0,0,.1.92A21.85,21.85,0,0,1,601.06,248.91Zm3.3-7.58a14.78,14.78,0,0,0-2.69-.23,29.31,29.31,0,0,0-4,.31V240a27.44,27.44,0,0,1,4.16-.31,16.64,16.64,0,0,1,2.65.18A8.07,8.07,0,0,0,604.36,241.33Z"/><path d="M611.55,248.55c-1.65,0-3.71-3-3.71-7.92a31.69,31.69,0,0,1,.74-6.07l1.66.51c.23.07.38.11.38.29s-.25.25-.4.25a17.56,17.56,0,0,0-.83,5.38c0,3.15,1.26,5.64,2.2,5.64s1.76-2.29,2.27-3.55a4.92,4.92,0,0,0,1.12,1C614.58,245.1,613.19,248.55,611.55,248.55Zm10-3.08a15.77,15.77,0,0,0-3.24-9.14l1.35-.83a18.27,18.27,0,0,1,3.57,9.27Z"/><path d="M627.88,249.15a2.32,2.32,0,1,1,2.32-2.31A2.31,2.31,0,0,1,627.88,249.15Zm0-3.77a1.45,1.45,0,1,0,1.46,1.46A1.46,1.46,0,0,0,627.88,245.38Z"/><path d="M22,312.24c-4.41,0-5.22-2.92-5.22-4.5a10.78,10.78,0,0,1,.32-2.43,27.55,27.55,0,0,1-3.18-.76l.34-1.48a28,28,0,0,0,3.24.8c.14-.53.41-1.39.88-2.81a26.75,26.75,0,0,1-3.46-.85l.31-1.57a19.79,19.79,0,0,0,3.67.94c.18-.56,1.06-3,1.23-3.48l1.65.65c.18.08.33.15.33.29s-.27.25-.58.27c-.5,1.06-.74,1.62-1.06,2.47a29.05,29.05,0,0,0,4.1.14,9.58,9.58,0,0,0-.45,1.6,29.82,29.82,0,0,1-4.21-.25c-.52,1.46-.77,2.25-.94,2.81a30.32,30.32,0,0,0,4.9.25c-.07.24-.18.54-.43,1.53a36.77,36.77,0,0,1-4.84-.34,9.38,9.38,0,0,0-.29,2.25c0,2.45,2.05,3,3.71,3,2.34,0,4.28-1,4.28-3.4a5.79,5.79,0,0,0-1.17-3.24,7.37,7.37,0,0,0,1.46-.69,7.52,7.52,0,0,1,1.35,4C28,311.1,24.54,312.24,22,312.24Z"/><path d="M40.76,310.89a20,20,0,0,1-4,.52,4.67,4.67,0,0,0-.55-1.46c1.35.07,7.76.27,7.76-4.36,0-.72-.22-3.07-3.35-3.07-2.49,0-6.61,1.6-7.31,2l-.74-1.73a17.49,17.49,0,0,0,2.41-.49,22.65,22.65,0,0,1,5.67-1c3.73,0,4.74,2.61,4.74,4.25A5.61,5.61,0,0,1,40.76,310.89Z"/><path d="M56.6,303.87c-1,.46-4.13,2-4.13,4.12,0,2.38,4.13,2.38,5.33,2.38a21.2,21.2,0,0,0,6-.87,6.19,6.19,0,0,0-.13,1.8,34.17,34.17,0,0,1-5.78.54c-3.06,0-4.37-.48-5.22-.92A3.3,3.3,0,0,1,50.84,308c0-2.31,2-3.75,4-4.85-1-1-1.17-2.27-1.37-4.39a7.49,7.49,0,0,0-.36-2l2.07-.44c-.05.74-.09,1.23-.09,1.71,0,1.7.18,3.42,1,4.49.81-.4,1.92-.9,3.13-1.35l3.93-1.53.68,1.76A30.4,30.4,0,0,0,56.6,303.87Z"/><path d="M69.41,311.5v1.13H68v-12.2h5.31a21.48,21.48,0,0,0,1.1-2.31H66.94v-1.24H83.53v1.24H76.16c-.32.76-.75,1.6-1.13,2.31h7.42v12.19H81V311.5Zm2.81-1.3v-8.55H69.41v8.55Zm4.57-6.59v-2H73.68v2Zm0,3.26V304.8H73.68v2.07Zm0,3.33V308H73.68v2.18Zm4.2,0v-8.55H78.25v8.55Z"/><path d="M98.85,312.42v-1.1H87.66v1.1H86.1V298.73h4.61A16.89,16.89,0,0,0,91.79,296l1.69.25c.27,0,.4.08.4.26s-.2.25-.58.32a18.06,18.06,0,0,1-.9,1.94h8v13.69Zm0-12.3H87.66v4.14H98.85Zm0,5.49H87.66v4.32H98.85Z"/><path d="M115,312.92c-1.28-1.87-4.55-4.63-7.44-6.55-2-1.32-2.08-1.39-2.08-2.05s.25-.8,1.87-2a43,43,0,0,0,6.75-6.37l1.44,1c.18.12.29.19.29.34s-.09.18-.25.18a2.37,2.37,0,0,1-.31-.06c-1.19,1.16-4.55,4-7,6-.27.2-.81.65-.81.94s.11.38,1.08,1a35,35,0,0,1,7.76,6.28C115.91,311.91,115.4,312.49,115,312.92Z"/><path d="M132,305c0,.45.09,1.19.09,2.1,0,.76,0,1.28-.08,1.71H130.4a18.23,18.23,0,0,0,.09-1.94c0-.58,0-.94,0-1.21-3.47,1.7-3.73,2.74-3.73,3.41s0,1.53,3.68,1.53a21.66,21.66,0,0,0,5.49-.72,7.24,7.24,0,0,0-.18,1.65,21.26,21.26,0,0,1-4.61.44c-1.46,0-5.8,0-5.8-2.87,0-1.91,2.07-3.49,5-4.84a1.63,1.63,0,0,0-1.83-1.42,4.47,4.47,0,0,0-3.25,1.76,21,21,0,0,0-1.9,2.56l-1.27-1a34.85,34.85,0,0,0,4.47-6.14c-2,.09-2.27.09-3.65.07v-1.51a25.46,25.46,0,0,0,2.59.11c.36,0,1.06,0,1.78-.06a15,15,0,0,0,1.1-2.63l1.48.35c.14,0,.39.09.39.3s-.29.25-.48.27c-.22.49-.42.92-.74,1.57a23.58,23.58,0,0,0,4.73-1l0,1.58c-2.13.43-4.5.72-5.53.83-.52.94-1,1.6-1.39,2.25a4.19,4.19,0,0,1,2-.52,2.78,2.78,0,0,1,2.85,1.94c.66-.28,3.6-1.49,4.17-1.78l.62,1.62A39.72,39.72,0,0,0,132,305Z"/><path d="M153.6,300.91c-1.71,4-3.87,9.17-10.48,11.81a6.26,6.26,0,0,0-1.19-1.17c3.14-1.26,7.55-3.54,9.89-10.87h-6a25.1,25.1,0,0,1-4.59,5.17,10.09,10.09,0,0,0-1.21-1.12,19.24,19.24,0,0,0,6.25-8.35l1.51.64c.08,0,.26.11.26.26s-.31.25-.44.25c-.45.9-.66,1.28-.91,1.71h5.38a2.78,2.78,0,0,0,1.19-.27l.9.84A8.27,8.27,0,0,0,153.6,300.91Z"/><path d="M161.68,297.58v8.61h-1.6V297l1.6.11c.22,0,.38,0,.38.2S161.79,297.55,161.68,297.58Zm8.55-.32V303a9.56,9.56,0,0,1-1.35,5.47,10.59,10.59,0,0,1-5.81,4,3.36,3.36,0,0,0-1-1.28c6.59-1.8,6.59-6.21,6.59-8.21v-6.41l1.64.11c.27,0,.34.09.34.18S170.36,297.22,170.23,297.26Z"/><path d="M175.52,310.64v-1.48h6.86v-8.93h-5.15v-1.51h12v1.51H184v8.93h6.93v1.48Z"/><path d="M207.39,297.69a1.49,1.49,0,0,1-.37,0,28.63,28.63,0,0,1-4.59,4.23v10.38H200.8V303a34.2,34.2,0,0,1-6.52,3.17,7.61,7.61,0,0,0-1.17-1.37A24.69,24.69,0,0,0,206,296.14l1.5,1.08a.3.3,0,0,1,.14.25C207.67,297.62,207.55,297.69,207.39,297.69Z"/><path d="M224.77,307.25a25.58,25.58,0,0,0-6.66-4.57v9.47h-1.62V296.57l1.64.13c.23,0,.34.07.34.22s-.23.25-.36.27v5.13l.7-1a28.8,28.8,0,0,1,6.92,4.6A8.71,8.71,0,0,0,224.77,307.25Z"/><path d="M22,343.74c-4.41,0-5.22-2.92-5.22-4.5a10.78,10.78,0,0,1,.32-2.43,27.55,27.55,0,0,1-3.18-.76l.34-1.48a28,28,0,0,0,3.24.8c.14-.53.41-1.39.88-2.81a26.75,26.75,0,0,1-3.46-.85l.31-1.57a19.79,19.79,0,0,0,3.67.94c.18-.56,1.06-3,1.23-3.48l1.65.65c.18.08.33.15.33.29s-.27.25-.58.27c-.5,1.06-.74,1.62-1.06,2.47a29.05,29.05,0,0,0,4.1.14,9.58,9.58,0,0,0-.45,1.6,29.82,29.82,0,0,1-4.21-.25c-.52,1.46-.77,2.25-.94,2.81a30.32,30.32,0,0,0,4.9.25c-.07.24-.18.54-.43,1.53a36.77,36.77,0,0,1-4.84-.34,9.38,9.38,0,0,0-.29,2.25c0,2.45,2.05,3,3.71,3,2.34,0,4.28-1,4.28-3.4a5.79,5.79,0,0,0-1.17-3.24,7.37,7.37,0,0,0,1.46-.69A7.52,7.52,0,0,1,28,339C28,342.6,24.54,343.74,22,343.74Z"/><path d="M38.27,343.61c-3.71,0-3.81-3.69-3.81-6.59,0-1.28.23-6.84.23-8a8.14,8.14,0,0,0,0-1l1.9.25c.27,0,.44.07.44.23s-.26.29-.47.33a77.67,77.67,0,0,0-.45,8.26c0,3.06.21,4.92,2.32,4.92,3.73,0,6.47-4.11,7.08-5.4A6.09,6.09,0,0,0,46.65,338C43.46,343.07,39.77,343.61,38.27,343.61Z"/><path d="M59,342.12a3.05,3.05,0,0,1-2.63,1.24,11,11,0,0,1-1.84-.22,7.15,7.15,0,0,0-.13-1.74,4.72,4.72,0,0,0,1.86.39,1.8,1.8,0,0,0,1.69-.88A9.88,9.88,0,0,0,59.17,336c0-2.54-1.19-2.9-2.27-2.9-.23,0-.32,0-1.15.11a27.86,27.86,0,0,1-4.9,10.12,7.17,7.17,0,0,0-1.49-.8,22.23,22.23,0,0,0,4.75-9.07,31.65,31.65,0,0,0-3.9,1.1l-.56-1.62c.41-.08,1.62-.35,1.82-.4,1.47-.32,2.39-.52,3-.63a29,29,0,0,0,.59-4.09l1.75.56c.22.07.32.09.32.25s-.19.26-.43.31c-.07.32-.41,1.85-.63,2.77.58,0,.87,0,1,0,2.48,0,3.61,1.47,3.61,4.07A12.11,12.11,0,0,1,59,342.12Zm3.31-3.46a5.74,5.74,0,0,0-.67-1.35c1.07-.18,2.18-.41,2.18-1.37a10.55,10.55,0,0,0-2.93-5.42l1.2-.79c2,2.2,3.32,5.06,3.32,6.48C65.37,336.82,65.37,338.12,62.27,338.66Z"/><path d="M74.27,343.61c-3.71,0-3.81-3.69-3.81-6.59,0-1.28.23-6.84.23-8a8.14,8.14,0,0,0,0-1l1.9.25c.27,0,.44.07.44.23s-.26.29-.47.33a77.67,77.67,0,0,0-.45,8.26c0,3.06.21,4.92,2.32,4.92,3.73,0,6.47-4.11,7.08-5.4A6.09,6.09,0,0,0,82.65,338C79.46,343.07,75.77,343.61,74.27,343.61Z"/><path d="M91.68,332.72a40,40,0,0,1-4.84,11.07c-.44-.27-1.14-.59-1.53-.79A30.81,30.81,0,0,0,90,332.93a36.85,36.85,0,0,1-4,.2l-.12-1.64c.41,0,.84.06,1.49.06,1.19,0,2.29-.07,3-.13a23.16,23.16,0,0,0,.54-3.69l1.75.45c.27.07.36.16.36.25s-.27.26-.36.26c-.11.39-.5,2.17-.6,2.53a14.59,14.59,0,0,0,3.91-1l.29,1.53A28.77,28.77,0,0,1,91.68,332.72Zm5.38,10.69c-1.13,0-5.06,0-5.06-2.7a4.26,4.26,0,0,1,1-2.5l1.34.58a3.09,3.09,0,0,0-.89,1.81c0,1.16,1.84,1.37,3.59,1.37a13.43,13.43,0,0,0,3.83-.57c0,.21,0,.43,0,.75a3.42,3.42,0,0,0,.09.92A21.85,21.85,0,0,1,97.06,343.41Zm3.3-7.58a14.78,14.78,0,0,0-2.69-.23,29.31,29.31,0,0,0-4,.31v-1.46a27.44,27.44,0,0,1,4.16-.31,16.64,16.64,0,0,1,2.65.18A8.07,8.07,0,0,0,100.36,335.83Z"/><path d="M108.67,343.49c-.63,0-1.1,0-1.46,0a5.61,5.61,0,0,0-.18-.85c-.07-.28-.18-.64-.23-.81a17.06,17.06,0,0,0,2.59.18c3.33,0,6.84-1.09,6.84-3.92,0-1.5-1-2.59-2.9-2.59a8.26,8.26,0,0,0-6.48,3.67l-1.46-.51a43.7,43.7,0,0,1,1.71-7.81l1.73.54c.11,0,.2.11.2.22s-.07.25-.4.25a20,20,0,0,0-1.45,5.13,9,9,0,0,1,6.33-2.9,4,4,0,0,1,4.33,4C117.84,341.76,113.86,343.49,108.67,343.49ZM114,331.4a17.06,17.06,0,0,0-6.18-2.35l.58-1.32a20.48,20.48,0,0,1,6.46,2.16A12,12,0,0,0,114,331.4Z"/><path d="M134.61,333.73v6.19h-1.46v-.86H130v1.09h-1.47v-6.42h-3.33v8.12h11.2v1.4h-11.2v.9h-1.52V333.73h-2.79v-1.39h2.79v-4.27l1.53.11c.17,0,.45,0,.45.24s-.18.23-.46.3v3.62h3.33v-4.77l1.47.11c.24,0,.45,0,.45.25s-.19.22-.45.29v4.12h3.17V328l1.5.11c.12,0,.41,0,.41.23s-.18.24-.45.31v3.69h2.92v1.39Zm-1.46,0H130v4h3.17Z"/><path d="M154.65,339.78a16.17,16.17,0,0,1-3.64-1.84,1,1,0,0,1-.36.11v6.12h-1.5v-6.75l1.26.11A12.25,12.25,0,0,1,147.8,335h-1.35a13.55,13.55,0,0,1-2.37,2.36l1.2.12c.15,0,.43.06.43.27s-.27.29-.46.33a6.23,6.23,0,0,1-3.82,6.28,3.43,3.43,0,0,0-1-1.17c3.3-1.11,3.5-3.6,3.41-5.63a18.11,18.11,0,0,1-4.11,2.26,4.05,4.05,0,0,0-1.08-1.24,13.28,13.28,0,0,0,6.12-3.58h-4v-6.72h13.11V335h-4.4a14.18,14.18,0,0,0,6.2,3.55A5.4,5.4,0,0,0,154.65,339.78Zm-8.13-10.34h-4.28V331h4.28Zm0,2.72h-4.28v1.62h4.28Zm5.78-2.72H148V331h4.28Zm0,2.72H148v1.62h4.28Z"/><path d="M168,336.52c0,.45.09,1.19.09,2.1,0,.76,0,1.28-.08,1.71H166.4a18.23,18.23,0,0,0,.09-1.94c0-.58,0-.94,0-1.21-3.47,1.7-3.73,2.74-3.73,3.41s0,1.53,3.68,1.53a21.66,21.66,0,0,0,5.49-.72,7.24,7.24,0,0,0-.18,1.65,21.26,21.26,0,0,1-4.61.44c-1.46,0-5.8,0-5.8-2.87,0-1.91,2.07-3.49,5-4.84a1.63,1.63,0,0,0-1.83-1.42,4.47,4.47,0,0,0-3.25,1.76,21,21,0,0,0-1.9,2.56l-1.27-1a34.85,34.85,0,0,0,4.47-6.14c-2,.09-2.27.09-3.65.07v-1.51a25.46,25.46,0,0,0,2.59.11c.36,0,1.06,0,1.78-.06a15,15,0,0,0,1.1-2.63l1.48.35c.14,0,.39.09.39.3s-.29.25-.48.27c-.22.49-.42.92-.74,1.57a23.58,23.58,0,0,0,4.73-1l0,1.58c-2.13.43-4.5.72-5.53.83-.52.94-1,1.6-1.39,2.25a4.19,4.19,0,0,1,2-.52,2.78,2.78,0,0,1,2.85,1.94c.66-.28,3.6-1.49,4.17-1.78l.62,1.62A39.72,39.72,0,0,0,168,336.52Z"/><path d="M179.27,331.67c.1.08.21.15.21.27s-.43.2-.59.18a18.69,18.69,0,0,1-2.92,2.76,4.72,4.72,0,0,0-1.15-1,11.79,11.79,0,0,0,3.28-3Zm-4.31-1v-1.28h7.49v-1.78l1.57.07c.16,0,.45,0,.45.2s-.25.25-.47.29v1.22h7.55v1.28h-5.37v3.49c0,1.14-.38,1.5-2.7,1.5a4.83,4.83,0,0,0-.59-1.48,6.06,6.06,0,0,0,1.15.11c.3,0,.72,0,.72-.47v-3.15h-2.27c-.24,3.75-2.18,4.83-4.3,5.64a4.78,4.78,0,0,0-.92-1.26c3.33-.8,3.67-2.69,3.74-4.38Zm13.09,6.75a14.86,14.86,0,0,1-3.31,3.48,17.71,17.71,0,0,0,6.82,1.91,4.37,4.37,0,0,0-.93,1.47,18.75,18.75,0,0,1-7.13-2.54,22.29,22.29,0,0,1-7.13,2.61,5.08,5.08,0,0,0-1-1.35,18.77,18.77,0,0,0,7-2.1,11,11,0,0,1-2.12-2.4,17.55,17.55,0,0,1-3.75,2.47,4.61,4.61,0,0,0-1-1.12,12.08,12.08,0,0,0,6-4.89l1.3.55c.14.08.31.17.31.27,0,.26-.4.27-.6.27-.11.17-.22.31-.49.65h5.33Zm-6.62.51a8.8,8.8,0,0,0,2.18,2.21,8.59,8.59,0,0,0,2.28-2.21Zm6.78-6.81a19.33,19.33,0,0,1,2.9,3.3,5.57,5.57,0,0,0-1.26.86,16.37,16.37,0,0,0-2.81-3.33Z"/><path d="M204.76,343.56c-3.41,0-3.46-1.39-3.46-2.41,0-.36.18-2,.18-2.31s0-.9-.7-.9a1.2,1.2,0,0,0-.87.45c-1.46,1.42-3.89,4.09-5,5.29l-1.21-1.18c1.44-1.32,3.26-3.1,4.88-4.85.65-.68,3.4-3.85,4-4.46a51.25,51.25,0,0,1-7.26,1.15l-.32-1.62a27.53,27.53,0,0,0,9.77-1.66l.94,1.19a31.84,31.84,0,0,0-4.46,4.52,1,1,0,0,1,.41-.07A1.34,1.34,0,0,1,203.1,338c0,.46-.31,2.48-.31,2.9,0,1,.4,1.24,2.06,1.24a11.61,11.61,0,0,0,3.83-.63,10,10,0,0,0,.09,1.67A20.07,20.07,0,0,1,204.76,343.56Zm-1.07-13.43a29.65,29.65,0,0,1-6-.58l.15-1.51a18.34,18.34,0,0,0,5.24.63c.37,0,.63,0,.88,0A7,7,0,0,0,203.69,330.13Z"/><path d="M216.67,343.49c-.63,0-1.1,0-1.46,0a5.61,5.61,0,0,0-.18-.85c-.07-.28-.18-.64-.23-.81a17.06,17.06,0,0,0,2.59.18c3.33,0,6.84-1.09,6.84-3.92,0-1.5-1-2.59-2.9-2.59a8.26,8.26,0,0,0-6.48,3.67l-1.46-.51a43.7,43.7,0,0,1,1.71-7.81l1.73.54c.11,0,.2.11.2.22s-.07.25-.4.25a20,20,0,0,0-1.45,5.13,9,9,0,0,1,6.33-2.9,4,4,0,0,1,4.33,4C225.84,341.76,221.86,343.49,216.67,343.49ZM222,331.4a17.06,17.06,0,0,0-6.18-2.35l.58-1.32a20.48,20.48,0,0,1,6.46,2.16A12,12,0,0,0,222,331.4Z"/><path d="M242.47,342.91c-.38,0-2.4-.14-2.4-3.4,0-.47.16-1.73.29-3s.27-2.51.27-2.92,0-1.19-.94-1.19c-1.51,0-4,2.5-5.07,3.78a67,67,0,0,0,.21,7.64l-1.74.07c.07-1.12.07-2.54.07-3,0-.84,0-1,0-2.7-1.39,2-2,2.85-2.65,3.95l-1.21-1.23a51.15,51.15,0,0,0,3.93-5.83c0-.2,0-1.06,0-1.25a19.49,19.49,0,0,1-3.41.83l-.38-1.64a14.48,14.48,0,0,0,3.82-.7c0-.7,0-2.93,0-3.72,0-.31,0-.54,0-.8l1.59.2c.19,0,.43.09.43.29s-.25.25-.36.27c0,.49-.13,1.39-.2,3.22a6.08,6.08,0,0,0,.67-.38l.68.78a17,17,0,0,0-.85,1.62c.71-.69,2.89-2.85,4.83-2.85s2.07,2.07,2.07,2.54,0,.69-.38,3.57a24.65,24.65,0,0,0-.2,2.55c0,.85.18,1.72,1.08,1.72.62,0,1.53-.49,2.45-1.91.11.23.56,1.29.67,1.49A5,5,0,0,1,242.47,342.91Z"/><path d="M255.52,343.67c-2.09,0-4-.94-4-2.81a2.51,2.51,0,0,1,2.8-2.42,3.86,3.86,0,0,1,3.1,1.48,3.65,3.65,0,0,1,.67,1.77,3.49,3.49,0,0,0,2.39-3.25c0-2-1.49-3.33-3.87-3.33-3.13,0-5,1.77-7.9,4.77l-1.25-1.2a108.17,108.17,0,0,0,8.94-8.55,53.08,53.08,0,0,1-6.77.79l-.27-1.6a33.64,33.64,0,0,0,9.2-1l.84,1.06c-.41.34-5.06,4.63-5.45,5.06a7.73,7.73,0,0,1,3-.63c2.65,0,5,1.59,5,4.52C262.05,342.08,258.22,343.67,255.52,343.67Zm.57-3.1a2.58,2.58,0,0,0-1.85-.83,1.15,1.15,0,0,0-1.3,1.12c0,1.24,1.57,1.56,2.38,1.56a6.68,6.68,0,0,0,1.42-.18A2.56,2.56,0,0,0,256.09,340.57Z"/><path d="M275,342.12a3.05,3.05,0,0,1-2.63,1.24,11,11,0,0,1-1.84-.22,7.15,7.15,0,0,0-.13-1.74,4.72,4.72,0,0,0,1.86.39,1.8,1.8,0,0,0,1.69-.88,9.88,9.88,0,0,0,1.26-4.93c0-2.54-1.19-2.9-2.27-2.9-.23,0-.32,0-1.15.11a27.86,27.86,0,0,1-4.9,10.12,7.43,7.43,0,0,0-1.49-.8,22.23,22.23,0,0,0,4.75-9.07,32.2,32.2,0,0,0-3.91,1.1l-.55-1.62c.41-.08,1.62-.35,1.82-.4,1.47-.32,2.39-.52,3-.63a29,29,0,0,0,.59-4.09l1.75.56c.21.07.32.09.32.25s-.19.26-.43.31c-.07.32-.41,1.85-.63,2.77.58,0,.87,0,.95,0,2.49,0,3.62,1.47,3.62,4.07A12.11,12.11,0,0,1,275,342.12Zm3.31-3.46a5.74,5.74,0,0,0-.67-1.35c1.06-.18,2.18-.41,2.18-1.37a10.55,10.55,0,0,0-2.93-5.42l1.2-.79c2,2.2,3.31,5.06,3.31,6.48C281.36,336.82,281.36,338.12,278.27,338.66Z"/><path d="M292,343.74c-4.41,0-5.22-2.92-5.22-4.5a10.78,10.78,0,0,1,.32-2.43,27.55,27.55,0,0,1-3.18-.76l.34-1.48a28,28,0,0,0,3.24.8c.14-.53.41-1.39.88-2.81a26.75,26.75,0,0,1-3.46-.85l.31-1.57a19.79,19.79,0,0,0,3.67.94c.18-.56,1.06-3,1.23-3.48l1.65.65c.18.08.33.15.33.29s-.27.25-.58.27c-.5,1.06-.74,1.62-1.06,2.47a29.05,29.05,0,0,0,4.1.14,9.58,9.58,0,0,0-.45,1.6,29.73,29.73,0,0,1-4.21-.25c-.52,1.46-.77,2.25-.94,2.81a30.32,30.32,0,0,0,4.9.25c-.07.24-.18.54-.43,1.53a36.77,36.77,0,0,1-4.84-.34,9.38,9.38,0,0,0-.29,2.25c0,2.45,2.05,3,3.71,3,2.34,0,4.28-1,4.28-3.4a5.79,5.79,0,0,0-1.17-3.24,7.37,7.37,0,0,0,1.46-.69,7.52,7.52,0,0,1,1.35,4C298,342.6,294.54,343.74,292,343.74Z"/><path d="M310.16,342.77h-1.87v-2h1.87Zm-.07-9.46-.36,5.35h-1l-.36-5.35v-4.73h1.73Z"/></g></g></svg>