<svg xmlns="http://www.w3.org/2000/svg" width="138.04" height="47.79" viewBox="0 0 138.04 47.79"><defs><style>.cls-1{fill:#cf131c;}</style></defs><title>アセット 1</title><g id="レイヤー_2" data-name="レイヤー 2"><g id="レイヤー_1-2" data-name="レイヤー 1"><g id="レイヤー_1-2-2" data-name="レイヤー 1-2"><path class="cls-1" d="M24.13,17.91H17.58v6.35H10.44V17.91H3.89V11.16h6.55V4.81h7.14v6.35h6.55Z"/><path class="cls-1" d="M48.66,1.92a9.82,9.82,0,0,1,4.41,3.65,10,10,0,0,1,1.55,5.55,10.06,10.06,0,0,1-1.55,5.56,10,10,0,0,1-4.41,3.65A16.41,16.41,0,0,1,42,21.6H38v6.83H28.58V.65H42A16.08,16.08,0,0,1,48.66,1.92ZM44.22,13.53a3.1,3.1,0,0,0,1-2.41,3.1,3.1,0,0,0-1-2.4,4.16,4.16,0,0,0-2.86-.85H38v6.51h3.41A4.27,4.27,0,0,0,44.22,13.53Z"/><path class="cls-1" d="M58.07.65h9.37V21.17H80v7.26H58.07Z"/><path class="cls-1" d="M85.89,25.61q-3.57-3.45-3.58-9.68V.65h9.38v15a7.19,7.19,0,0,0,1.09,4.44,4.27,4.27,0,0,0,6,.26l.27-.26a7.23,7.23,0,0,0,1.1-4.44V.65h9.21V15.93q0,6.22-3.58,9.68t-9.93,3.46Q89.47,29.07,85.89,25.61Z"/><path class="cls-1" d="M117.31,28.29a18,18,0,0,1-5.37-2.08l3-6.83a20.2,20.2,0,0,0,4.45,1.85,17.9,17.9,0,0,0,4.72.69,7.52,7.52,0,0,0,2.78-.38,1.21,1.21,0,0,0,.83-1.13c0-.58-.36-1-1.09-1.31a22.34,22.34,0,0,0-3.59-1,41.16,41.16,0,0,1-5.36-1.45A9,9,0,0,1,114,14.16a6.84,6.84,0,0,1-1.59-4.78,8.16,8.16,0,0,1,1.53-4.77,9.62,9.62,0,0,1,4.39-3.37,17.92,17.92,0,0,1,7-1.23,25.65,25.65,0,0,1,5.58.62,17.48,17.48,0,0,1,4.86,1.8l-2.82,6.79a17,17,0,0,0-7.74-2.07c-2.4,0-3.61.59-3.61,1.75a1.35,1.35,0,0,0,1.07,1.25,22.37,22.37,0,0,0,3.54.89,36.83,36.83,0,0,1,5.35,1.37,9.43,9.43,0,0,1,3.8,2.52,6.83,6.83,0,0,1,1.6,4.77,8.2,8.2,0,0,1-1.47,4.74,10.06,10.06,0,0,1-4.38,3.38A18.3,18.3,0,0,1,124,29.07,29.48,29.48,0,0,1,117.31,28.29Z"/><path d="M0,42.49v-.66H4.1v-.68H1.16V40.5H4.1v-.64H.47v-.67H4.1v-.67h.84c.08,0,.2,0,.2.12s-.1.12-.2.16v.35H8.6v.67H4.94v.64h3v.65h-3v.68H9.09v.66Zm5.8,5.2a2.15,2.15,0,0,0-.27-.82,4.74,4.74,0,0,0,.65.05c.54,0,.61-.08.61-.38v-.42H2.3v1.54H1.49V43.09H7.58V46.6C7.58,47.25,7.58,47.75,5.8,47.69Zm1-4H2.31v.62H6.8Zm0,1.2H2.31v.65H6.8Z"/><path d="M12.73,47.6H12V44.8A8,8,0,0,1,10.36,47a2,2,0,0,0-.63-.57,7.2,7.2,0,0,0,2.09-2.27H10v-.68H12V42.44l.72.06c.1,0,.25,0,.25.15s-.16.16-.25.18v.69H14.2v.68H12.73a7.62,7.62,0,0,0,1.49,1.4,2.87,2.87,0,0,0-.54.56,9.68,9.68,0,0,1-1-1.22Zm2.15-4.73h-.76V40.38A10.28,10.28,0,0,1,10.45,43a2.52,2.52,0,0,0-.64-.62,10.49,10.49,0,0,0,3.63-2.1H10.35V39.6h3.77V38.5h.78c.09,0,.22,0,.22.13s-.15.17-.24.2v.77h3.74v.68h-3a9,9,0,0,0,3.57,2.07,2.28,2.28,0,0,0-.53.67,9.14,9.14,0,0,1-3.73-2.64Zm-.29,1.3v-.68h1.56V42.4h.73c.1,0,.24,0,.24.11s-.11.16-.25.22v.74H19v.68H17a13.16,13.16,0,0,0,2.2,2.45,4.08,4.08,0,0,0-.63.54,19.58,19.58,0,0,1-1.73-2.31V47.6h-.72V45a9.63,9.63,0,0,1-2,2.27,2.54,2.54,0,0,0-.66-.51,10.55,10.55,0,0,0,2.61-2.51Z"/><path d="M23.23,45.6H23a10.25,10.25,0,0,1-2.13,1.87,2.55,2.55,0,0,0-.71-.55,8.51,8.51,0,0,0,2.27-2l.79.42c.09,0,.12.08.12.15S23.31,45.6,23.23,45.6Zm1.69-.88v2.92h-.83v-2.9H20.4V39.6l.82.07s.2,0,.2.13-.1.12-.23.16v4.13h7.74v.67Zm-2.69-1.3V38.87h5.59v4.57Zm4.78-4H23v.72h4Zm0,1.28H23v.73h4Zm0,1.3H23v.74h4Zm.92,5.38A12.43,12.43,0,0,0,26,45.35l.65-.46a10.55,10.55,0,0,1,1.95,2,2.79,2.79,0,0,0-.71.56Z"/><path d="M29.79,47.17v-.78h2.66l.6-3.38H30.73v-.77h2.44l.44-2.49H30.16V39h8.3v.77h-4L34,42.24h3v4.15h1.87v.78ZM36.2,43H33.9l-.59,3.38H36.2Z"/><path d="M41.21,44a7.76,7.76,0,0,1-.84,3.7,2.3,2.3,0,0,0-.8-.31,6.32,6.32,0,0,0,.85-3.66V40.87h3.51V44Zm-1.34-4.21v-.73h4.41v.73Zm3.28,1.81H41.21v1.68h1.94Zm4.51.79V47.6h-.81V42.39H45.51a6.35,6.35,0,0,1-2.18,5.31,2.88,2.88,0,0,0-.7-.5,5.29,5.29,0,0,0,2.1-4.66V39.17l.68.09a8.78,8.78,0,0,0,2.76-.76l.54.7a.22.22,0,0,1,0,.11.09.09,0,0,1-.1.1h0a.43.43,0,0,1-.24-.1,11.33,11.33,0,0,1-2.87.68V41.6h3.33v.75Z"/><path d="M51.8,39v2.6c0,2.7,0,4.31-1.47,6.13a2.6,2.6,0,0,0-.79-.46c1.36-1.64,1.39-2.9,1.39-5.74V38.65l.87.06c.07,0,.24,0,.24.14S51.93,39,51.8,39Zm3,.56v7.17h-.87V39.19l.87.07c.1,0,.23,0,.23.14s-.12.11-.3.2Zm3-.6v8.7H57V38.6l.85.07c.11,0,.24,0,.24.13s-.12.12-.27.16Z"/><path d="M65.41,39.6a.11.11,0,0,1,0,.08c0,.1-.14.13-.3.17s-.12.34-.35.86h2.78v3.57H65.32V46.6c0,1.08-.54,1.09-1.62,1.11a3,3,0,0,0-.38-.85,3.51,3.51,0,0,0,.72.07c.42,0,.47-.13.47-.45V44.24H62.16V40.67h1.78a7.44,7.44,0,0,0,.42-1.11H61.25v1.49c0,2.85-.17,4.67-1.24,6.41a2.7,2.7,0,0,0-.78-.33c1-1.63,1.21-2.85,1.21-6.05V38.84h8v.76Zm-1.83,5.7A8.34,8.34,0,0,1,62,47.37a2.45,2.45,0,0,0-.69-.46A6.24,6.24,0,0,0,63,44.7l.75.33a.13.13,0,0,1,.12.13c0,.06-.1.09-.25.1Zm3.19-3.9H63v.75h3.7Zm0,1.4H63v.8h3.7Zm1.15,4.56a12.38,12.38,0,0,0-1.73-2.22l.6-.44a12.64,12.64,0,0,1,1.78,2.15,5.13,5.13,0,0,0-.65.47Z"/><path d="M74,40.6l.42.07c.08,0,.25,0,.25.14s-.14.14-.25.17v.93h3.1V45.5c0,1.11-.2,1.41-1.83,1.4a2.48,2.48,0,0,0-.29-.87h.68c.51,0,.6-.1.6-.67V42.67H74.43v5h-.84v-5H71.34v4.21H70.5v-5h3.09V40.6H69.46v-.76h4.13V38.6h.85c.12,0,.24.06.24.13s-.15.14-.25.16v.88h4.14v.83Z"/><path d="M87,45.87a5.73,5.73,0,0,1-2.37,1.35,4.26,4.26,0,0,0-.57-.77c3-.62,3.27-2.69,3.27-3.49A2.85,2.85,0,0,0,84.48,40h-.2a14.11,14.11,0,0,1-1.11,4.56c-.54,1.3-1,1.82-1.56,1.82-.74,0-1.87-1.15-1.87-2.78a4.59,4.59,0,0,1,4.51-4.4,3.66,3.66,0,0,1,3.87,3.44,2.09,2.09,0,0,1,0,.25A4.27,4.27,0,0,1,87,45.87Zm-6.4-2.27c0,1.07.59,1.86,1,1.86s.78-.94,1-1.57a11.54,11.54,0,0,0,.77-3.72A3.7,3.7,0,0,0,80.55,43.6Z"/><path d="M91.07,40.6v2.1A9.76,9.76,0,0,1,90,47.79a2.62,2.62,0,0,0-.79-.38,7.64,7.64,0,0,0,1.07-4.53v-3h3.4V38.52h.83c.16,0,.27,0,.27.13s-.06.13-.24.18v1h3.82v.77Zm6.7,7.17c-.12-.31-.27-.69-.61-1.41-1.85.38-3.46.65-5.49,1,0,.15-.06.23-.17.23s-.15-.16-.17-.24l-.17-.77,1.08-.13a50.83,50.83,0,0,0,1.54-5.29l.86.19c.16,0,.2.08.2.16s-.08.12-.31.18c-.2.81-1,3.48-1.43,4.64,1.4-.2,2.51-.36,3.73-.61a29.73,29.73,0,0,0-1.52-2.62l.7-.4a28.48,28.48,0,0,1,2.51,4.64,1.82,1.82,0,0,0-.79.38Z"/><path d="M99.23,43.08v-.76h4.14V40.76h-2.21a7.12,7.12,0,0,1-.76,1.12,2.26,2.26,0,0,0-.74-.38,10.71,10.71,0,0,0,1.66-2.9l.77.24a.14.14,0,0,1,.15.14c0,.06-.1.11-.27.13-.12.3-.26.59-.41.88h1.81V38.6l.86.06c.14,0,.25.06.25.12s-.07.11-.26.17V40h3.2v.74h-3.2v1.56h4.14v.76Zm6.83,4.58v-.54h-4.51v.55h-.82V43.91h6.2v3.75Zm0-3h-4.51v1.72h4.51Z"/><path d="M112.31,39.09a15.75,15.75,0,0,1-.85,1.87c.25.07.36.1.36.18s-.15.15-.23.17V47.6h-.86V42.16a10.25,10.25,0,0,1-1.21,1.57,3,3,0,0,0-.64-.6,11,11,0,0,0,2.74-4.67l.8.33c.15.06.17.12.17.16S112.41,39.09,112.31,39.09Zm4.91,8.57c-.63,0-1.35-.82-1.77-1.47a9.62,9.62,0,0,1-1.29-4l-2,.24-.07-.78,2-.24C114,40.62,114,39,114,38.55l.82.07c.17,0,.26.05.26.13s-.07.12-.27.17a22.54,22.54,0,0,0,.06,2.39l3.36-.39.08.78-3.36.39c.39,3.24,1.8,4.61,2.22,4.61s.52-1,.57-1.46a1.26,1.26,0,0,0,.7.47C118.18,46.91,117.9,47.66,117.22,47.66Zm-.17-6.88A9.79,9.79,0,0,0,115.91,39l.67-.41a11.24,11.24,0,0,1,1.15,1.75,4.39,4.39,0,0,0-.68.44Z"/><path d="M121.19,42.28h1.09V43h-1.09v2.44c.54-.18,1.09-.37,1.34-.49a2,2,0,0,0-.08.8c-.78.31-1.67.59-3,1,0,.08,0,.23-.17.23s-.14-.1-.17-.23l-.18-.7a10.54,10.54,0,0,0,1.47-.37V43h-1.09v-.72h1.09V40h-1.31v-.73h3.44V40h-1.31Zm7.05,4.32v.72h-6V46.6h2.65V45.35H123V44.6h1.9V43.4h-2V38.93h4.84V43.4h-2v1.2h2v.72h-2V46.6Zm-3.32-5.77V39.6h-1.19v1.24Zm-1.19.67v1.24H125V41.5Zm3.32-.65V39.6h-1.32v1.24Zm-1.32.65v1.24H127V41.5Z"/><path d="M130.73,40.5v2.2a9.59,9.59,0,0,1-1.08,4.9,3.2,3.2,0,0,0-.78-.4,8.93,8.93,0,0,0,1-4.57V39.78h3.32V38.6l.87,0c.07,0,.22,0,.22.15s-.12.13-.24.16v.87h4v.72Zm3.65,2v1.44h2.8V47.6h-.82v-.47h-4v.47h-.8V44h2V40.54l.85.08c.09,0,.24,0,.24.13s-.12.12-.24.14v.89h3.32v.73Zm2,2.17h-4v1.75h4Z"/></g></g></g></svg>