<svg xmlns="http://www.w3.org/2000/svg" width="281.31" height="29.07" viewBox="0 0 281.31 29.07"><defs><style>.cls-1{fill:#cf131c;}</style></defs><title>アセット 1</title><g id="レイヤー_2" data-name="レイヤー 2"><g id="レイヤー_1-2" data-name="レイヤー 1"><g id="レイヤー_1-2-2" data-name="レイヤー 1-2"><path class="cls-1" d="M20.24,17.91H13.69v6.35H6.55V17.91H0V11.16H6.55V4.81h7.14v6.35h6.55Z"/><path class="cls-1" d="M44.77,1.92a9.77,9.77,0,0,1,4.41,3.65,10,10,0,0,1,1.55,5.55,10.06,10.06,0,0,1-1.55,5.56,9.9,9.9,0,0,1-4.41,3.65,16.38,16.38,0,0,1-6.7,1.27h-4v6.83H24.69V.65H38.07A16.05,16.05,0,0,1,44.77,1.92ZM40.33,13.53a3.1,3.1,0,0,0,1-2.41,3.07,3.07,0,0,0-1-2.4,4.15,4.15,0,0,0-2.86-.85H34.06v6.51h3.41A4.27,4.27,0,0,0,40.33,13.53Z"/><path class="cls-1" d="M54.18.65h9.37V21.17H76.09v7.26H54.18Z"/><path class="cls-1" d="M82,25.61q-3.57-3.45-3.58-9.68V.65H87.8v15a7.26,7.26,0,0,0,1.09,4.44,4.28,4.28,0,0,0,6,.26c.09-.09.18-.17.26-.26a7.17,7.17,0,0,0,1.1-4.44V.65h9.21V15.93q0,6.22-3.58,9.68T92,29.07Q85.58,29.07,82,25.61Z"/><path class="cls-1" d="M113.42,28.29a18.21,18.21,0,0,1-5.37-2.08l3-6.83a20.4,20.4,0,0,0,4.45,1.85,17.9,17.9,0,0,0,4.72.69,7.49,7.49,0,0,0,2.78-.38,1.2,1.2,0,0,0,.83-1.13c0-.58-.36-1-1.09-1.31a22.34,22.34,0,0,0-3.59-1,41.16,41.16,0,0,1-5.36-1.45,9,9,0,0,1-3.73-2.54,6.89,6.89,0,0,1-1.59-4.78A8.23,8.23,0,0,1,110,4.61a9.67,9.67,0,0,1,4.39-3.37,18,18,0,0,1,7-1.23A25.52,25.52,0,0,1,127,.63a17.25,17.25,0,0,1,4.86,1.8L129,9.22a16.92,16.92,0,0,0-7.74-2.07c-2.4,0-3.61.59-3.61,1.75a1.35,1.35,0,0,0,1.07,1.25,22.64,22.64,0,0,0,3.54.89,36.83,36.83,0,0,1,5.35,1.37,9.36,9.36,0,0,1,3.8,2.52,6.78,6.78,0,0,1,1.6,4.77,8.13,8.13,0,0,1-1.47,4.74,10,10,0,0,1-4.38,3.38,18.3,18.3,0,0,1-7.09,1.25A29.54,29.54,0,0,1,113.42,28.29Z"/><path d="M143.27,13.9v-.66h4.1v-.68h-2.94v-.65h2.94v-.64h-3.63V10.6h3.63V9.93h.84c.08,0,.2,0,.2.12s-.1.12-.2.16v.35h3.66v.67h-3.66v.64h3v.65h-3v.68h4.15v.66Zm5.8,5.2a2.15,2.15,0,0,0-.27-.82c.22,0,.43,0,.65,0,.54,0,.61-.08.61-.38v-.42h-4.49v1.54h-.81V14.5h6.09V18C150.85,18.66,150.85,19.16,149.07,19.1Zm1-4h-4.49v.62h4.49Zm0,1.2h-4.49V17h4.49Z"/><path d="M156,19h-.72v-2.8a8.29,8.29,0,0,1-1.65,2.21,1.91,1.91,0,0,0-.63-.57,7.31,7.31,0,0,0,2.09-2.27h-1.87V14.9h2.06V13.85l.72.06c.1,0,.25,0,.25.15s-.16.16-.25.18v.69h1.47v.68H156a7.62,7.62,0,0,0,1.49,1.4,2.87,2.87,0,0,0-.54.56,9.68,9.68,0,0,1-1-1.22Zm2.15-4.73h-.76V11.79a10.28,10.28,0,0,1-3.67,2.58,2.22,2.22,0,0,0-.64-.62,10.65,10.65,0,0,0,3.63-2.1h-3.09V11h3.77V9.91h.78c.09,0,.22,0,.22.13s-.15.17-.24.2V11h3.74v.68h-3a9.23,9.23,0,0,0,3.57,2.07,2,2,0,0,0-.53.67,9.23,9.23,0,0,1-3.73-2.64Zm-.29,1.3V14.9h1.56V13.81h.73c.1,0,.24,0,.24.11s-.11.16-.25.22v.74h2.15v.68h-2a13.82,13.82,0,0,0,2.2,2.45,3.22,3.22,0,0,0-.63.54,20.44,20.44,0,0,1-1.73-2.31V19h-.72V16.36a9.83,9.83,0,0,1-2,2.27,2.34,2.34,0,0,0-.66-.51,10.93,10.93,0,0,0,2.61-2.51Z"/><path d="M166.5,17h-.2a10.87,10.87,0,0,1-2.13,1.87,2.38,2.38,0,0,0-.71-.55,8.69,8.69,0,0,0,2.27-2l.79.42c.09.05.12.08.12.15S166.58,17,166.5,17Zm1.69-.88v2.92h-.83v-2.9h-3.69V11l.82.07s.2,0,.2.13-.1.12-.23.16V15.5h7.74v.67Zm-2.69-1.3V10.28h5.59v4.57Zm4.78-3.95h-4v.72h4Zm0,1.28h-4v.73h4Zm0,1.3h-4v.74h4Zm.92,5.38a11.69,11.69,0,0,0-1.89-2.08l.65-.46a10,10,0,0,1,1.95,2,2.41,2.41,0,0,0-.71.56Z"/><path d="M173.06,18.58V17.8h2.66l.6-3.38H174v-.77h2.44l.44-2.49h-3.45v-.77h8.3v.77h-4l-.44,2.49h3V17.8h1.87v.78Zm6.41-4.16h-2.3l-.59,3.38h2.89Z"/><path d="M184.48,15.41a7.81,7.81,0,0,1-.84,3.7,2.12,2.12,0,0,0-.8-.31,6.36,6.36,0,0,0,.85-3.66V12.28h3.51v3.13Zm-1.34-4.21v-.73h4.41v.73ZM186.42,13h-1.94v1.68h1.94Zm4.51.79V19h-.81V13.8h-1.34a6.36,6.36,0,0,1-2.18,5.31,2.88,2.88,0,0,0-.7-.5A5.29,5.29,0,0,0,188,14V10.58l.68.09a9.06,9.06,0,0,0,2.76-.76l.54.7a.22.22,0,0,1,.05.11.1.1,0,0,1-.1.1h0a.64.64,0,0,1-.24-.1,12.25,12.25,0,0,1-2.87.68V13h3.33v.75Z"/><path d="M195.07,10.41V13c0,2.7,0,4.31-1.47,6.13a2.25,2.25,0,0,0-.79-.46c1.36-1.64,1.39-2.9,1.39-5.74V10.06l.87.06c.07,0,.24,0,.24.14S195.2,10.38,195.07,10.41Zm3,.56v7.17h-.87V10.6l.87.07c.1,0,.23,0,.23.14s-.12.11-.3.2Zm3-.6v8.7h-.84V10l.85.07c.11,0,.24,0,.24.13s-.12.12-.27.16Z"/><path d="M208.68,11a.11.11,0,0,1,0,.08c0,.1-.14.13-.3.17s-.12.34-.35.86h2.78v3.57h-2.22V18c0,1.08-.54,1.09-1.62,1.11a2.84,2.84,0,0,0-.38-.85,4.39,4.39,0,0,0,.72.07c.42,0,.47-.13.47-.45V15.65h-2.35V12.08h1.78a7.44,7.44,0,0,0,.42-1.11h-3.11v1.49c0,2.85-.17,4.67-1.24,6.41a2.45,2.45,0,0,0-.78-.33c1-1.63,1.21-2.85,1.21-6V10.25h8V11Zm-1.83,5.7a8.73,8.73,0,0,1-1.56,2.07,2.25,2.25,0,0,0-.69-.46,6.33,6.33,0,0,0,1.63-2.21l.75.33a.13.13,0,0,1,.12.13c0,.06-.1.09-.25.1Zm3.19-3.9H206.3v.75H210Zm0,1.4H206.3V15H210Zm1.15,4.56a12,12,0,0,0-1.73-2.22l.6-.44a12.26,12.26,0,0,1,1.78,2.15,3.7,3.7,0,0,0-.65.47Z"/><path d="M217.28,12l.42.07c.08,0,.25,0,.25.14s-.14.14-.25.17v.93h3.1v3.59c0,1.11-.2,1.41-1.83,1.4a2.36,2.36,0,0,0-.29-.87h.68c.51,0,.6-.1.6-.67V14.08H217.7v5h-.84v-5h-2.25v4.21h-.84v-5h3.09V12h-4.13v-.76h4.13V10h.85c.12,0,.24.06.24.13s-.15.14-.25.16v.88h4.14V12Z"/><path d="M230.22,17.28a5.84,5.84,0,0,1-2.37,1.35,3.94,3.94,0,0,0-.57-.77c3-.62,3.27-2.69,3.27-3.49a2.87,2.87,0,0,0-2.8-2.93h-.2A14.11,14.11,0,0,1,226.44,16c-.54,1.3-1,1.82-1.56,1.82-.74,0-1.87-1.15-1.87-2.78a4.58,4.58,0,0,1,4.51-4.4,3.64,3.64,0,0,1,3.87,3.43,2.17,2.17,0,0,1,0,.26A4.31,4.31,0,0,1,230.22,17.28ZM223.82,15c0,1.07.59,1.86,1,1.86s.78-.94,1-1.57a11.59,11.59,0,0,0,.77-3.72A3.7,3.7,0,0,0,223.82,15Z"/><path d="M234.34,12v2.1a9.8,9.8,0,0,1-1.1,5.09,2.22,2.22,0,0,0-.79-.38,7.68,7.68,0,0,0,1.07-4.53v-3h3.4V9.93h.83c.16,0,.27,0,.27.13s-.06.13-.24.18v1h3.82V12Zm6.7,7.17c-.12-.31-.27-.69-.61-1.41-1.85.38-3.46.65-5.49,1,0,.15-.06.23-.17.23s-.15-.16-.17-.24l-.17-.77,1.08-.13a52.3,52.3,0,0,0,1.54-5.29l.86.19c.16,0,.2.08.2.16s-.08.12-.31.18c-.2.81-1,3.48-1.43,4.64,1.4-.2,2.51-.36,3.73-.61a28.35,28.35,0,0,0-1.52-2.62l.7-.4a27.68,27.68,0,0,1,2.51,4.64,1.62,1.62,0,0,0-.79.38Z"/><path d="M242.5,14.49v-.76h4.14V12.17h-2.21a8.18,8.18,0,0,1-.76,1.12,2.08,2.08,0,0,0-.74-.38,11,11,0,0,0,1.66-2.9l.77.24a.14.14,0,0,1,.15.14c0,.06-.1.11-.27.13-.12.3-.26.59-.41.88h1.81V10l.86.06c.14,0,.25.06.25.12s-.07.11-.26.17v1.09h3.2v.74h-3.2v1.56h4.14v.76Zm6.83,4.58v-.54h-4.51v.55H244V15.32h6.2v3.75Zm0-3h-4.51v1.72h4.51Z"/><path d="M255.58,10.5a16.52,16.52,0,0,1-.85,1.87c.25.07.36.1.36.18s-.15.15-.23.17V19H254V13.57a10.76,10.76,0,0,1-1.21,1.57,2.6,2.6,0,0,0-.64-.6,11.08,11.08,0,0,0,2.74-4.67l.8.33c.15.06.17.12.17.16S255.68,10.5,255.58,10.5Zm4.91,8.57c-.63,0-1.35-.82-1.77-1.47a9.66,9.66,0,0,1-1.29-4l-2.05.24-.07-.78,2.05-.24c-.07-.79-.06-2.37-.06-2.86l.82.07c.17,0,.26.05.26.13s-.07.12-.27.17a22.54,22.54,0,0,0,.06,2.39l3.36-.39.08.78-3.36.39c.39,3.24,1.8,4.61,2.22,4.61s.52-1,.57-1.46a1.31,1.31,0,0,0,.7.47C261.45,18.32,261.17,19.07,260.49,19.07Zm-.17-6.88a9.14,9.14,0,0,0-1.14-1.78l.67-.41A10.78,10.78,0,0,1,261,11.75a3.76,3.76,0,0,0-.68.44Z"/><path d="M264.46,13.69h1.09v.72h-1.09v2.44c.54-.18,1.09-.37,1.34-.49a2,2,0,0,0-.08.8c-.78.31-1.67.59-3,1,0,.08-.05.23-.17.23s-.14-.1-.17-.23l-.18-.7a14.36,14.36,0,0,0,1.47-.37V14.41h-1.09v-.72h1.09V11.36h-1.31v-.73h3.44v.73h-1.31ZM271.51,18v.72h-6V18h2.65V16.76h-1.9V16h1.9v-1.2h-2V10.34H271v4.47h-2V16h2v.72h-2V18Zm-3.32-5.77V11H267v1.24Zm-1.19.67v1.24h1.24V12.91Zm3.32-.65V11H269v1.24Zm-1.32.65v1.24h1.31V12.91Z"/><path d="M274,11.91v2.2a9.59,9.59,0,0,1-1.08,4.9,2.62,2.62,0,0,0-.78-.4,9,9,0,0,0,1-4.57V11.19h3.32V10l.87.05c.07,0,.22,0,.22.15s-.12.13-.24.16v.87h4V12Zm3.65,2v1.44h2.8V19h-.82v-.47h-4V19h-.8V15.36h2V12l.85.08c.09,0,.24,0,.24.13s-.12.12-.24.14v.89H281v.73Zm2,2.17h-4v1.75h4Z"/></g></g></g></svg>