<svg xmlns="http://www.w3.org/2000/svg" viewBox="0 0 286.59 43.47"><defs><style>.cls-1{font-size:11.43px;fill:#231815;font-family:GothicMB101Pro-Regular-83pv-RKSJ-H, A-OTF Gothic MB101 Pro;}.cls-2{fill:#d0121b;}</style></defs><title>アセット 5</title><g id="レイヤー_2" data-name="レイヤー 2"><g id="レイヤー_1-2" data-name="レイヤー 1"><text class="cls-1" transform="translate(126.56 31.11)">青森県五所川原市の広告代理店</text><path class="cls-2" d="M21.78,43.05V0H34.05c8,0,13.12,1.82,13.12,9.25v7.86c0,6.47-5.74,9.31-11.67,9.31H31.81V43.05Zm10-22.8h1.58c3.5,0,3.75-1.93,3.75-7s-.25-7.07-3.75-7.07H31.81Z"/><path class="cls-2" d="M49.89,43.05V0h9.55V43.05Z"/><path class="cls-2" d="M75.7,38.75h-.12c-.91,3-3.21,4.72-7,4.72-4.3,0-6.47-3-6.47-7.92V8.47h9.55v24c0,1.51.12,3.14,1.93,3.14S75.7,34,75.7,32.47v-24h9.55V43.05H75.7Z"/><path class="cls-2" d="M101.45,20.68V16.93c0-1.45-.48-2.6-2-2.6s-2,1.15-2,2.6c0,5.92,13.36,4.84,13.36,16.08,0,6.83-4.11,10.46-12.09,10.46-6.11,0-10.82-2.36-10.82-8.59v-5.5h9.55v5.2c0,1.45.48,2.6,2,2.6s2-1.15,2-2.6c0-8.22-13.54-5.68-13.54-16.93C87.91,10.76,92.8,8,99.09,8,106.35,8,111,10.88,111,16.69v4Z"/><path class="cls-2" d="M6.6,13.08h4.83v6.6H18v4.83h-6.6v6.6H6.6v-6.6H0V19.68H6.6Z"/></g></g></svg>