<svg xmlns="http://www.w3.org/2000/svg" width="72.59mm" height="11.29mm" viewBox="0 0 205.78 32.01"><defs><style>.cls-1{font-size:8.42px;fill:#fff;font-family:GothicMB101Pro-Regular-83pv-RKSJ-H, A-OTF Gothic MB101 Pro;}.cls-2{fill:#d0121b;}</style></defs><title>アセット 4</title><g id="レイヤー_2" data-name="レイヤー 2"><g id="レイヤー_1-2" data-name="レイヤー 1"><text class="cls-1" transform="translate(87.94 22.91)">青森県五所川原市の広告代理店</text><path class="cls-2" d="M16,31.7V0h9C31,0,34.73,1.34,34.73,6.81V12.6c0,4.76-4.22,6.85-8.59,6.85H23.43V31.7Zm7.39-16.79h1.15c2.58,0,2.76-1.42,2.76-5.16s-.18-5.21-2.76-5.21H23.43Z"/><path class="cls-2" d="M36.73,31.7V0h7V31.7Z"/><path class="cls-2" d="M55.74,28.54h-.09C55,30.76,53.29,32,50.53,32c-3.16,0-4.76-2.18-4.76-5.83V6.23h7V23.91c0,1.11.09,2.31,1.43,2.31s1.51-1.2,1.51-2.31V6.23h7V31.7h-7Z"/><path class="cls-2" d="M74.7,15.23V12.47c0-1.07-.35-1.92-1.47-1.92s-1.46.85-1.46,1.92c0,4.36,9.83,3.56,9.83,11.84,0,5-3,7.7-8.9,7.7-4.5,0-8-1.74-8-6.32V21.63h7v3.83c0,1.07.35,1.92,1.46,1.92s1.47-.85,1.47-1.92c0-6.05-10-4.18-10-12.46,0-5.07,3.61-7.08,8.24-7.08,5.34,0,8.77,2.09,8.77,6.37v2.94Z"/><path class="cls-2" d="M4.86,9.63H8.42v4.86h4.86v3.56H8.42v4.86H4.86V18.05H0V14.49H4.86Z"/></g></g></svg>