<svg xmlns="http://www.w3.org/2000/svg" width="200" height="21.95" viewBox="0 0 200 21.95"><defs><style>.cls-1{fill:#cf131c;}.cls-2{fill:#fff;}</style></defs><title>アセット 2</title><g id="レイヤー_2" data-name="レイヤー 2"><g id="レイヤー_1-2" data-name="レイヤー 1"><g id="レイヤー_1-2-2" data-name="レイヤー 1-2"><path class="cls-1" d="M14.39,13.52H9.73v4.79H4.66V13.52H0V8.42H4.66V3.63H9.73V8.42h4.66Z"/><path class="cls-1" d="M31.83,1.45A7,7,0,0,1,35,4.2a8,8,0,0,1,1.11,4.19A7.87,7.87,0,0,1,35,12.59a7.08,7.08,0,0,1-3.13,2.76,11.06,11.06,0,0,1-4.76,1H24.22v5.15H17.55V.49h9.52A10.91,10.91,0,0,1,31.83,1.45Zm-3.16,8.76a2.38,2.38,0,0,0,.71-1.82,2.37,2.37,0,0,0-.71-1.81,2.85,2.85,0,0,0-2-.64H24.22v4.91h2.42A2.85,2.85,0,0,0,28.67,10.21Z"/><path class="cls-1" d="M38.52.49h6.66V16H54.1v5.48H38.52Z"/><path class="cls-1" d="M58.3,19.33Q55.77,16.74,55.75,12V.49h6.67V11.81a5.7,5.7,0,0,0,.78,3.36,2.92,2.92,0,0,0,4.3.19l.18-.19a5.7,5.7,0,0,0,.79-3.36V.49H75V12q0,4.71-2.54,7.31A9.46,9.46,0,0,1,65.41,22,9.45,9.45,0,0,1,58.3,19.33Z"/><path class="cls-1" d="M80.64,21.36a12.14,12.14,0,0,1-3.82-1.57L79,14.63A13.79,13.79,0,0,0,82.12,16a11.94,11.94,0,0,0,3.35.52,5,5,0,0,0,2-.29.89.89,0,0,0,.59-.85,1.08,1.08,0,0,0-.78-1,16.1,16.1,0,0,0-2.55-.72,28.47,28.47,0,0,1-3.81-1.09,6.36,6.36,0,0,1-2.65-1.92,5.41,5.41,0,0,1-1.13-3.61,6.44,6.44,0,0,1,1.09-3.6A7,7,0,0,1,81.33.93a12.43,12.43,0,0,1,5-.93,17.66,17.66,0,0,1,4,.47,12.23,12.23,0,0,1,3.46,1.36L91.74,7a11.56,11.56,0,0,0-5.5-1.56c-1.71,0-2.57.44-2.57,1.32a1,1,0,0,0,.76.94A14.87,14.87,0,0,0,87,8.33a25.14,25.14,0,0,1,3.8,1,6.73,6.73,0,0,1,2.71,1.9,5.37,5.37,0,0,1,1.13,3.6,6.43,6.43,0,0,1-1,3.58A7.09,7.09,0,0,1,90.43,21a12.28,12.28,0,0,1-5,.95A19.56,19.56,0,0,1,80.64,21.36Z"/><path class="cls-2" d="M101.86,10.49V10h2.91V9.48h-2.09V9h2.09V8.51h-2.58V8h2.58V7.49h.6c.06,0,.14,0,.14.09s-.07.1-.14.13V8H108v.51h-2.6V9h2.13v.49h-2.13V10h2.95v.5ZM106,14.42a1.66,1.66,0,0,0-.19-.62,3.57,3.57,0,0,0,.46,0c.39,0,.44-.06.44-.29v-.32h-3.2V14.4h-.57V11h4.33V13.6C107.25,14.09,107.25,14.46,106,14.42Zm.71-3H103.5v.47h3.19Zm0,.9H103.5v.49h3.19Z"/><path class="cls-2" d="M110.91,14.35h-.51V12.24a6.11,6.11,0,0,1-1.18,1.66,1.5,1.5,0,0,0-.44-.43,5.32,5.32,0,0,0,1.48-1.71h-1.33v-.51h1.47v-.8l.51.05c.07,0,.18,0,.18.11s-.12.12-.18.14v.52h1v.51h-1A5.6,5.6,0,0,0,112,12.84a1.69,1.69,0,0,0-.38.42,7.31,7.31,0,0,1-.72-.92Zm1.53-3.57h-.54V8.9a7.4,7.4,0,0,1-2.61,1.95,1.59,1.59,0,0,0-.46-.47,7.28,7.28,0,0,0,2.58-1.59h-2.19V8.31h2.68V7.48h.55c.07,0,.16,0,.16.1s-.11.13-.17.15v.58h2.66v.51H113a6.49,6.49,0,0,0,2.54,1.57,1.67,1.67,0,0,0-.37.5,6.56,6.56,0,0,1-2.66-2Zm-.21,1v-.51h1.11v-.83h.52c.07,0,.17,0,.17.09s-.08.12-.18.16v.56h1.53v.52H114a10.26,10.26,0,0,0,1.56,1.85,2.38,2.38,0,0,0-.44.4,12.42,12.42,0,0,1-1.23-1.74v2.09h-.52v-2a6.89,6.89,0,0,1-1.42,1.71,1.74,1.74,0,0,0-.47-.38,7.81,7.81,0,0,0,1.86-1.9Z"/><path class="cls-2" d="M118.37,12.84h-.14a7.46,7.46,0,0,1-1.51,1.41,1.81,1.81,0,0,0-.51-.41,6.28,6.28,0,0,0,1.62-1.51l.56.31c.06,0,.08.06.08.12S118.43,12.84,118.37,12.84Zm1.21-.66v2.2H119V12.19h-2.63V8.31l.59,0s.14,0,.14.1-.07.09-.17.12V11.7h5.51v.51Zm-1.92-1V7.76h4v3.45Zm3.4-3h-2.84v.55h2.84Zm0,1h-2.84v.55h2.84Zm0,1h-2.84v.56h2.84Zm.66,4.06a8.81,8.81,0,0,0-1.35-1.57l.46-.35a8,8,0,0,1,1.39,1.51,1.87,1.87,0,0,0-.5.43Z"/><path class="cls-2" d="M123,14v-.59h1.89l.43-2.56h-1.65V10.3h1.73l.31-1.88H123.3V7.84h5.9v.58h-2.84l-.31,1.88h2.13v3.14h1.33V14Zm4.56-3.15H126l-.42,2.56h2.06Z"/><path class="cls-2" d="M131.16,11.63a6.28,6.28,0,0,1-.6,2.8,1.51,1.51,0,0,0-.57-.24,5.07,5.07,0,0,0,.61-2.76V9.27h2.49v2.36Zm-.95-3.18V7.9h3.13v.55Zm2.33,1.37h-1.38v1.27h1.38Zm3.2.6v3.93h-.57V10.42h-1a4.92,4.92,0,0,1-1.54,4,2,2,0,0,0-.5-.38,4.12,4.12,0,0,0,1.49-3.52V8l.48.06a5.94,5.94,0,0,0,2-.57l.38.53a.2.2,0,0,1,0,.08.09.09,0,0,1-.08.08h0a.38.38,0,0,1-.17-.08,7.73,7.73,0,0,1-2,.51V9.82h2.36v.57Z"/><path class="cls-2" d="M138.69,7.86v2c0,2,0,3.25-1.05,4.63a1.71,1.71,0,0,0-.56-.35c1-1.24,1-2.19,1-4.33V7.59l.62,0c.05,0,.17,0,.17.1S138.78,7.83,138.69,7.86Zm2.13.42v5.41h-.62V8l.62.05c.07,0,.16,0,.16.11s-.08.08-.21.15ZM143,7.83V14.4h-.59V7.55l.6.06c.08,0,.17,0,.17.1s-.08.09-.19.12Z"/><path class="cls-2" d="M148.36,8.31a.06.06,0,0,1,0,.06c0,.08-.1.1-.21.13s-.09.26-.25.65h2v2.69H148.3V13.6c0,.81-.38.82-1.15.83a2.56,2.56,0,0,0-.27-.64,2.21,2.21,0,0,0,.51.05c.3,0,.33-.09.33-.34V11.81h-1.67V9.12h1.27a6,6,0,0,0,.3-.84h-2.21V9.4c0,2.16-.13,3.53-.89,4.84A1.8,1.8,0,0,0,144,14c.71-1.24.86-2.16.86-4.57V7.74h5.69v.57Zm-1.3,4.3A6.2,6.2,0,0,1,146,14.18a1.52,1.52,0,0,0-.49-.35,4.65,4.65,0,0,0,1.16-1.67l.53.25a.1.1,0,0,1,.09.1s-.07.07-.18.07Zm2.27-2.94h-2.66v.57h2.63Zm0,1.06h-2.66v.6h2.63Zm.82,3.44a9.3,9.3,0,0,0-1.23-1.68l.42-.33a9.08,9.08,0,0,1,1.27,1.62,4.06,4.06,0,0,0-.46.36Z"/><path class="cls-2" d="M154.48,9.06l.3.06c.05,0,.17,0,.17.1s-.1.11-.17.13v.7H157v2.71c0,.84-.14,1.07-1.3,1.06a2,2,0,0,0-.21-.66H156c.36,0,.42-.07.42-.5v-2h-1.6V14.4h-.6V10.63h-1.6v3.18H152V10h2.2v-1h-2.94V8.49h2.94V7.55h.6c.09,0,.17,0,.17.1s-.1.11-.17.12v.67h2.94v.62Z"/><path class="cls-2" d="M163.68,13a4,4,0,0,1-1.69,1,3.32,3.32,0,0,0-.4-.58,2.61,2.61,0,0,0,2.32-2.63,2.1,2.1,0,0,0-2-2.21h-.14a11.32,11.32,0,0,1-.79,3.45c-.38,1-.71,1.37-1.11,1.37s-1.33-.87-1.33-2.1A3.35,3.35,0,0,1,161.76,8a2.67,2.67,0,0,1,2.75,2.59,1.21,1.21,0,0,1,0,.19A3.39,3.39,0,0,1,163.68,13Zm-4.55-1.71c0,.81.42,1.4.71,1.4s.55-.71.71-1.18a9.6,9.6,0,0,0,.55-2.81A2.77,2.77,0,0,0,159.13,11.33Z"/><path class="cls-2" d="M166.61,9.06v1.59a7.7,7.7,0,0,1-.79,3.84,1.41,1.41,0,0,0-.56-.28,6,6,0,0,0,.76-3.42V8.52h2.42v-1H169c.11,0,.19,0,.19.1s0,.1-.17.14v.75h2.72v.58Zm4.76,5.42c-.09-.24-.19-.52-.43-1.07-1.32.29-2.46.49-3.91.76,0,.11,0,.17-.12.17s-.1-.12-.12-.18l-.12-.58.77-.1a39.2,39.2,0,0,0,1.09-4l.61.14c.12,0,.15.06.15.12s-.06.09-.22.14c-.15.61-.71,2.63-1,3.5,1-.15,1.78-.27,2.65-.46a21.05,21.05,0,0,0-1.08-2l.5-.3a21.73,21.73,0,0,1,1.78,3.5,1.37,1.37,0,0,0-.56.29Z"/><path class="cls-2" d="M172.41,10.94v-.58h2.94V9.19h-1.57a6.67,6.67,0,0,1-.54.84,1.83,1.83,0,0,0-.53-.29,7.84,7.84,0,0,0,1.18-2.19l.55.19a.11.11,0,0,1,.11.1s-.07.08-.19.1a6.62,6.62,0,0,1-.3.66h1.29v-1l.61,0c.1,0,.18.05.18.09s0,.08-.18.13v.82h2.27V9.2H176v1.18h2.94V11Zm4.85,3.46V14h-3.2v.41h-.59V11.56h4.41V14.4Zm0-2.27h-3.2v1.3h3.2Z"/><path class="cls-2" d="M181.71,7.92a13.79,13.79,0,0,1-.61,1.42c.18.05.26.07.26.13s-.11.12-.16.13v4.75h-.62V10.24a7.21,7.21,0,0,1-.86,1.19,1.92,1.92,0,0,0-.45-.45,8.63,8.63,0,0,0,1.95-3.53l.57.25c.1,0,.12.09.12.12S181.78,7.92,181.71,7.92Zm3.49,6.48c-.45,0-1-.62-1.26-1.11a7.81,7.81,0,0,1-.92-3l-1.46.18,0-.59L183,9.68c-.05-.6,0-1.79,0-2.16l.58.05c.12,0,.19,0,.19.1s0,.09-.19.13c0,1.13,0,1.26,0,1.8l2.39-.29.05.59-2.38.29c.27,2.45,1.27,3.48,1.57,3.48s.37-.75.41-1.1a.89.89,0,0,0,.5.35C185.88,13.83,185.68,14.4,185.2,14.4Zm-.12-5.2a7.83,7.83,0,0,0-.81-1.34l.47-.31a8.1,8.1,0,0,1,.82,1.32,2.56,2.56,0,0,0-.48.33Z"/><path class="cls-2" d="M188,10.33h.78v.55H188v1.84c.38-.14.78-.28.95-.37a1.75,1.75,0,0,0-.05.6c-.56.24-1.19.45-2.14.76,0,.06,0,.17-.12.17s-.1-.07-.12-.17l-.13-.53a7.37,7.37,0,0,0,1.05-.28v-2h-.78v-.55h.78V8.57h-.93V8H189v.55H188Zm5,3.27v.54h-4.26V13.6h1.88v-.95H189.3v-.56h1.35v-.91h-1.42V7.8h3.44v3.38h-1.42v.91h1.42v.54h-1.42v1Zm-2.36-4.36V8.31h-.84v.94Zm-.84.5v.94h.88V9.74Zm2.36-.49V8.31h-.94v.94Zm-.94.49v.94h.93V9.74Z"/><path class="cls-2" d="M194.8,9v1.66a7.6,7.6,0,0,1-.76,3.7,2,2,0,0,0-.56-.3,7.07,7.07,0,0,0,.71-3.45V8.45h2.36v-.9l.62,0c.05,0,.16,0,.16.12s-.09.09-.17.12v.65H200V9Zm2.6,1.51v1.09h2v2.76h-.58V14H196v.35h-.57V11.59h1.42V9l.61.06c.06,0,.17,0,.17.1s-.09.09-.17.1V10h2.36v.55Zm1.42,1.64H196v1.32h2.84Z"/></g></g></g></svg>