<svg xmlns="http://www.w3.org/2000/svg" width="281.34" height="29.06" viewBox="0 0 281.34 29.06"><defs><style>.cls-1{fill:#cf131c;}.cls-2{fill:#fff;}</style></defs><title>アセット 4</title><g id="レイヤー_2" data-name="レイヤー 2"><g id="レイヤー_1-2" data-name="レイヤー 1"><path class="cls-1" d="M20.24,17.9H13.69v6.35H6.55V17.9H0V11.15H6.55V4.8h7.14v6.35h6.55Z"/><path class="cls-1" d="M44.77,1.91a9.8,9.8,0,0,1,4.41,3.65,10,10,0,0,1,1.55,5.55,10,10,0,0,1-1.55,5.56,9.8,9.8,0,0,1-4.41,3.65,16.31,16.31,0,0,1-6.7,1.27h-4v6.83H24.69V.64H38.07A16.31,16.31,0,0,1,44.77,1.91ZM40.33,13.52a3.08,3.08,0,0,0,1-2.41,3.07,3.07,0,0,0-1-2.4,4.18,4.18,0,0,0-2.86-.85H34.06v6.51h3.41A4.23,4.23,0,0,0,40.33,13.52Z"/><path class="cls-1" d="M54.18.64h9.37V21.16H76.09v7.26H54.18Z"/><path class="cls-1" d="M82,25.6q-3.57-3.45-3.58-9.68V.64H87.8v15a7.24,7.24,0,0,0,1.09,4.44,4.28,4.28,0,0,0,6.31,0,7.16,7.16,0,0,0,1.1-4.44V.64h9.21V15.92q0,6.23-3.58,9.68T92,29.06Q85.58,29.06,82,25.6Z"/><path class="cls-1" d="M113.42,28.28a17.91,17.91,0,0,1-5.37-2.08l3-6.83a19.61,19.61,0,0,0,4.45,1.85,17.45,17.45,0,0,0,4.72.69,7.15,7.15,0,0,0,2.78-.38,1.19,1.19,0,0,0,.83-1.13c0-.58-.36-1-1.09-1.31a23.14,23.14,0,0,0-3.59-.95,40.34,40.34,0,0,1-5.36-1.45,9,9,0,0,1-3.73-2.54,6.88,6.88,0,0,1-1.59-4.78A8.25,8.25,0,0,1,110,4.6a9.74,9.74,0,0,1,4.39-3.37A18.17,18.17,0,0,1,121.42,0,25.74,25.74,0,0,1,127,.62a17.65,17.65,0,0,1,4.86,1.8l-2.82,6.79a17.15,17.15,0,0,0-7.74-2.07c-2.4,0-3.61.59-3.61,1.75,0,.56.36,1,1.07,1.25a21.72,21.72,0,0,0,3.54.89,37.4,37.4,0,0,1,5.35,1.37,9.46,9.46,0,0,1,3.8,2.52,6.8,6.8,0,0,1,1.6,4.77,8.14,8.14,0,0,1-1.47,4.74,9.93,9.93,0,0,1-4.38,3.38,18.06,18.06,0,0,1-7.09,1.25A29,29,0,0,1,113.42,28.28Z"/><path class="cls-2" d="M143.27,13.89v-.66h4.1v-.68h-2.94V11.9h2.94v-.64h-3.63v-.67h3.63V9.92l.84,0c.08,0,.2,0,.2.12s-.1.12-.2.16v.35h3.66v.67h-3.66v.64h3v.65h-3v.68h4.15v.66Zm5.8,5.2a2.19,2.19,0,0,0-.27-.82,4.62,4.62,0,0,0,.65.05c.54,0,.61-.08.61-.38v-.42h-4.49v1.54h-.81V14.49h6.09V18C150.85,18.65,150.85,19.15,149.07,19.09Zm1-4h-4.49v.62h4.49Zm0,1.2h-4.49v.65h4.49Z"/><path class="cls-2" d="M156,19h-.72v-2.8a8,8,0,0,1-1.65,2.21,1.93,1.93,0,0,0-.63-.57,7.22,7.22,0,0,0,2.09-2.27h-1.87v-.68h2.06V13.84l.72.06c.1,0,.25,0,.25.15s-.16.16-.25.18v.69h1.47v.68H156A7.65,7.65,0,0,0,157.49,17a2.87,2.87,0,0,0-.54.56,9.91,9.91,0,0,1-1-1.22Zm2.15-4.73h-.76V11.78a10.23,10.23,0,0,1-3.67,2.58,2.4,2.4,0,0,0-.64-.62,10.46,10.46,0,0,0,3.63-2.1h-3.09V11h3.77V9.9l.78,0c.09,0,.22,0,.22.13s-.15.17-.24.2V11h3.74v.68h-3a9.08,9.08,0,0,0,3.57,2.07,2.23,2.23,0,0,0-.53.67,9.2,9.2,0,0,1-3.73-2.64Zm-.29,1.3v-.68h1.56V13.8l.73,0c.1,0,.24,0,.24.11s-.11.16-.25.22v.74h2.15v.68h-2A13.22,13.22,0,0,0,162.49,18a3.53,3.53,0,0,0-.63.54,19,19,0,0,1-1.73-2.31V19h-.72V16.35a9.76,9.76,0,0,1-2,2.27,2.47,2.47,0,0,0-.66-.51,10.74,10.74,0,0,0,2.61-2.51Z"/><path class="cls-2" d="M166.5,17l-.2,0a10.47,10.47,0,0,1-2.13,1.87,2.56,2.56,0,0,0-.71-.55,8.62,8.62,0,0,0,2.27-2l.79.42c.09.05.12.08.12.15S166.58,17,166.5,17Zm1.69-.88v2.92h-.83V16.14h-3.69V11l.82.07s.2,0,.2.13-.1.12-.23.16v4.13h7.74v.67Zm-2.69-1.3V10.27h5.59v4.57Zm4.78-3.95h-4v.72h4Zm0,1.28h-4v.73h4Zm0,1.3h-4v.74h4Zm.92,5.38a12,12,0,0,0-1.89-2.08l.65-.46a10.43,10.43,0,0,1,1.95,2A2.77,2.77,0,0,0,171.2,18.85Z"/><path class="cls-2" d="M173.06,18.57v-.78h2.66l.6-3.38H174v-.77h2.44l.44-2.49h-3.45v-.77h8.3v.77h-4l-.44,2.49h3v4.15h1.87v.78Zm6.41-4.16h-2.3l-.59,3.38h2.89Z"/><path class="cls-2" d="M184.48,15.4a7.88,7.88,0,0,1-.84,3.7,2.31,2.31,0,0,0-.8-.31,6.35,6.35,0,0,0,.85-3.66V12.27h3.51V15.4Zm-1.34-4.21v-.73h4.41v.73ZM186.42,13h-1.94v1.68h1.94Zm4.51.79V19h-.81V13.79h-1.34a6.33,6.33,0,0,1-2.18,5.31,2.94,2.94,0,0,0-.7-.5A5.29,5.29,0,0,0,188,13.94V10.57l.68.09a8.89,8.89,0,0,0,2.76-.76l.54.7a.25.25,0,0,1,.05.11.1.1,0,0,1-.11.1.51.51,0,0,1-.24-.1,11.68,11.68,0,0,1-2.87.68V13h3.33v.75Z"/><path class="cls-2" d="M195.07,10.4V13c0,2.7,0,4.31-1.47,6.13a2.5,2.5,0,0,0-.79-.46c1.36-1.64,1.39-2.9,1.39-5.74V10.05l.87.06c.07,0,.24,0,.24.14S195.2,10.37,195.07,10.4Zm3,.56v7.17h-.87V10.59l.87.07c.1,0,.23,0,.23.14S198.18,10.91,198,11Zm3-.6v8.7h-.84V10l.85.07c.11,0,.24,0,.24.13S201.2,10.32,201.05,10.36Z"/><path class="cls-2" d="M208.68,11a.1.1,0,0,1,0,.08c0,.1-.14.13-.3.17s-.12.34-.35.86h2.78v3.57h-2.22V18c0,1.08-.54,1.09-1.62,1.11a3,3,0,0,0-.38-.85,3.75,3.75,0,0,0,.72.07c.42,0,.47-.13.47-.45V15.64h-2.35V12.07h1.78a7.93,7.93,0,0,0,.42-1.11h-3.11v1.49c0,2.85-.17,4.67-1.24,6.41a2.74,2.74,0,0,0-.78-.33c1-1.63,1.21-2.85,1.21-6.05V10.24h8V11Zm-1.83,5.7a8.47,8.47,0,0,1-1.56,2.07,2.45,2.45,0,0,0-.69-.46,6.29,6.29,0,0,0,1.63-2.21l.75.33c.07,0,.12.07.12.13S207,16.65,206.85,16.66Zm3.19-3.9H206.3v.75H210Zm0,1.4H206.3V15H210Zm1.15,4.56a12.53,12.53,0,0,0-1.73-2.22l.6-.44a12.64,12.64,0,0,1,1.78,2.15A4.85,4.85,0,0,0,211.19,18.72Z"/><path class="cls-2" d="M217.28,12l.42.07c.08,0,.25,0,.25.14s-.14.14-.25.17v.93h3.1V16.9c0,1.11-.2,1.41-1.83,1.4a2.36,2.36,0,0,0-.29-.87c.12,0,.34,0,.68,0,.51,0,.6-.1.6-.67V14.07H217.7v5h-.84v-5h-2.25v4.21h-.84v-5h3.09V12h-4.13v-.76h4.13V10l.85,0c.12,0,.24.06.24.13s-.15.14-.25.16v.88h4.14V12Z"/><path class="cls-2" d="M230.22,17.27a5.83,5.83,0,0,1-2.37,1.35,4.07,4.07,0,0,0-.57-.77c3-.62,3.27-2.69,3.27-3.49a2.86,2.86,0,0,0-3-2.92A14.15,14.15,0,0,1,226.44,16c-.54,1.3-1,1.82-1.56,1.82-.74,0-1.87-1.15-1.87-2.78a4.58,4.58,0,0,1,4.51-4.4,3.66,3.66,0,0,1,3.88,3.69A4.28,4.28,0,0,1,230.22,17.27ZM223.82,15c0,1.07.59,1.86,1,1.86s.78-.94,1-1.57a11.76,11.76,0,0,0,.77-3.72A3.71,3.71,0,0,0,223.82,15Z"/><path class="cls-2" d="M234.34,12v2.1a9.76,9.76,0,0,1-1.1,5.09,2.35,2.35,0,0,0-.79-.38,7.63,7.63,0,0,0,1.07-4.53v-3h3.4V9.92l.83,0c.16,0,.27,0,.27.13s-.06.13-.24.18v1h3.82V12Zm6.7,7.17c-.12-.31-.27-.69-.61-1.41-1.85.38-3.46.65-5.49,1,0,.15-.06.23-.17.23s-.15-.16-.17-.24l-.17-.77,1.08-.13a51.59,51.59,0,0,0,1.54-5.29l.86.19c.16,0,.2.08.2.16s-.08.12-.31.18c-.2.81-1,3.48-1.43,4.64,1.4-.2,2.51-.36,3.73-.61a27.77,27.77,0,0,0-1.52-2.62l.7-.4a27.73,27.73,0,0,1,2.51,4.64A1.71,1.71,0,0,0,241,19.12Z"/><path class="cls-2" d="M242.5,14.48v-.76h4.14V12.16h-2.21a7.75,7.75,0,0,1-.76,1.12,2.28,2.28,0,0,0-.74-.38A10.59,10.59,0,0,0,244.59,10l.77.24c.1,0,.15.08.15.14s-.1.11-.27.13c-.12.3-.26.59-.41.88h1.81V10l.86.06c.14,0,.25.06.25.12s-.07.11-.26.17v1.09h3.2v.74h-3.2v1.56h4.14v.76Zm6.83,4.58v-.54h-4.51v.55H244V15.31h6.2v3.75Zm0-3h-4.51v1.72h4.51Z"/><path class="cls-2" d="M255.58,10.49a16.68,16.68,0,0,1-.85,1.87c.25.07.36.1.36.18s-.15.15-.23.17V19H254V13.56a10.4,10.4,0,0,1-1.21,1.57,2.91,2.91,0,0,0-.64-.6,11.08,11.08,0,0,0,2.74-4.67l.8.33c.15.06.17.12.17.16S255.68,10.49,255.58,10.49Zm4.91,8.57c-.63,0-1.35-.82-1.77-1.47a9.71,9.71,0,0,1-1.29-4l-2.05.24-.07-.78,2.05-.24c-.07-.79-.06-2.37-.06-2.86l.82.07c.17,0,.26.05.26.13s-.07.12-.27.17c0,1.5,0,1.67.06,2.39l3.36-.39.08.78-3.36.39c.39,3.24,1.8,4.61,2.22,4.61s.52-1,.57-1.46a1.29,1.29,0,0,0,.7.47C261.45,18.31,261.17,19.06,260.49,19.06Zm-.17-6.88a9.59,9.59,0,0,0-1.14-1.78l.67-.41A10.91,10.91,0,0,1,261,11.74,4.29,4.29,0,0,0,260.32,12.18Z"/><path class="cls-2" d="M264.46,13.68h1.09v.72h-1.09v2.44c.54-.18,1.09-.37,1.34-.49a2.09,2.09,0,0,0-.08.8c-.78.31-1.67.59-3,1,0,.08-.05.23-.17.23s-.14-.1-.17-.23l-.18-.7a12,12,0,0,0,1.47-.37V14.4h-1.09v-.72h1.09V11.35h-1.31v-.73h3.44v.73h-1.31ZM271.51,18v.72h-6V18h2.65V16.75h-1.9V16h1.9V14.8h-2V10.33H271V14.8H269V16h2v.72h-2V18Zm-3.32-5.77V11H267v1.24ZM267,12.9v1.24h1.24V12.9Zm3.32-.65V11H269v1.24ZM269,12.9v1.24h1.31V12.9Z"/><path class="cls-2" d="M274,11.9v2.2a9.59,9.59,0,0,1-1.08,4.9,2.93,2.93,0,0,0-.78-.4,8.9,8.9,0,0,0,1-4.57V11.18h3.32V10l.87.05c.07,0,.22,0,.22.15s-.12.13-.24.16v.87h4v.72Zm3.65,2v1.44h2.8V19h-.82v-.47h-4V19h-.8V15.35h2V11.94l.85.08c.09,0,.24,0,.24.13s-.12.12-.24.14v.89H281v.73Zm2,2.17h-4v1.75h4Z"/></g></g></svg>