<svg xmlns="http://www.w3.org/2000/svg" width="547.4" height="229.02" viewBox="0 0 547.4 229.02"><defs><style>.cls-1{fill:#fff;}</style></defs><title>アセット 1</title><g id="レイヤー_2" data-name="レイヤー 2"><g id="レイヤー_1-2" data-name="レイヤー 1"><path class="cls-1" d="M15.16,69.71V65.48q.78-4.91,1.9-9.6t2.76-9.44h7.49v1.38q-1.64,5.26-2.88,10.64a81.07,81.07,0,0,0-1.77,11.25Zm2.76-32.92V35.41L16.8,25.68V13l.86-10.86h7.15l.26,4.14L24.81,8h.61A76.63,76.63,0,0,1,36.58,2.84,53.58,53.58,0,0,1,48.6,0h13a13.24,13.24,0,0,1,8,3.27l.26.87.86.51a18.82,18.82,0,0,1,2.5,10.52,42.33,42.33,0,0,1-1.51,9.17,52.6,52.6,0,0,1-3.23,8.57H61.09V31.79a66.42,66.42,0,0,0,3.14-9.3,39.77,39.77,0,0,0,1.25-10.08,12.41,12.41,0,0,0-3.27-7.76,12.67,12.67,0,0,0-8.36-3A43.9,43.9,0,0,0,39,6.46a57.7,57.7,0,0,1-14.39,5.43V27.06l.86,9.73Zm9.14.78V36.19l11.63-1.9L39,22.4H37.83a23.62,23.62,0,0,1-11.89,1.38V22.4l13-3.62.51-8.61L39.2,8.53h7.5L47,17.41h.52a43.77,43.77,0,0,1,11.11-.87v1.38L46.7,20.16l-.26,12.41h2.41A58.45,58.45,0,0,1,60,32.05v1.38a141.41,141.41,0,0,0-16.16,2.63A67.39,67.39,0,0,1,27.06,37.57ZM39.2,69.36,37,68.59a13.52,13.52,0,0,1-2.41-9.74c.17-2.76.45-5.37.82-7.84s.82-5,1.34-7.58H44.2v1.89c-.57,2.59-1.05,5.22-1.42,7.89a59.2,59.2,0,0,0-.56,8.14l1.72,5,1.9.51q3.87-1.64,7.88-3.27a16.67,16.67,0,0,1,9-.86v1.38a43.4,43.4,0,0,1-11.08,4.61A32.52,32.52,0,0,1,39.2,69.36Zm29.3-3.53L67.12,53.94h-.77a29.88,29.88,0,0,1-13.27,1.38l-2-2.24-.51-12.76H58a83.3,83.3,0,0,0,.86,12.24h.86a9.48,9.48,0,0,1,6.89-1.38V50.06l-1.12-7.5H73q1.13,5.52,1.94,11.34a86.27,86.27,0,0,1,.82,11.93Z"/><path class="cls-1" d="M96.59,60.83,95.47,60v-.52l-1.12-.86a34.55,34.55,0,0,1-2.5-11.76q-.25-6.24-.26-12.54A63,63,0,0,1,93,20.94h7.41v2.24a70.67,70.67,0,0,0-.9,9.82q-.14,5.09-.13,10.34c.17,2.41.44,4.83.82,7.24a29,29,0,0,0,1.93,6.89h.52L106,54.71h.52l.26-.86,1.38-1.38,3.1-2.15L112,48.6,113.74,47h.51l.86-1.64,2.16-2.5h.6l.26-.86h7.5v1.38l-1.73,2.24h-.51l-.87,1.64-.77.34-.86,1.64-5.26,5.26-7.75,5.77A57.1,57.1,0,0,1,96.59,60.83Zm49.46-7v-.26q-1.12-7.76-2.2-15.33a131.66,131.66,0,0,0-3.06-15.08h7.5l.51.26a130.6,130.6,0,0,1,3.06,15.12q1.08,7.62,1.68,15.29Z"/><path class="cls-1" d="M190.77,70.22a11.07,11.07,0,0,1-6.38-2.5l-.26-.86-.86-.26a14.35,14.35,0,0,1-2.76-10.51A28.51,28.51,0,0,1,183,47.26q1.93-4.17,4.18-8.06H186a40,40,0,0,1-12.41.87l-2-.87a19.39,19.39,0,0,1-2.24-12.14l.6-5.26h-.86a17.33,17.33,0,0,1-6.64,1.51c-2.41.08-4.88.13-7.41.13V22.06a70.8,70.8,0,0,0,7.67-2c2.59-.83,5.17-1.53,7.76-2.11l1.72-12.15h7.41V9.05l-1.12,6.63h.86q4.74-1,9.44-2.28a27.75,27.75,0,0,1,9.95-.73V14a79.77,79.77,0,0,1-10.25,2.63q-5.26,1-10.52,2.37l-.86,13.53a7,7,0,0,0,1.73,4.74l1.37.26a38.76,38.76,0,0,1,10.52-1.9l.77-1.72L196,30.07h.52l.52-.77a20.71,20.71,0,0,1,5.25-2.5H214.2l3.36,1.38a3.33,3.33,0,0,1,.86,3h-7.49L209.29,29h-2l-7.41,5.25-.86,1.9,2.5,1.12,1.38,3.27V52.22l.25,1.63h-7.75l-.26-7.41.26-2.75-.26-2.5h-.52a68.29,68.29,0,0,0-4.43,8.7,24.73,24.73,0,0,0-1.94,9.82,15.22,15.22,0,0,0,3.27,6.64,12.21,12.21,0,0,0,5.86,1.89,27.12,27.12,0,0,0,11-5.38q5-4,12.15-2.89v1.38a103.73,103.73,0,0,1-9,5.51,30.46,30.46,0,0,1-9.83,3.36Z"/><path class="cls-1" d="M271.16,68.84l-3.88-1.63L267,65.48l7.15-.25a135.31,135.31,0,0,0,6.64-16.33,90.86,90.86,0,0,0,3.87-17.11l-1.38-3.87a9.76,9.76,0,0,0-6.37-2.24q-4.65.86-9,1.94c-2.88.71-5.77,1.53-8.7,2.45q-2.25,7.76-4.44,15.64T251,61.61h-7.75V60l6.89-26.28h-.86a62.44,62.44,0,0,0-11.16,5.69A18.64,18.64,0,0,1,225.49,42V40.58q6.38-3.53,12.88-6.59t13.14-5.56l4.74-18.26h7.67v1.38a43.16,43.16,0,0,0-2.2,7.1q-.83,3.75-1.33,7.29h1.12A58.19,58.19,0,0,1,272,24h11.54a10.49,10.49,0,0,1,6.64,2.15A9.94,9.94,0,0,1,292.44,34,133.49,133.49,0,0,1,288,51.27a92.24,92.24,0,0,1-7.23,16.45A21.29,21.29,0,0,1,271.16,68.84Z"/><path class="cls-1" d="M331,73.07V71.6a123.88,123.88,0,0,0,3.92-12.32q1.68-6.37,3.58-12.32h-.86a56.83,56.83,0,0,1-7.84,1.72,34.4,34.4,0,0,1-8.45.17L321,47.22a66.31,66.31,0,0,0,9.7-1.9q4.69-1.29,9.35-2.67,1.73-4.65,3.23-9.22a45.44,45.44,0,0,0,2-9.82l-1.89-3.1-1.38-.61a43.16,43.16,0,0,0-14,5.17,24,24,0,0,1-14.52,3.11q-1.64,4.65-3.15,9.43a54.14,54.14,0,0,0-2.11,9.87l.86.34,8-.34v1.37a11.46,11.46,0,0,1-6.9,3,57.72,57.72,0,0,1-8,0A10.09,10.09,0,0,1,300.88,44a134.25,134.25,0,0,1,6.46-20.25,141.71,141.71,0,0,1,9.57-19.13h7.41V6.12Q321.56,11,319.11,16t-4.44,10.16h.52a96.37,96.37,0,0,1,15.68-6.59,41.64,41.64,0,0,1,17.23-1.68l3.62,1.73a9.46,9.46,0,0,1,1.38,5.94A45.23,45.23,0,0,1,351.46,33c-.75,2.38-1.49,4.84-2.24,7.36h.86l8-.25v1.37L347.58,44q-2.49,7.15-4.56,14.52t-4.31,14.52Z"/><path class="cls-1" d="M391.79,71.86v-2.5q1.63-7.76,3.7-15.21T399.8,39.2h-.86a155.45,155.45,0,0,0-20.55,4.27,47.8,47.8,0,0,1-15.47,1.94V44q8-2.23,15.9-4.18a198.79,198.79,0,0,1,21.75-3.66l3.88-16h7.76v1.9l-3,12.49h.52q6.89-1.11,14-2.37a83.64,83.64,0,0,1,14.56-1.25v1.38l-29.9,5.26q-2.5,8.61-5,17a168.09,168.09,0,0,0-4.14,17.28Zm-8.88-46.7V23.78q16-13.6,22.66-18.87l.52-.77a14.56,14.56,0,0,1,9.48-1.38V4.14q-12.49,9.9-25.25,21Z"/><path class="cls-1" d="M446.33,61.09l-.78-.26-.86-.86a27.38,27.38,0,0,1-1.38-11.63L445,30.07h7.75v2.76c-.34,3.5-.7,7-1.08,10.51a103.27,103.27,0,0,0-.56,10.86l.87,3.27h.51l4.4-3.27a19,19,0,0,1,9.48-1.12v1.38l-1.47.51-.52.86a16.92,16.92,0,0,1-8.18,4.7A29.93,29.93,0,0,1,446.33,61.09ZM490.61,34V32.57l1.64-2.5,5.26-7.15.6-3h-.6a63.79,63.79,0,0,0-11,4.27,20.92,20.92,0,0,1-12.15,1.77V24.56A94.7,94.7,0,0,1,488.16,19a38.33,38.33,0,0,1,15.46-1.38l1.9.78.34,3.88a32.43,32.43,0,0,1-4.48,7.75l-.77.35-1.72,2.75-.78.26V34ZM487,66.09l-3.88-2.24a43.5,43.5,0,0,1-4.7-6.94c-1.29-2.38-2.48-4.87-3.57-7.45h7.75a71.08,71.08,0,0,1,4,6.8,29.16,29.16,0,0,0,4.52,6.47l2.5,1.12a41.5,41.5,0,0,0,11.76-7.07q5.39-4.56,13.14-3.44v1.37q-4.65,3.36-9.65,6.38a62.53,62.53,0,0,1-10.25,5Z"/><path class="cls-1" d="M539.9,70.22V68.84a29.72,29.72,0,0,0-2.59-7.49,43,43,0,0,0-4.3-6.89l-.52-.26a4.23,4.23,0,0,1-2-3.62H538l.78,1.12.86.26,1.12,1.89h.52a49.35,49.35,0,0,1,4.31,7.63,21.07,21.07,0,0,1,1.81,8.74Z"/><path class="cls-1" d="M35.07,222.65a30.37,30.37,0,0,1-11.63-4.4l-1.9-1.64-4.39-6.11a21.08,21.08,0,0,1-2-7.76,71.38,71.38,0,0,1,0-8.53H14a20.94,20.94,0,0,1-6.46,3.15,17.92,17.92,0,0,1-7.58.39v-1.38q3.8-2.16,8-4.1t8.31-3.57A107.67,107.67,0,0,1,21,171.12a117.64,117.64,0,0,1,7.45-16.46l8-.26v1.38a77.33,77.33,0,0,0-6.9,14.09,154.94,154.94,0,0,0-4.74,15.21h.87c4.07-1.49,8.23-2.79,12.45-3.88a107.91,107.91,0,0,1,13-2.5H65a10.18,10.18,0,0,1,5.51,2.24,5.77,5.77,0,0,1,.86,4.66l-2.75,5.25L63.33,197l-5,5q-5.25,3-12.49,1.89l-4.14-2.75v-1.38h7.76l1.12.51,1.89-1,2.5-2.5q7.76-9.14,8.62-13.61l-2.5-2.16-4.74-.6a126.41,126.41,0,0,0-16.41,3.88q-8.14,2.49-16.16,5.51a59.69,59.69,0,0,0-.86,13A26.49,26.49,0,0,0,26.8,213l1.63,2,2.76,1.63v.52A29.07,29.07,0,0,0,42.31,221l7.58-2.2a20.69,20.69,0,0,1,8.18-.56v1.38a35.55,35.55,0,0,1-10,3Z"/><path class="cls-1" d="M121.92,223.25,118,221.61l-.25-1.72,7.15-.26a135.55,135.55,0,0,0,6.63-16.33,90.61,90.61,0,0,0,3.88-17.1l-1.38-3.88a9.84,9.84,0,0,0-6.38-2.24c-3.1.58-6.09,1.22-9,1.94s-5.77,1.54-8.7,2.46q-2.23,7.76-4.44,15.63T101.76,216H94v-1.64l6.9-26.28H100a63.11,63.11,0,0,0-11.16,5.69,18.65,18.65,0,0,1-12.63,2.59V195q6.38-3.54,12.89-6.59t13.14-5.56L107,164.57h7.67V166a42,42,0,0,0-2.19,7.11c-.55,2.5-1,4.93-1.34,7.28h1.12a59.24,59.24,0,0,1,10.51-1.9h11.55A10.43,10.43,0,0,1,141,180.6a9.88,9.88,0,0,1,2.24,7.75,133.46,133.46,0,0,1-4.39,17.32,92.38,92.38,0,0,1-7.24,16.46A21.43,21.43,0,0,1,121.92,223.25Z"/><path class="cls-1" d="M185.08,224l-1.38-1a47.31,47.31,0,0,1-1.38-11.37V198.35l.6-4.74h-.86q-8.52,6.63-16.63,13.27l-6.29,6.37-8,.26v-1.38l.78-.25.86-1.64,1.38-1.38q8.52-7.76,16.88-14.13,11.9-7.75,23.78-15.64a58.57,58.57,0,0,1,25.94-9.52V171a163.84,163.84,0,0,0-18.35,9.52q-9,5.39-17.84,11.5v.52h6.12v2.24l-.6,3.36v14a30.43,30.43,0,0,0,1.63,10l3.88.26v1.38Z"/><path class="cls-1" d="M257.46,224.63a11.13,11.13,0,0,1-6.38-2.5l-.26-.86L250,221a14.35,14.35,0,0,1-2.76-10.51,28.44,28.44,0,0,1,2.46-8.83q1.93-4.18,4.18-8.06h-1.12a39.7,39.7,0,0,1-12.41.86l-2-.86a19.41,19.41,0,0,1-2.24-12.15l.6-5.26h-.86a17.15,17.15,0,0,1-6.64,1.51q-3.62.14-7.41.13v-1.38a70.72,70.72,0,0,0,7.67-2c2.59-.83,5.17-1.54,7.76-2.11l1.72-12.15h7.41v3.27l-1.12,6.64h.86c3.16-.69,6.3-1.45,9.44-2.29a28,28,0,0,1,10-.73v1.38a81.16,81.16,0,0,1-10.26,2.63q-5.25,1-10.51,2.37L243.84,187a7,7,0,0,0,1.72,4.74l1.38.26a38.76,38.76,0,0,1,10.52-1.89l.77-1.73,4.48-3.87h.52l.52-.78a21.06,21.06,0,0,1,5.25-2.5h11.89l3.36,1.38a3.35,3.35,0,0,1,.86,3h-7.49L276,183.44h-2l-7.41,5.26-.86,1.89,2.5,1.12L269.6,195v11.63l.26,1.64h-7.75l-.26-7.41.26-2.76-.26-2.5h-.52a69.64,69.64,0,0,0-4.43,8.7,24.78,24.78,0,0,0-1.94,9.83,15.19,15.19,0,0,0,3.27,6.63,12.33,12.33,0,0,0,5.86,1.9,27.14,27.14,0,0,0,11-5.39q5-4,12.15-2.89v1.38q-4.39,3-9,5.52a31,31,0,0,1-9.83,3.36Z"/><path class="cls-1" d="M299.93,172.33l-.34-1.64,31.88-2v-.52h-.6v-1.38l2-14.9h7.41v3.27l-1.64,13h4.74l24.3-.86v1.38q-17.15.6-34,1.72T299.93,172.33Zm5.78,22.4a15.54,15.54,0,0,1-1.64-10.25l.52-7.41h7.75v3.27l-.52,10.77,1.12,2,.78.26v1.38ZM319,229v-1.38l7.23-6.63h.52l.52-1.12.86-.26.6-1.12.78-.26.6-1.64-.86-.25-2.24-2.5v-.61l-.78-.51a3,3,0,0,1-.6-2.5h7.5l1.89,1.89.86-1h.52l.86-1.72.86-.26A26.11,26.11,0,0,0,342,202l-1.12-.35q-3.87,1.38-8,2.63A22.1,22.1,0,0,1,324,205l-10.25,17.15-7.76.26v-1.64l13.88-22.66h7.75v1.38l-1.72,3.27h.6a34.17,34.17,0,0,1,9.91-2.84,64,64,0,0,1,11.12-.43l1.89.77.6,3.11a24.62,24.62,0,0,1-3.61,6l-6.9,7.75a45.37,45.37,0,0,0,11.2,6.08A70.78,70.78,0,0,0,363,226.52v1.38h-8.35a83.93,83.93,0,0,1-9.95-2.71,54.07,54.07,0,0,1-9.35-4.18l-1.12.6-.26.78-7.5,6.63Zm.86-38.17-1.38-1.38-.26-3.87q.51-3.54,1.34-6.9t1.68-6.63H329v1.64c-.75,2.24-1.39,4.46-1.94,6.67a49,49,0,0,0-1.16,6.94H332v1.38h-.52l-.35.77A20.08,20.08,0,0,1,319.84,190.85Zm15.77,2V189L337,172.07h7.76v2.5c-.4,2.93-.69,5.91-.86,9s-.35,6.15-.52,9.3Zm21.28-2.5c-.92-2.24-1.89-4.42-2.89-6.54a36.15,36.15,0,0,1-2.37-6.72h7.5q1.38,3.27,2.88,6.46a33.92,33.92,0,0,1,2.37,6.8Z"/><path class="cls-1" d="M417.29,226.52a12.37,12.37,0,0,1-6.64-2.5,11.94,11.94,0,0,1-3.44-6.07,35.31,35.31,0,0,1-.69-7.19l.77-6.9h-.51l-3.88,5.26-6.38,8.27-4.39,5.26h-.6l-.78,1.37-7.75.35v-1.72l2.49-2.76H386l1.38-2.5.86-.26,2.24-3.62.78-.26,5.51-8,3.1-3.88,2.5-3h.52l2-3.36,3-3.88a78.76,78.76,0,0,0,7.49-9.91l.78-3-.78-1.12h-2.5a89.12,89.12,0,0,0-14.95,4,36.66,36.66,0,0,1-15.46,2v-1.38q6.63-1.64,13.1-3.58A104.53,104.53,0,0,1,409,175.08h12.4l2,.87a8.34,8.34,0,0,1,.51,4.13l-3,5.77-.87.35L413.93,195l-2.42,3.1h-.6v1.12h5.52v1.38a38,38,0,0,0-2.16,12.92,13.47,13.47,0,0,0,4.14,9.14,5.88,5.88,0,0,0,5,1.72,97.73,97.73,0,0,0,10.34-4.61,66.21,66.21,0,0,0,9.82-6.25l.51-1.38h7.76v1.73a27.23,27.23,0,0,1-7.15,5.51,65.91,65.91,0,0,1-12.75,5.82A34.47,34.47,0,0,1,417.29,226.52Zm3.88-65.22a97.18,97.18,0,0,1-12.46-2q-6.06-1.38-12.19-2.5v-1.38h8.88q5.78,1.38,11.59,2.63a106.36,106.36,0,0,0,11.93,1.85v1.38Z"/><path class="cls-1" d="M474.07,222.65a57.31,57.31,0,0,1-9.18-1.77,20.7,20.7,0,0,1-8-4.27,6.66,6.66,0,0,1-1.12-5.51l1.9-3.62a17.11,17.11,0,0,1,5-2.5h12.49A30.22,30.22,0,0,1,486,210l4.14,4.14.86.86a5.19,5.19,0,0,1,1.63,3.79h.78l7.5-4.65,1.38-1.12a11.06,11.06,0,0,0,2.49-8l-3-4.74-.61-.25-3.53-2.76a41.61,41.61,0,0,0-10.12-3.75,54.06,54.06,0,0,1-10.13-3.4l-.51-2.5,1.38-2.76,5-4.74,12.15-9.39,2.76-3.62v-.77a18.58,18.58,0,0,0-8.62-2l-14,1.64h-13v-1.64q5,0,9.82-.43c3.22-.28,6.41-.6,9.56-.94h17.93a15.93,15.93,0,0,1,5.86,1.63,5.37,5.37,0,0,1,.51,3.36l-1.63,2.16-.87.86L500,174l-2.41,2.24L489,182.58l-2.5,2.5-1.64,3.27.26.86q6.38,2.25,12.88,3.88a28.64,28.64,0,0,1,11.76,6.12,10.94,10.94,0,0,1,2.76,9.65l-2,4.39L507,216.61l-1.12.78a29.09,29.09,0,0,1-7.23,3.49,44.59,44.59,0,0,1-8,1.77Zm17.66-3.54-6.89-.34-3-3.79-3.1-3.62a26.09,26.09,0,0,0-10.16-4.48l-3.11,2-1.37,1.64-.52,2.75,2.15,3.36a34.81,34.81,0,0,0,8.19,3.28,45.15,45.15,0,0,0,9,1.38A33.79,33.79,0,0,0,491.73,219.11Z"/></g></g></svg>